Pridi-200.ufo
<glyph name="exclam" format="1">
  <advance width="173"/>
  <unicode hex="0021"/>
  <note>
	exclam
  </note>
  <outline>
    <contour>
      <point x="111" y="148" type="line"/>
      <point x="117" y="647" type="line"/>
      <point x="56" y="647" type="line"/>
      <point x="62" y="148" type="line"/>
    </contour>
    <contour>
      <point x="118" y="0" type="line"/>
      <point x="118" y="63" type="line"/>
      <point x="55" y="63" type="line"/>
      <point x="55" y="0" type="line"/>
    </contour>
  </outline>
</glyph>
<glyph name="quotedbl" format="1">
  <advance width="288"/>
  <unicode hex="0022"/>
  <note>
	quotedbl
  </note>
  <outline>
    <contour>
      <point x="222" y="543" type="line"/>
      <point x="233" y="721" type="line"/>
      <point x="168" y="721" type="line"/>
      <point x="179" y="543" type="line"/>
    </contour>
    <contour>
      <point x="109" y="543" type="line"/>
      <point x="120" y="721" type="line"/>
      <point x="55" y="721" type="line"/>
      <point x="66" y="543" type="line"/>
    </contour>
  </outline>
</glyph>
<glyph name="numbersign" format="1">
  <advance width="746"/>
  <unicode hex="0023"/>
  <note>
	numbersign
  </note>
  <outline>
    <contour>
      <point x="191" y="0" type="line"/>
      <point x="230" y="182" type="line"/>
      <point x="457" y="182" type="line"/>
      <point x="418" y="0" type="line"/>
      <point x="471" y="0" type="line"/>
      <point x="510" y="182" type="line"/>
      <point x="661" y="182" type="line"/>
      <point x="661" y="227" type="line"/>
      <point x="520" y="227" type="line"/>
      <point x="566" y="435" type="line"/>
      <point x="691" y="435" type="line"/>
      <point x="691" y="480" type="line"/>
      <point x="576" y="480" type="line"/>
      <point x="612" y="647" type="line"/>
      <point x="559" y="647" type="line"/>
      <point x="523" y="480" type="line"/>
      <point x="296" y="480" type="line"/>
      <point x="332" y="647" type="line"/>
      <point x="279" y="647" type="line"/>
      <point x="243" y="480" type="line"/>
      <point x="85" y="480" type="line"/>
      <point x="85" y="435" type="line"/>
      <point x="233" y="435" type="line"/>
      <point x="187" y="227" type="line"/>
      <point x="55" y="227" type="line"/>
      <point x="55" y="182" type="line"/>
      <point x="177" y="182" type="line"/>
      <point x="138" y="0" type="line"/>
    </contour>
    <contour>
      <point x="286" y="435" type="line"/>
      <point x="513" y="435" type="line"/>
      <point x="467" y="227" type="line"/>
      <point x="240" y="227" type="line"/>
    </contour>
  </outline>
</glyph>
<glyph name="dollar" format="1">
  <advance width="540"/>
  <unicode hex="0024"/>
  <note>
	dollar
  </note>
  <outline>
    <contour>
      <point x="298" y="-120" type="line"/>
      <point x="298" y="-14" type="line"/>
      <point x="420" y="-7"/>
      <point x="485" y="62"/>
      <point x="485" y="153" type="curve" smooth="yes"/>
      <point x="485" y="268"/>
      <point x="394" y="308"/>
      <point x="287" y="350" type="curve" smooth="yes"/>
      <point x="196" y="386"/>
      <point x="112" y="413"/>
      <point x="112" y="498" type="curve" smooth="yes"/>
      <point x="112" y="583"/>
      <point x="179" y="616"/>
      <point x="270" y="616" type="curve" smooth="yes"/>
      <point x="328" y="616"/>
      <point x="385" y="604"/>
      <point x="419" y="584" type="curve"/>
      <point x="419" y="529" type="line"/>
      <point x="472" y="529" type="line"/>
      <point x="472" y="607" type="line"/>
      <point x="431" y="635"/>
      <point x="364" y="656"/>
      <point x="298" y="661" type="curve"/>
      <point x="298" y="767" type="line"/>
      <point x="245" y="767" type="line"/>
      <point x="245" y="661" type="line"/>
      <point x="140" y="653"/>
      <point x="61" y="601"/>
      <point x="61" y="498" type="curve" smooth="yes"/>
      <point x="61" y="395"/>
      <point x="143" y="352"/>
      <point x="278" y="303" type="curve" smooth="yes"/>
      <point x="373" y="268"/>
      <point x="434" y="236"/>
      <point x="434" y="153" type="curve" smooth="yes"/>
      <point x="434" y="77"/>
      <point x="382" y="31"/>
      <point x="280" y="31" type="curve" smooth="yes"/>
      <point x="219" y="31"/>
      <point x="147" y="48"/>
      <point x="108" y="74" type="curve"/>
      <point x="108" y="129" type="line"/>
      <point x="55" y="129" type="line"/>
      <point x="55" y="51" type="line"/>
      <point x="102" y="17"/>
      <point x="175" y="-8"/>
      <point x="245" y="-14" type="curve"/>
      <point x="245" y="-120" type="line"/>
    </contour>
  </outline>
</glyph>
<glyph name="ampersand" format="1">
  <advance width="682"/>
  <unicode hex="0026"/>
  <note>
	ampersand
  </note>
  <outline>
    <contour>
      <point x="355" y="-15"/>
      <point x="418" y="3"/>
      <point x="481" y="60" type="curve"/>
      <point x="537" y="0" type="line"/>
      <point x="601" y="0" type="line"/>
      <point x="514" y="93" type="line"/>
      <point x="545" y="143"/>
      <point x="556" y="213"/>
      <point x="556" y="279" type="curve" smooth="yes"/>
      <point x="556" y="306"/>
      <point x="565" y="314"/>
      <point x="590" y="314" type="curve" smooth="yes"/>
      <point x="627" y="314" type="line"/>
      <point x="627" y="358" type="line"/>
      <point x="509" y="358" type="line"/>
      <point x="509" y="278" type="line" smooth="yes"/>
      <point x="509" y="222"/>
      <point x="501" y="170"/>
      <point x="480" y="129" type="curve"/>
      <point x="240" y="383" type="line" smooth="yes"/>
      <point x="180" y="447"/>
      <point x="153" y="471"/>
      <point x="153" y="522" type="curve" smooth="yes"/>
      <point x="153" y="590"/>
      <point x="185" y="616"/>
      <point x="251" y="616" type="curve" smooth="yes"/>
      <point x="314" y="616"/>
      <point x="345" y="581"/>
      <point x="345" y="518" type="curve" smooth="yes"/>
      <point x="345" y="478" type="line"/>
      <point x="398" y="478" type="line"/>
      <point x="398" y="518" type="line" smooth="yes"/>
      <point x="398" y="599"/>
      <point x="352" y="662"/>
      <point x="250" y="662" type="curve" smooth="yes"/>
      <point x="148" y="662"/>
      <point x="102" y="607"/>
      <point x="102" y="522" type="curve" smooth="yes"/>
      <point x="102" y="462"/>
      <point x="141" y="417"/>
      <point x="199" y="359" type="curve"/>
      <point x="103" y="304"/>
      <point x="55" y="255"/>
      <point x="55" y="153" type="curve" smooth="yes"/>
      <point x="55" y="46"/>
      <point x="141" y="-15"/>
      <point x="267" y="-15" type="curve" smooth="yes"/>
    </contour>
    <contour>
      <point x="190" y="31"/>
      <point x="106" y="66"/>
      <point x="106" y="153" type="curve" smooth="yes"/>
      <point x="106" y="236"/>
      <point x="144" y="283"/>
      <point x="232" y="324" type="curve"/>
      <point x="449" y="94" type="line"/>
      <point x="399" y="47"/>
      <point x="345" y="31"/>
      <point x="267" y="31" type="curve" smooth="yes"/>
    </contour>
  </outline>
</glyph>
<glyph name="quotesingle" format="1">
  <advance width="175"/>
  <unicode hex="0027"/>
  <note>
	quotesingle
  </note>
  <outline>
    <contour>
      <point x="109" y="543" type="line"/>
      <point x="120" y="721" type="line"/>
      <point x="55" y="721" type="line"/>
      <point x="66" y="543" type="line"/>
    </contour>
  </outline>
</glyph>
<glyph name="parenleft" format="1">
  <advance width="319"/>
  <unicode hex="0028"/>
  <note>
	parenleft
  </note>
  <outline>
    <contour>
      <point x="264" y="-75" type="line"/>
      <point x="157" y="7"/>
      <point x="106" y="149"/>
      <point x="106" y="316" type="curve" smooth="yes"/>
      <point x="106" y="483"/>
      <point x="157" y="625"/>
      <point x="264" y="707" type="curve"/>
      <point x="194" y="707" type="line"/>
      <point x="97" y="613"/>
      <point x="55" y="476"/>
      <point x="55" y="316" type="curve" smooth="yes"/>
      <point x="55" y="156"/>
      <point x="97" y="19"/>
      <point x="194" y="-75" type="curve"/>
    </contour>
  </outline>
</glyph>
<glyph name="parenright" format="1">
  <advance width="319"/>
  <unicode hex="0029"/>
  <note>
	parenright
  </note>
  <outline>
    <contour>
      <point x="125" y="-75" type="line"/>
      <point x="222" y="19"/>
      <point x="264" y="156"/>
      <point x="264" y="316" type="curve" smooth="yes"/>
      <point x="264" y="476"/>
      <point x="222" y="613"/>
      <point x="125" y="707" type="curve"/>
      <point x="55" y="707" type="line"/>
      <point x="162" y="625"/>
      <point x="213" y="483"/>
      <point x="213" y="316" type="curve" smooth="yes"/>
      <point x="213" y="149"/>
      <point x="162" y="7"/>
      <point x="55" y="-75" type="curve"/>
    </contour>
  </outline>
</glyph>
<glyph name="asterisk" format="1">
  <advance width="396"/>
  <unicode hex="002A"/>
  <note>
	asterisk
  </note>
  <outline>
    <contour>
      <point x="198" y="533" type="line"/>
      <point x="262" y="431" type="line"/>
      <point x="309" y="461" type="line"/>
      <point x="227" y="564" type="line"/>
      <point x="341" y="595" type="line"/>
      <point x="325" y="648" type="line"/>
      <point x="219" y="605" type="line"/>
      <point x="226" y="721" type="line"/>
      <point x="171" y="721" type="line"/>
      <point x="177" y="605" type="line"/>
      <point x="71" y="648" type="line"/>
      <point x="55" y="595" type="line"/>
      <point x="169" y="564" type="line"/>
      <point x="87" y="461" type="line"/>
      <point x="133" y="431" type="line"/>
    </contour>
  </outline>
</glyph>
<glyph name="plus" format="1">
  <advance width="411"/>
  <unicode hex="002B"/>
  <note>
	plus
  </note>
  <outline>
    <contour>
      <point x="231" y="172" type="line"/>
      <point x="231" y="282" type="line"/>
      <point x="356" y="282" type="line"/>
      <point x="356" y="327" type="line"/>
      <point x="231" y="327" type="line"/>
      <point x="231" y="437" type="line"/>
      <point x="178" y="437" type="line"/>
      <point x="178" y="327" type="line"/>
      <point x="55" y="327" type="line"/>
      <point x="55" y="282" type="line"/>
      <point x="178" y="282" type="line"/>
      <point x="178" y="172" type="line"/>
    </contour>
  </outline>
</glyph>
<glyph name="comma" format="1">
  <advance width="205"/>
  <unicode hex="002C"/>
  <note>
	comma
  </note>
  <outline>
    <contour>
      <point x="94" y="-116" type="line"/>
      <point x="150" y="69" type="line"/>
      <point x="83" y="69" type="line"/>
      <point x="55" y="-116" type="line"/>
    </contour>
  </outline>
</glyph>
<glyph name="hyphen" format="1">
  <advance width="381"/>
  <unicode hex="002D"/>
  <note>
	hyphen
  </note>
  <outline>
    <contour>
      <point x="326" y="282" type="line"/>
      <point x="326" y="327" type="line"/>
      <point x="55" y="327" type="line"/>
      <point x="55" y="282" type="line"/>
    </contour>
  </outline>
</glyph>
<glyph name="period" format="1">
  <advance width="179"/>
  <unicode hex="002E"/>
  <note>
	period
  </note>
  <outline>
    <contour>
      <point x="124" y="0" type="line"/>
      <point x="124" y="69" type="line"/>
      <point x="55" y="69" type="line"/>
      <point x="55" y="0" type="line"/>
    </contour>
  </outline>
</glyph>
<glyph name="slash" format="1">
  <advance width="414"/>
  <unicode hex="002F"/>
  <note>
	slash
  </note>
  <outline>
    <contour>
      <point x="108" y="0" type="line"/>
      <point x="359" y="676" type="line"/>
      <point x="306" y="676" type="line"/>
      <point x="55" y="0" type="line"/>
    </contour>
  </outline>
</glyph>
<glyph name="zero" format="1">
  <advance width="612"/>
  <unicode hex="0030"/>
  <note>
	zero
  </note>
  <outline>
    <contour>
      <point x="484" y="-15"/>
      <point x="567" y="100"/>
      <point x="567" y="324" type="curve" smooth="yes"/>
      <point x="567" y="548"/>
      <point x="484" y="662"/>
      <point x="306" y="662" type="curve" smooth="yes"/>
      <point x="128" y="662"/>
      <point x="45" y="548"/>
      <point x="45" y="324" type="curve" smooth="yes"/>
      <point x="45" y="100"/>
      <point x="128" y="-15"/>
      <point x="306" y="-15" type="curve" smooth="yes"/>
    </contour>
    <contour>
      <point x="177" y="31"/>
      <point x="96" y="109"/>
      <point x="96" y="324" type="curve" smooth="yes"/>
      <point x="96" y="539"/>
      <point x="177" y="616"/>
      <point x="306" y="616" type="curve" smooth="yes"/>
      <point x="435" y="616"/>
      <point x="516" y="539"/>
      <point x="516" y="324" type="curve" smooth="yes"/>
      <point x="516" y="109"/>
      <point x="435" y="31"/>
      <point x="306" y="31" type="curve" smooth="yes"/>
    </contour>
  </outline>
</glyph>
<glyph name="one" format="1">
  <advance width="383"/>
  <unicode hex="0031"/>
  <note>
	one
  </note>
  <outline>
    <contour>
      <point x="338" y="0" type="line"/>
      <point x="338" y="45" type="line"/>
      <point x="275" y="45" type="line" smooth="yes"/>
      <point x="244" y="45"/>
      <point x="237" y="56"/>
      <point x="237" y="81" type="curve" smooth="yes"/>
      <point x="237" y="647" type="line"/>
      <point x="182" y="647" type="line"/>
      <point x="45" y="562" type="line"/>
      <point x="67" y="524" type="line"/>
      <point x="184" y="595" type="line"/>
      <point x="184" y="81" type="line" smooth="yes"/>
      <point x="184" y="56"/>
      <point x="177" y="45"/>
      <point x="146" y="45" type="curve" smooth="yes"/>
      <point x="83" y="45" type="line"/>
      <point x="83" y="0" type="line"/>
    </contour>
  </outline>
</glyph>
<glyph name="two" format="1">
  <advance width="522"/>
  <unicode hex="0032"/>
  <note>
	two
  </note>
  <outline>
    <contour>
      <point x="461" y="0" type="line"/>
      <point x="461" y="45" type="line"/>
      <point x="108" y="45" type="line"/>
      <point x="108" y="146"/>
      <point x="158" y="210"/>
      <point x="272" y="264" type="curve" smooth="yes"/>
      <point x="413" y="331"/>
      <point x="467" y="391"/>
      <point x="467" y="498" type="curve" smooth="yes"/>
      <point x="467" y="610"/>
      <point x="375" y="662"/>
      <point x="257" y="662" type="curve" smooth="yes"/>
      <point x="182" y="662"/>
      <point x="102" y="639"/>
      <point x="56" y="607" type="curve"/>
      <point x="56" y="529" type="line"/>
      <point x="109" y="529" type="line"/>
      <point x="109" y="584" type="line"/>
      <point x="143" y="604"/>
      <point x="200" y="616"/>
      <point x="258" y="616" type="curve" smooth="yes"/>
      <point x="351" y="616"/>
      <point x="416" y="583"/>
      <point x="416" y="498" type="curve" smooth="yes"/>
      <point x="416" y="407"/>
      <point x="375" y="364"/>
      <point x="263" y="310" type="curve" smooth="yes"/>
      <point x="135" y="248"/>
      <point x="55" y="173"/>
      <point x="55" y="45" type="curve" smooth="yes"/>
      <point x="55" y="0" type="line"/>
    </contour>
  </outline>
</glyph>
<glyph name="three" format="1">
  <advance width="541"/>
  <unicode hex="0033"/>
  <note>
	three
  </note>
  <outline>
    <contour>
      <point x="414" y="-15"/>
      <point x="486" y="46"/>
      <point x="486" y="187" type="curve" smooth="yes"/>
      <point x="486" y="273"/>
      <point x="443" y="317"/>
      <point x="387" y="339" type="curve"/>
      <point x="455" y="372"/>
      <point x="479" y="430"/>
      <point x="479" y="500" type="curve" smooth="yes"/>
      <point x="479" y="612"/>
      <point x="387" y="662"/>
      <point x="269" y="662" type="curve" smooth="yes"/>
      <point x="194" y="662"/>
      <point x="114" y="639"/>
      <point x="68" y="607" type="curve"/>
      <point x="68" y="529" type="line"/>
      <point x="121" y="529" type="line"/>
      <point x="121" y="584" type="line"/>
      <point x="155" y="604"/>
      <point x="212" y="616"/>
      <point x="270" y="616" type="curve" smooth="yes"/>
      <point x="363" y="616"/>
      <point x="428" y="585"/>
      <point x="428" y="500" type="curve" smooth="yes"/>
      <point x="428" y="406"/>
      <point x="379" y="362"/>
      <point x="283" y="362" type="curve" smooth="yes"/>
      <point x="206" y="362" type="line"/>
      <point x="206" y="315" type="line"/>
      <point x="278" y="315" type="line" smooth="yes"/>
      <point x="385" y="315"/>
      <point x="435" y="273"/>
      <point x="435" y="187" type="curve" smooth="yes"/>
      <point x="435" y="73"/>
      <point x="384" y="31"/>
      <point x="267" y="31" type="curve" smooth="yes"/>
      <point x="204" y="31"/>
      <point x="147" y="48"/>
      <point x="108" y="74" type="curve"/>
      <point x="108" y="129" type="line"/>
      <point x="55" y="129" type="line"/>
      <point x="55" y="51" type="line"/>
      <point x="109" y="12"/>
      <point x="178" y="-15"/>
      <point x="263" y="-15" type="curve" smooth="yes"/>
    </contour>
  </outline>
</glyph>
<glyph name="four" format="1">
  <advance width="565"/>
  <unicode hex="0034"/>
  <note>
	four
  </note>
  <outline>
    <contour>
      <point x="510" y="0" type="line"/>
      <point x="510" y="45" type="line"/>
      <point x="447" y="45" type="line" smooth="yes"/>
      <point x="416" y="45"/>
      <point x="409" y="56"/>
      <point x="409" y="81" type="curve" smooth="yes"/>
      <point x="409" y="172" type="line"/>
      <point x="530" y="172" type="line"/>
      <point x="530" y="217" type="line"/>
      <point x="409" y="217" type="line"/>
      <point x="409" y="647" type="line"/>
      <point x="348" y="647" type="line"/>
      <point x="35" y="217" type="line"/>
      <point x="35" y="172" type="line"/>
      <point x="356" y="172" type="line"/>
      <point x="356" y="81" type="line" smooth="yes"/>
      <point x="356" y="56"/>
      <point x="349" y="45"/>
      <point x="318" y="45" type="curve" smooth="yes"/>
      <point x="255" y="45" type="line"/>
      <point x="255" y="0" type="line"/>
    </contour>
    <contour>
      <point x="356" y="583" type="line"/>
      <point x="356" y="217" type="line"/>
      <point x="89" y="217" type="line"/>
    </contour>
  </outline>
</glyph>
<glyph name="five" format="1">
  <advance width="544"/>
  <unicode hex="0035"/>
  <note>
	five
  </note>
  <outline>
    <contour>
      <point x="421" y="-15"/>
      <point x="489" y="71"/>
      <point x="489" y="212" type="curve" smooth="yes"/>
      <point x="489" y="367"/>
      <point x="397" y="420"/>
      <point x="267" y="420" type="curve" smooth="yes"/>
      <point x="129" y="420" type="line"/>
      <point x="145" y="602" type="line"/>
      <point x="467" y="602" type="line"/>
      <point x="467" y="647" type="line"/>
      <point x="99" y="647" type="line"/>
      <point x="79" y="414" type="line"/>
      <point x="79" y="373" type="line"/>
      <point x="258" y="373" type="line" smooth="yes"/>
      <point x="378" y="373"/>
      <point x="438" y="341"/>
      <point x="438" y="212" type="curve" smooth="yes"/>
      <point x="438" y="98"/>
      <point x="391" y="31"/>
      <point x="274" y="31" type="curve" smooth="yes"/>
      <point x="198" y="31"/>
      <point x="147" y="48"/>
      <point x="108" y="74" type="curve"/>
      <point x="108" y="129" type="line"/>
      <point x="55" y="129" type="line"/>
      <point x="55" y="51" type="line"/>
      <point x="109" y="12"/>
      <point x="174" y="-15"/>
      <point x="270" y="-15" type="curve" smooth="yes"/>
    </contour>
  </outline>
</glyph>
<glyph name="six" format="1">
  <advance width="553"/>
  <unicode hex="0036"/>
  <note>
	six
  </note>
  <outline>
    <contour>
      <point x="439" y="-15"/>
      <point x="518" y="66"/>
      <point x="518" y="231" type="curve" smooth="yes"/>
      <point x="518" y="373"/>
      <point x="435" y="453"/>
      <point x="297" y="453" type="curve" smooth="yes"/>
      <point x="209" y="453"/>
      <point x="153" y="425"/>
      <point x="109" y="363" type="curve"/>
      <point x="127" y="527"/>
      <point x="192" y="616"/>
      <point x="310" y="616" type="curve" smooth="yes"/>
      <point x="367" y="616"/>
      <point x="400" y="607"/>
      <point x="444" y="580" type="curve"/>
      <point x="468" y="618" type="line"/>
      <point x="424" y="648"/>
      <point x="379" y="662"/>
      <point x="311" y="662" type="curve" smooth="yes"/>
      <point x="188" y="662"/>
      <point x="55" y="586"/>
      <point x="55" y="276" type="curve" smooth="yes"/>
      <point x="55" y="63"/>
      <point x="148" y="-15"/>
      <point x="283" y="-15" type="curve" smooth="yes"/>
    </contour>
    <contour>
      <point x="177" y="31"/>
      <point x="106" y="91"/>
      <point x="106" y="240" type="curve" smooth="yes"/>
      <point x="106" y="352"/>
      <point x="204" y="407"/>
      <point x="289" y="407" type="curve" smooth="yes"/>
      <point x="413" y="407"/>
      <point x="467" y="351"/>
      <point x="467" y="231" type="curve" smooth="yes"/>
      <point x="467" y="90"/>
      <point x="412" y="31"/>
      <point x="283" y="31" type="curve" smooth="yes"/>
    </contour>
  </outline>
</glyph>
<glyph name="seven" format="1">
  <advance width="498"/>
  <unicode hex="0037"/>
  <note>
	seven
  </note>
  <outline>
    <contour>
      <point x="219" y="0" type="line"/>
      <point x="463" y="610" type="line"/>
      <point x="463" y="647" type="line"/>
      <point x="35" y="647" type="line"/>
      <point x="35" y="529" type="line"/>
      <point x="88" y="529" type="line"/>
      <point x="88" y="602" type="line"/>
      <point x="407" y="602" type="line"/>
      <point x="166" y="0" type="line"/>
    </contour>
  </outline>
</glyph>
<glyph name="eight" format="1">
  <advance width="570"/>
  <unicode hex="0038"/>
  <note>
	eight
  </note>
  <outline>
    <contour>
      <point x="436" y="-15"/>
      <point x="515" y="49"/>
      <point x="515" y="180" type="curve" smooth="yes"/>
      <point x="515" y="266"/>
      <point x="467" y="315"/>
      <point x="411" y="337" type="curve"/>
      <point x="479" y="370"/>
      <point x="504" y="423"/>
      <point x="504" y="493" type="curve" smooth="yes"/>
      <point x="504" y="605"/>
      <point x="413" y="662"/>
      <point x="285" y="662" type="curve" smooth="yes"/>
      <point x="157" y="662"/>
      <point x="66" y="605"/>
      <point x="66" y="493" type="curve" smooth="yes"/>
      <point x="66" y="423"/>
      <point x="91" y="370"/>
      <point x="159" y="337" type="curve"/>
      <point x="103" y="315"/>
      <point x="55" y="266"/>
      <point x="55" y="180" type="curve" smooth="yes"/>
      <point x="55" y="49"/>
      <point x="134" y="-15"/>
      <point x="285" y="-15" type="curve" smooth="yes"/>
    </contour>
    <contour>
      <point x="163" y="31"/>
      <point x="106" y="76"/>
      <point x="106" y="180" type="curve" smooth="yes"/>
      <point x="106" y="266"/>
      <point x="162" y="317"/>
      <point x="276" y="317" type="curve" smooth="yes"/>
      <point x="294" y="317" type="line" smooth="yes"/>
      <point x="408" y="317"/>
      <point x="464" y="266"/>
      <point x="464" y="180" type="curve" smooth="yes"/>
      <point x="464" y="76"/>
      <point x="407" y="31"/>
      <point x="285" y="31" type="curve" smooth="yes"/>
    </contour>
    <contour>
      <point x="168" y="360"/>
      <point x="117" y="399"/>
      <point x="117" y="493" type="curve" smooth="yes"/>
      <point x="117" y="578"/>
      <point x="181" y="616"/>
      <point x="284" y="616" type="curve" smooth="yes"/>
      <point x="389" y="616"/>
      <point x="453" y="578"/>
      <point x="453" y="493" type="curve" smooth="yes"/>
      <point x="453" y="399"/>
      <point x="402" y="360"/>
      <point x="295" y="360" type="curve" smooth="yes"/>
      <point x="275" y="360" type="line" smooth="yes"/>
    </contour>
  </outline>
</glyph>
<glyph name="nine" format="1">
  <advance width="573"/>
  <unicode hex="0039"/>
  <note>
	nine
  </note>
  <outline>
    <contour>
      <point x="393" y="-15"/>
      <point x="518" y="61"/>
      <point x="518" y="371" type="curve" smooth="yes"/>
      <point x="518" y="584"/>
      <point x="429" y="662"/>
      <point x="294" y="662" type="curve" smooth="yes"/>
      <point x="138" y="662"/>
      <point x="55" y="581"/>
      <point x="55" y="416" type="curve" smooth="yes"/>
      <point x="55" y="274"/>
      <point x="140" y="194"/>
      <point x="278" y="194" type="curve" smooth="yes"/>
      <point x="366" y="194"/>
      <point x="420" y="222"/>
      <point x="464" y="284" type="curve"/>
      <point x="446" y="120"/>
      <point x="389" y="31"/>
      <point x="271" y="31" type="curve" smooth="yes"/>
      <point x="214" y="31"/>
      <point x="181" y="40"/>
      <point x="137" y="67" type="curve"/>
      <point x="113" y="29" type="line"/>
      <point x="157" y="-1"/>
      <point x="202" y="-15"/>
      <point x="270" y="-15" type="curve" smooth="yes"/>
    </contour>
    <contour>
      <point x="161" y="240"/>
      <point x="106" y="296"/>
      <point x="106" y="416" type="curve" smooth="yes"/>
      <point x="106" y="557"/>
      <point x="165" y="616"/>
      <point x="294" y="616" type="curve" smooth="yes"/>
      <point x="400" y="616"/>
      <point x="467" y="556"/>
      <point x="467" y="407" type="curve" smooth="yes"/>
      <point x="467" y="295"/>
      <point x="370" y="240"/>
      <point x="285" y="240" type="curve" smooth="yes"/>
    </contour>
  </outline>
</glyph>
<glyph name="colon" format="1">
  <advance width="183"/>
  <unicode hex="003A"/>
  <note>
	colon
  </note>
  <outline>
    <contour>
      <point x="128" y="417" type="line"/>
      <point x="128" y="490" type="line"/>
      <point x="55" y="490" type="line"/>
      <point x="55" y="417" type="line"/>
    </contour>
    <contour>
      <point x="128" y="0" type="line"/>
      <point x="128" y="73" type="line"/>
      <point x="55" y="73" type="line"/>
      <point x="55" y="0" type="line"/>
    </contour>
  </outline>
</glyph>
<glyph name="semicolon" format="1">
  <advance width="208"/>
  <unicode hex="003B"/>
  <note>
	semicolon
  </note>
  <outline>
    <contour>
      <point x="94" y="-116" type="line"/>
      <point x="150" y="69" type="line"/>
      <point x="83" y="69" type="line"/>
      <point x="55" y="-116" type="line"/>
    </contour>
    <contour>
      <point x="153" y="417" type="line"/>
      <point x="153" y="490" type="line"/>
      <point x="80" y="490" type="line"/>
      <point x="80" y="417" type="line"/>
    </contour>
  </outline>
</glyph>
<glyph name="less" format="1">
  <advance width="628"/>
  <unicode hex="003C"/>
  <note>
	less
  </note>
  <outline>
    <contour>
      <point x="573" y="132" type="line"/>
      <point x="116" y="323" type="line"/>
      <point x="573" y="514" type="line"/>
      <point x="573" y="571" type="line"/>
      <point x="55" y="348" type="line"/>
      <point x="55" y="298" type="line"/>
      <point x="573" y="75" type="line"/>
    </contour>
  </outline>
</glyph>
<glyph name="equal" format="1">
  <advance width="391"/>
  <unicode hex="003D"/>
  <note>
	equal
  </note>
  <outline>
    <contour>
      <point x="336" y="350" type="line"/>
      <point x="336" y="395" type="line"/>
      <point x="55" y="395" type="line"/>
      <point x="55" y="350" type="line"/>
    </contour>
    <contour>
      <point x="336" y="212" type="line"/>
      <point x="336" y="257" type="line"/>
      <point x="55" y="257" type="line"/>
      <point x="55" y="212" type="line"/>
    </contour>
  </outline>
</glyph>
<glyph name="greater" format="1">
  <advance width="628"/>
  <unicode hex="003E"/>
  <note>
	greater
  </note>
  <outline>
    <contour>
      <point x="573" y="298" type="line"/>
      <point x="573" y="348" type="line"/>
      <point x="55" y="571" type="line"/>
      <point x="55" y="514" type="line"/>
      <point x="512" y="323" type="line"/>
      <point x="55" y="132" type="line"/>
      <point x="55" y="75" type="line"/>
    </contour>
  </outline>
</glyph>
<glyph name="question" format="1">
  <advance width="521"/>
  <unicode hex="003F"/>
  <note>
	question
  </note>
  <outline>
    <contour>
      <point x="243" y="148" type="line"/>
      <point x="243" y="180" type="line" smooth="yes"/>
      <point x="243" y="242"/>
      <point x="252" y="285"/>
      <point x="319" y="318" type="curve" smooth="yes"/>
      <point x="429" y="372"/>
      <point x="466" y="409"/>
      <point x="466" y="503" type="curve" smooth="yes"/>
      <point x="466" y="615"/>
      <point x="374" y="662"/>
      <point x="256" y="662" type="curve" smooth="yes"/>
      <point x="181" y="662"/>
      <point x="101" y="636"/>
      <point x="55" y="602" type="curve"/>
      <point x="55" y="524" type="line"/>
      <point x="108" y="524" type="line"/>
      <point x="108" y="579" type="line"/>
      <point x="142" y="601"/>
      <point x="199" y="616"/>
      <point x="257" y="616" type="curve" smooth="yes"/>
      <point x="348" y="616"/>
      <point x="415" y="588"/>
      <point x="415" y="503" type="curve" smooth="yes"/>
      <point x="415" y="426"/>
      <point x="388" y="401"/>
      <point x="310" y="365" type="curve" smooth="yes"/>
      <point x="220" y="324"/>
      <point x="190" y="267"/>
      <point x="190" y="180" type="curve" smooth="yes"/>
      <point x="190" y="148" type="line"/>
    </contour>
    <contour>
      <point x="251" y="0" type="line"/>
      <point x="251" y="69" type="line"/>
      <point x="182" y="69" type="line"/>
      <point x="182" y="0" type="line"/>
    </contour>
  </outline>
</glyph>
<glyph name="at" format="1">
  <advance width="856"/>
  <unicode hex="0040"/>
  <note>
	at
  </note>
  <outline>
    <contour>
      <point x="506" y="-110"/>
      <point x="583" y="-96"/>
      <point x="648" y="-69" type="curve"/>
      <point x="648" y="-21" type="line"/>
      <point x="577" y="-53"/>
      <point x="497" y="-64"/>
      <point x="428" y="-64" type="curve" smooth="yes"/>
      <point x="227" y="-64"/>
      <point x="106" y="56"/>
      <point x="106" y="278" type="curve" smooth="yes"/>
      <point x="106" y="476"/>
      <point x="215" y="606"/>
      <point x="428" y="606" type="curve" smooth="yes"/>
      <point x="674" y="606"/>
      <point x="750" y="490"/>
      <point x="750" y="278" type="curve" smooth="yes"/>
      <point x="750" y="154"/>
      <point x="714" y="105"/>
      <point x="652" y="105" type="curve" smooth="yes"/>
      <point x="609" y="105"/>
      <point x="589" y="134"/>
      <point x="589" y="181" type="curve" smooth="yes"/>
      <point x="589" y="326" type="line" smooth="yes"/>
      <point x="589" y="414"/>
      <point x="546" y="464"/>
      <point x="444" y="464" type="curve" smooth="yes"/>
      <point x="392" y="464"/>
      <point x="336" y="452"/>
      <point x="295" y="428" type="curve"/>
      <point x="295" y="370" type="line"/>
      <point x="348" y="370" type="line"/>
      <point x="348" y="399" type="line"/>
      <point x="375" y="412"/>
      <point x="402" y="418"/>
      <point x="446" y="418" type="curve" smooth="yes"/>
      <point x="516" y="418"/>
      <point x="536" y="391"/>
      <point x="536" y="326" type="curve" smooth="yes"/>
      <point x="536" y="286" type="line"/>
      <point x="401" y="277" type="line" smooth="yes"/>
      <point x="315" y="271"/>
      <point x="265" y="238"/>
      <point x="265" y="163" type="curve" smooth="yes"/>
      <point x="265" y="97"/>
      <point x="314" y="59"/>
      <point x="395" y="59" type="curve" smooth="yes"/>
      <point x="475" y="59"/>
      <point x="524" y="92"/>
      <point x="553" y="132" type="curve"/>
      <point x="562" y="95"/>
      <point x="597" y="59"/>
      <point x="652" y="59" type="curve" smooth="yes"/>
      <point x="764" y="59"/>
      <point x="801" y="162"/>
      <point x="801" y="278" type="curve" smooth="yes"/>
      <point x="801" y="503"/>
      <point x="709" y="652"/>
      <point x="428" y="652" type="curve" smooth="yes"/>
      <point x="190" y="652"/>
      <point x="55" y="508"/>
      <point x="55" y="278" type="curve" smooth="yes"/>
      <point x="55" y="48"/>
      <point x="183" y="-110"/>
      <point x="428" y="-110" type="curve" smooth="yes"/>
    </contour>
    <contour>
      <point x="342" y="105"/>
      <point x="316" y="121"/>
      <point x="316" y="163" type="curve" smooth="yes"/>
      <point x="316" y="214"/>
      <point x="340" y="230"/>
      <point x="400" y="234" type="curve" smooth="yes"/>
      <point x="536" y="243" type="line"/>
      <point x="536" y="209" type="line" smooth="yes"/>
      <point x="536" y="136"/>
      <point x="474" y="105"/>
      <point x="399" y="105" type="curve" smooth="yes"/>
    </contour>
  </outline>
</glyph>
<glyph name="B" format="1">
  <advance width="575"/>
  <unicode hex="0042"/>
  <note>
	B
  </note>
  <outline>
    <contour>
      <point x="368" y="0" type="line" smooth="yes"/>
      <point x="479" y="0"/>
      <point x="530" y="84"/>
      <point x="530" y="175" type="curve" smooth="yes"/>
      <point x="530" y="247"/>
      <point x="500" y="310"/>
      <point x="429" y="329" type="curve"/>
      <point x="491" y="354"/>
      <point x="518" y="412"/>
      <point x="518" y="479" type="curve" smooth="yes"/>
      <point x="518" y="580"/>
      <point x="464" y="647"/>
      <point x="345" y="647" type="curve" smooth="yes"/>
      <point x="45" y="647" type="line"/>
      <point x="45" y="602" type="line"/>
      <point x="80" y="602" type="line" smooth="yes"/>
      <point x="105" y="602"/>
      <point x="114" y="593"/>
      <point x="114" y="566" type="curve" smooth="yes"/>
      <point x="114" y="81" type="line" smooth="yes"/>
      <point x="114" y="54"/>
      <point x="105" y="45"/>
      <point x="80" y="45" type="curve" smooth="yes"/>
      <point x="45" y="45" type="line"/>
      <point x="45" y="0" type="line"/>
    </contour>
    <contour>
      <point x="167" y="304" type="line"/>
      <point x="340" y="304" type="line" smooth="yes"/>
      <point x="444" y="304"/>
      <point x="479" y="262"/>
      <point x="479" y="176" type="curve" smooth="yes"/>
      <point x="479" y="88"/>
      <point x="437" y="45"/>
      <point x="364" y="45" type="curve" smooth="yes"/>
      <point x="167" y="45" type="line"/>
    </contour>
    <contour>
      <point x="167" y="602" type="line"/>
      <point x="341" y="602" type="line" smooth="yes"/>
      <point x="435" y="602"/>
      <point x="467" y="565"/>
      <point x="467" y="479" type="curve" smooth="yes"/>
      <point x="467" y="399"/>
      <point x="423" y="349"/>
      <point x="331" y="349" type="curve" smooth="yes"/>
      <point x="167" y="349" type="line"/>
    </contour>
  </outline>
</glyph>
<glyph name="E" format="1">
  <advance width="543"/>
  <unicode hex="0045"/>
  <note>
	E
  </note>
  <outline>
    <contour>
      <point x="498" y="0" type="line"/>
      <point x="498" y="104" type="line"/>
      <point x="450" y="104" type="line"/>
      <point x="450" y="79" type="line" smooth="yes"/>
      <point x="450" y="54"/>
      <point x="441" y="45"/>
      <point x="414" y="45" type="curve" smooth="yes"/>
      <point x="167" y="45" type="line"/>
      <point x="167" y="302" type="line"/>
      <point x="378" y="302" type="line"/>
      <point x="378" y="347" type="line"/>
      <point x="167" y="347" type="line"/>
      <point x="167" y="602" type="line"/>
      <point x="414" y="602" type="line" smooth="yes"/>
      <point x="441" y="602"/>
      <point x="450" y="593"/>
      <point x="450" y="568" type="curve" smooth="yes"/>
      <point x="450" y="544" type="line"/>
      <point x="498" y="544" type="line"/>
      <point x="498" y="647" type="line"/>
      <point x="45" y="647" type="line"/>
      <point x="45" y="602" type="line"/>
      <point x="80" y="602" type="line" smooth="yes"/>
      <point x="105" y="602"/>
      <point x="114" y="593"/>
      <point x="114" y="566" type="curve" smooth="yes"/>
      <point x="114" y="81" type="line" smooth="yes"/>
      <point x="114" y="54"/>
      <point x="105" y="45"/>
      <point x="80" y="45" type="curve" smooth="yes"/>
      <point x="45" y="45" type="line"/>
      <point x="45" y="0" type="line"/>
    </contour>
  </outline>
</glyph>
<glyph name="J" format="1">
  <advance width="483"/>
  <unicode hex="004A"/>
  <note>
	J
  </note>
  <outline>
    <contour>
      <point x="308" y="-15"/>
      <point x="369" y="57"/>
      <point x="369" y="174" type="curve" smooth="yes"/>
      <point x="369" y="566" type="line" smooth="yes"/>
      <point x="369" y="593"/>
      <point x="378" y="602"/>
      <point x="403" y="602" type="curve" smooth="yes"/>
      <point x="438" y="602" type="line"/>
      <point x="438" y="647" type="line"/>
      <point x="247" y="647" type="line"/>
      <point x="247" y="602" type="line"/>
      <point x="282" y="602" type="line" smooth="yes"/>
      <point x="307" y="602"/>
      <point x="316" y="593"/>
      <point x="316" y="566" type="curve" smooth="yes"/>
      <point x="316" y="170" type="line" smooth="yes"/>
      <point x="316" y="80"/>
      <point x="278" y="31"/>
      <point x="187" y="31" type="curve" smooth="yes"/>
      <point x="137" y="31"/>
      <point x="95" y="44"/>
      <point x="67" y="74" type="curve"/>
      <point x="67" y="117" type="line"/>
      <point x="15" y="117" type="line"/>
      <point x="15" y="52" type="line"/>
      <point x="56" y="11"/>
      <point x="109" y="-15"/>
      <point x="191" y="-15" type="curve" smooth="yes"/>
    </contour>
  </outline>
</glyph>
<glyph name="L" format="1">
  <advance width="503"/>
  <unicode hex="004C"/>
  <note>
	L
  </note>
  <outline>
    <contour>
      <point x="488" y="0" type="line"/>
      <point x="488" y="102" type="line"/>
      <point x="440" y="102" type="line"/>
      <point x="440" y="77" type="line" smooth="yes"/>
      <point x="440" y="52"/>
      <point x="431" y="43"/>
      <point x="404" y="43" type="curve" smooth="yes"/>
      <point x="157" y="43" type="line"/>
      <point x="157" y="568" type="line" smooth="yes"/>
      <point x="157" y="595"/>
      <point x="166" y="604"/>
      <point x="191" y="604" type="curve" smooth="yes"/>
      <point x="216" y="604" type="line"/>
      <point x="216" y="647" type="line"/>
      <point x="45" y="647" type="line"/>
      <point x="45" y="604" type="line"/>
      <point x="70" y="604" type="line" smooth="yes"/>
      <point x="95" y="604"/>
      <point x="104" y="595"/>
      <point x="104" y="568" type="curve" smooth="yes"/>
      <point x="104" y="79" type="line" smooth="yes"/>
      <point x="104" y="54"/>
      <point x="97" y="43"/>
      <point x="66" y="43" type="curve" smooth="yes"/>
      <point x="45" y="43" type="line"/>
      <point x="45" y="0" type="line"/>
    </contour>
  </outline>
</glyph>
<glyph name="M" format="1">
  <advance width="776"/>
  <unicode hex="004D"/>
  <note>
	M
  </note>
  <outline>
    <contour>
      <point x="236" y="0" type="line"/>
      <point x="236" y="45" type="line"/>
      <point x="201" y="45" type="line" smooth="yes"/>
      <point x="176" y="45"/>
      <point x="167" y="54"/>
      <point x="167" y="81" type="curve" smooth="yes"/>
      <point x="167" y="564" type="line"/>
      <point x="364" y="100" type="line"/>
      <point x="412" y="100" type="line"/>
      <point x="609" y="564" type="line"/>
      <point x="609" y="81" type="line" smooth="yes"/>
      <point x="609" y="54"/>
      <point x="600" y="45"/>
      <point x="575" y="45" type="curve" smooth="yes"/>
      <point x="540" y="45" type="line"/>
      <point x="540" y="0" type="line"/>
      <point x="731" y="0" type="line"/>
      <point x="731" y="45" type="line"/>
      <point x="696" y="45" type="line" smooth="yes"/>
      <point x="671" y="45"/>
      <point x="662" y="54"/>
      <point x="662" y="81" type="curve" smooth="yes"/>
      <point x="662" y="566" type="line" smooth="yes"/>
      <point x="662" y="593"/>
      <point x="671" y="602"/>
      <point x="696" y="602" type="curve" smooth="yes"/>
      <point x="731" y="602" type="line"/>
      <point x="731" y="647" type="line"/>
      <point x="594" y="647" type="line"/>
      <point x="388" y="161" type="line"/>
      <point x="182" y="647" type="line"/>
      <point x="45" y="647" type="line"/>
      <point x="45" y="602" type="line"/>
      <point x="80" y="602" type="line" smooth="yes"/>
      <point x="105" y="602"/>
      <point x="114" y="593"/>
      <point x="114" y="566" type="curve" smooth="yes"/>
      <point x="114" y="81" type="line" smooth="yes"/>
      <point x="114" y="54"/>
      <point x="105" y="45"/>
      <point x="80" y="45" type="curve" smooth="yes"/>
      <point x="45" y="45" type="line"/>
      <point x="45" y="0" type="line"/>
    </contour>
  </outline>
</glyph>
<glyph name="P" format="1">
  <advance width="615"/>
  <unicode hex="0050"/>
  <note>
	P
  </note>
  <outline>
    <contour>
      <point x="236" y="0" type="line"/>
      <point x="236" y="45" type="line"/>
      <point x="205" y="45" type="line" smooth="yes"/>
      <point x="174" y="45"/>
      <point x="167" y="56"/>
      <point x="167" y="81" type="curve" smooth="yes"/>
      <point x="167" y="255" type="line"/>
      <point x="376" y="255" type="line" smooth="yes"/>
      <point x="496" y="255"/>
      <point x="570" y="335"/>
      <point x="570" y="455" type="curve" smooth="yes"/>
      <point x="570" y="576"/>
      <point x="496" y="647"/>
      <point x="377" y="647" type="curve" smooth="yes"/>
      <point x="45" y="647" type="line"/>
      <point x="45" y="602" type="line"/>
      <point x="76" y="602" type="line" smooth="yes"/>
      <point x="107" y="602"/>
      <point x="114" y="591"/>
      <point x="114" y="566" type="curve" smooth="yes"/>
      <point x="114" y="81" type="line" smooth="yes"/>
      <point x="114" y="56"/>
      <point x="107" y="45"/>
      <point x="76" y="45" type="curve" smooth="yes"/>
      <point x="45" y="45" type="line"/>
      <point x="45" y="0" type="line"/>
    </contour>
    <contour>
      <point x="167" y="602" type="line"/>
      <point x="369" y="602" type="line" smooth="yes"/>
      <point x="470" y="602"/>
      <point x="519" y="567"/>
      <point x="519" y="455" type="curve" smooth="yes"/>
      <point x="519" y="349"/>
      <point x="466" y="300"/>
      <point x="369" y="300" type="curve" smooth="yes"/>
      <point x="167" y="300" type="line"/>
    </contour>
  </outline>
</glyph>
<glyph name="Q" format="1">
  <advance width="652"/>
  <unicode hex="0051"/>
  <note>
	Q
  </note>
  <outline>
    <contour>
      <point x="503" y="-145"/>
      <point x="544" y="-126"/>
      <point x="571" y="-87" type="curve"/>
      <point x="571" y="-32" type="line"/>
      <point x="518" y="-32" type="line"/>
      <point x="518" y="-73" type="line"/>
      <point x="506" y="-91"/>
      <point x="482" y="-101"/>
      <point x="442" y="-101" type="curve" smooth="yes"/>
      <point x="389" y="-101"/>
      <point x="360" y="-69"/>
      <point x="356" y="-14" type="curve"/>
      <point x="526" y="-1"/>
      <point x="607" y="137"/>
      <point x="607" y="321" type="curve" smooth="yes"/>
      <point x="607" y="515"/>
      <point x="524" y="662"/>
      <point x="326" y="662" type="curve" smooth="yes"/>
      <point x="128" y="662"/>
      <point x="45" y="515"/>
      <point x="45" y="321" type="curve" smooth="yes"/>
      <point x="45" y="135"/>
      <point x="127" y="-4"/>
      <point x="302" y="-14" type="curve"/>
      <point x="306" y="-77"/>
      <point x="350" y="-145"/>
      <point x="442" y="-145" type="curve" smooth="yes"/>
    </contour>
    <contour>
      <point x="179" y="31"/>
      <point x="96" y="140"/>
      <point x="96" y="321" type="curve" smooth="yes"/>
      <point x="96" y="506"/>
      <point x="177" y="616"/>
      <point x="326" y="616" type="curve" smooth="yes"/>
      <point x="475" y="616"/>
      <point x="556" y="506"/>
      <point x="556" y="321" type="curve" smooth="yes"/>
      <point x="556" y="140"/>
      <point x="473" y="31"/>
      <point x="326" y="31" type="curve" smooth="yes"/>
    </contour>
  </outline>
</glyph>
<glyph name="V" format="1">
  <advance width="704"/>
  <unicode hex="0056"/>
  <note>
	V
  </note>
  <outline>
    <contour>
      <point x="377" y="0" type="line"/>
      <point x="580" y="568" type="line" smooth="yes"/>
      <point x="591" y="598"/>
      <point x="598" y="604"/>
      <point x="630" y="604" type="curve" smooth="yes"/>
      <point x="659" y="604" type="line"/>
      <point x="659" y="647" type="line"/>
      <point x="555" y="647" type="line"/>
      <point x="352" y="76" type="line"/>
      <point x="149" y="647" type="line"/>
      <point x="45" y="647" type="line"/>
      <point x="45" y="604" type="line"/>
      <point x="74" y="604" type="line" smooth="yes"/>
      <point x="106" y="604"/>
      <point x="113" y="598"/>
      <point x="124" y="568" type="curve" smooth="yes"/>
      <point x="328" y="0" type="line"/>
    </contour>
  </outline>
</glyph>
<glyph name="X" format="1">
  <advance width="662"/>
  <unicode hex="0058"/>
  <note>
	X
  </note>
  <outline>
    <contour>
      <point x="231" y="0" type="line"/>
      <point x="231" y="45" type="line"/>
      <point x="173" y="45" type="line"/>
      <point x="331" y="285" type="line"/>
      <point x="489" y="45" type="line"/>
      <point x="431" y="45" type="line"/>
      <point x="431" y="0" type="line"/>
      <point x="617" y="0" type="line"/>
      <point x="617" y="45" type="line"/>
      <point x="582" y="45" type="line" smooth="yes"/>
      <point x="549" y="45"/>
      <point x="538" y="53"/>
      <point x="522" y="78" type="curve" smooth="yes"/>
      <point x="358" y="327" type="line"/>
      <point x="517" y="569" type="line" smooth="yes"/>
      <point x="533" y="594"/>
      <point x="544" y="602"/>
      <point x="577" y="602" type="curve" smooth="yes"/>
      <point x="612" y="602" type="line"/>
      <point x="612" y="647" type="line"/>
      <point x="426" y="647" type="line"/>
      <point x="426" y="602" type="line"/>
      <point x="484" y="602" type="line"/>
      <point x="331" y="369" type="line"/>
      <point x="178" y="602" type="line"/>
      <point x="236" y="602" type="line"/>
      <point x="236" y="647" type="line"/>
      <point x="50" y="647" type="line"/>
      <point x="50" y="602" type="line"/>
      <point x="85" y="602" type="line" smooth="yes"/>
      <point x="118" y="602"/>
      <point x="129" y="594"/>
      <point x="145" y="569" type="curve" smooth="yes"/>
      <point x="303" y="327" type="line"/>
      <point x="140" y="78" type="line" smooth="yes"/>
      <point x="124" y="53"/>
      <point x="113" y="45"/>
      <point x="80" y="45" type="curve" smooth="yes"/>
      <point x="45" y="45" type="line"/>
      <point x="45" y="0" type="line"/>
    </contour>
  </outline>
</glyph>
<glyph name="Z" format="1">
  <advance width="555"/>
  <unicode hex="005A"/>
  <note>
	Z
  </note>
  <outline>
    <contour>
      <point x="510" y="0" type="line"/>
      <point x="510" y="102" type="line"/>
      <point x="462" y="102" type="line"/>
      <point x="462" y="77" type="line" smooth="yes"/>
      <point x="462" y="52"/>
      <point x="453" y="43"/>
      <point x="426" y="43" type="curve" smooth="yes"/>
      <point x="104" y="43" type="line"/>
      <point x="499" y="604" type="line"/>
      <point x="499" y="647" type="line"/>
      <point x="62" y="647" type="line"/>
      <point x="62" y="545" type="line"/>
      <point x="110" y="545" type="line"/>
      <point x="110" y="570" type="line" smooth="yes"/>
      <point x="110" y="595"/>
      <point x="119" y="604"/>
      <point x="146" y="604" type="curve" smooth="yes"/>
      <point x="440" y="604" type="line"/>
      <point x="45" y="43" type="line"/>
      <point x="45" y="0" type="line"/>
    </contour>
  </outline>
</glyph>
<glyph name="bracketleft" format="1">
  <advance width="272"/>
  <unicode hex="005B"/>
  <note>
	bracketleft
  </note>
  <outline>
    <contour>
      <point x="217" y="-83" type="line"/>
      <point x="217" y="-38" type="line"/>
      <point x="118" y="-38" type="line"/>
      <point x="118" y="705" type="line"/>
      <point x="217" y="705" type="line"/>
      <point x="217" y="750" type="line"/>
      <point x="65" y="750" type="line"/>
      <point x="65" y="-83" type="line"/>
    </contour>
  </outline>
</glyph>
<glyph name="backslash" format="1">
  <advance width="414"/>
  <unicode hex="005C"/>
  <note>
	backslash
  </note>
  <outline>
    <contour>
      <point x="359" y="0" type="line"/>
      <point x="108" y="676" type="line"/>
      <point x="55" y="676" type="line"/>
      <point x="306" y="0" type="line"/>
    </contour>
  </outline>
</glyph>
<glyph name="bracketright" format="1">
  <advance width="272"/>
  <unicode hex="005D"/>
  <note>
	bracketright
  </note>
  <outline>
    <contour>
      <point x="207" y="-83" type="line"/>
      <point x="207" y="750" type="line"/>
      <point x="55" y="750" type="line"/>
      <point x="55" y="705" type="line"/>
      <point x="154" y="705" type="line"/>
      <point x="154" y="-38" type="line"/>
      <point x="55" y="-38" type="line"/>
      <point x="55" y="-83" type="line"/>
    </contour>
  </outline>
</glyph>
<glyph name="asciicircum" format="1">
  <advance width="566"/>
  <unicode hex="005E"/>
  <note>
	asciicircum
  </note>
  <outline>
    <contour>
      <point x="112" y="371" type="line"/>
      <point x="283" y="664" type="line"/>
      <point x="454" y="371" type="line"/>
      <point x="511" y="371" type="line"/>
      <point x="308" y="719" type="line"/>
      <point x="258" y="719" type="line"/>
      <point x="55" y="371" type="line"/>
    </contour>
  </outline>
</glyph>
<glyph name="underscore" format="1">
  <advance width="451"/>
  <unicode hex="005F"/>
  <note>
	underscore
  </note>
  <outline>
    <contour>
      <point x="396" y="-45" type="line"/>
      <point x="396" y="0" type="line"/>
      <point x="55" y="0" type="line"/>
      <point x="55" y="-45" type="line"/>
    </contour>
  </outline>
</glyph>
<glyph name="grave" format="1">
  <advance width="274"/>
  <unicode hex="0060"/>
  <note>
	grave
  </note>
  <outline>
    <contour>
      <point x="219" y="543" type="line"/>
      <point x="134" y="721" type="line"/>
      <point x="55" y="721" type="line"/>
      <point x="171" y="543" type="line"/>
    </contour>
  </outline>
</glyph>
<glyph name="b" format="1">
  <advance width="583"/>
  <unicode hex="0062"/>
  <note>
	b
  </note>
  <outline>
    <contour>
      <point x="451" y="-15"/>
      <point x="538" y="74"/>
      <point x="538" y="235" type="curve" smooth="yes"/>
      <point x="538" y="401"/>
      <point x="462" y="495"/>
      <point x="332" y="495" type="curve" smooth="yes"/>
      <point x="258" y="495"/>
      <point x="194" y="472"/>
      <point x="148" y="404" type="curve"/>
      <point x="148" y="662" type="line"/>
      <point x="35" y="662" type="line"/>
      <point x="35" y="620" type="line"/>
      <point x="56" y="620" type="line" smooth="yes"/>
      <point x="91" y="620"/>
      <point x="95" y="605"/>
      <point x="95" y="571" type="curve" smooth="yes"/>
      <point x="95" y="0" type="line"/>
      <point x="141" y="0" type="line"/>
      <point x="148" y="80" type="line"/>
      <point x="189" y="9"/>
      <point x="254" y="-15"/>
      <point x="321" y="-15" type="curve" smooth="yes"/>
    </contour>
    <contour>
      <point x="216" y="27"/>
      <point x="145" y="110"/>
      <point x="145" y="211" type="curve" smooth="yes"/>
      <point x="145" y="272" type="line" smooth="yes"/>
      <point x="145" y="385"/>
      <point x="228" y="452"/>
      <point x="317" y="452" type="curve" smooth="yes"/>
      <point x="432" y="452"/>
      <point x="487" y="383"/>
      <point x="487" y="237" type="curve" smooth="yes"/>
      <point x="487" y="92"/>
      <point x="424" y="27"/>
      <point x="310" y="27" type="curve" smooth="yes"/>
    </contour>
  </outline>
</glyph>
<glyph name="f" format="1">
  <advance width="394"/>
  <unicode hex="0066"/>
  <note>
	f
  </note>
  <outline>
    <contour>
      <point x="239" y="0" type="line"/>
      <point x="239" y="45" type="line"/>
      <point x="204" y="45" type="line" smooth="yes"/>
      <point x="179" y="45"/>
      <point x="170" y="54"/>
      <point x="170" y="81" type="curve" smooth="yes"/>
      <point x="170" y="435" type="line"/>
      <point x="327" y="435" type="line"/>
      <point x="327" y="480" type="line"/>
      <point x="170" y="480" type="line"/>
      <point x="170" y="510" type="line" smooth="yes"/>
      <point x="170" y="585"/>
      <point x="202" y="631"/>
      <point x="270" y="631" type="curve" smooth="yes"/>
      <point x="306" y="631"/>
      <point x="332" y="627"/>
      <point x="355" y="612" type="curve"/>
      <point x="355" y="569" type="line"/>
      <point x="407" y="569" type="line"/>
      <point x="407" y="628" type="line"/>
      <point x="371" y="662"/>
      <point x="329" y="677"/>
      <point x="266" y="677" type="curve" smooth="yes"/>
      <point x="171" y="677"/>
      <point x="117" y="608"/>
      <point x="117" y="509" type="curve" smooth="yes"/>
      <point x="117" y="480" type="line"/>
      <point x="35" y="480" type="line"/>
      <point x="35" y="435" type="line"/>
      <point x="117" y="435" type="line"/>
      <point x="117" y="81" type="line" smooth="yes"/>
      <point x="117" y="54"/>
      <point x="108" y="45"/>
      <point x="83" y="45" type="curve" smooth="yes"/>
      <point x="48" y="45" type="line"/>
      <point x="48" y="0" type="line"/>
    </contour>
  </outline>
</glyph>
<glyph name="h" format="1">
  <advance width="598"/>
  <unicode hex="0068"/>
  <note>
	h
  </note>
  <outline>
    <contour>
      <point x="236" y="0" type="line"/>
      <point x="236" y="45" type="line"/>
      <point x="201" y="45" type="line" smooth="yes"/>
      <point x="176" y="45"/>
      <point x="167" y="54"/>
      <point x="167" y="81" type="curve" smooth="yes"/>
      <point x="167" y="305" type="line" smooth="yes"/>
      <point x="167" y="396"/>
      <point x="243" y="452"/>
      <point x="327" y="452" type="curve" smooth="yes"/>
      <point x="404" y="452"/>
      <point x="440" y="414"/>
      <point x="440" y="330" type="curve" smooth="yes"/>
      <point x="440" y="0" type="line"/>
      <point x="563" y="0" type="line"/>
      <point x="563" y="45" type="line"/>
      <point x="528" y="45" type="line" smooth="yes"/>
      <point x="503" y="45"/>
      <point x="494" y="54"/>
      <point x="494" y="81" type="curve" smooth="yes"/>
      <point x="494" y="331" type="line" smooth="yes"/>
      <point x="494" y="435"/>
      <point x="440" y="495"/>
      <point x="342" y="495" type="curve" smooth="yes"/>
      <point x="264" y="495"/>
      <point x="211" y="472"/>
      <point x="167" y="420" type="curve"/>
      <point x="167" y="662" type="line"/>
      <point x="54" y="662" type="line"/>
      <point x="54" y="617" type="line"/>
      <point x="80" y="617" type="line" smooth="yes"/>
      <point x="105" y="617"/>
      <point x="114" y="608"/>
      <point x="114" y="581" type="curve" smooth="yes"/>
      <point x="114" y="81" type="line" smooth="yes"/>
      <point x="114" y="54"/>
      <point x="105" y="45"/>
      <point x="80" y="45" type="curve" smooth="yes"/>
      <point x="45" y="45" type="line"/>
      <point x="45" y="0" type="line"/>
    </contour>
  </outline>
</glyph>
<glyph name="m" format="1">
  <advance width="842"/>
  <unicode hex="006D"/>
  <note>
	m
  </note>
  <outline>
    <contour>
      <point x="236" y="0" type="line"/>
      <point x="236" y="45" type="line"/>
      <point x="201" y="45" type="line" smooth="yes"/>
      <point x="176" y="45"/>
      <point x="167" y="54"/>
      <point x="167" y="81" type="curve" smooth="yes"/>
      <point x="167" y="305" type="line" smooth="yes"/>
      <point x="167" y="398"/>
      <point x="220" y="449"/>
      <point x="304" y="449" type="curve" smooth="yes"/>
      <point x="375" y="449"/>
      <point x="400" y="408"/>
      <point x="400" y="331" type="curve" smooth="yes"/>
      <point x="400" y="0" type="line"/>
      <point x="520" y="0" type="line"/>
      <point x="520" y="45" type="line"/>
      <point x="485" y="45" type="line" smooth="yes"/>
      <point x="460" y="45"/>
      <point x="451" y="54"/>
      <point x="451" y="81" type="curve" smooth="yes"/>
      <point x="451" y="318" type="line" smooth="yes"/>
      <point x="451" y="404"/>
      <point x="505" y="449"/>
      <point x="580" y="449" type="curve" smooth="yes"/>
      <point x="656" y="449"/>
      <point x="684" y="418"/>
      <point x="684" y="336" type="curve" smooth="yes"/>
      <point x="684" y="0" type="line"/>
      <point x="807" y="0" type="line"/>
      <point x="807" y="45" type="line"/>
      <point x="772" y="45" type="line" smooth="yes"/>
      <point x="747" y="45"/>
      <point x="738" y="54"/>
      <point x="738" y="81" type="curve" smooth="yes"/>
      <point x="738" y="335" type="line" smooth="yes"/>
      <point x="738" y="439"/>
      <point x="698" y="495"/>
      <point x="592" y="495" type="curve" smooth="yes"/>
      <point x="508" y="495"/>
      <point x="463" y="464"/>
      <point x="434" y="407" type="curve"/>
      <point x="420" y="463"/>
      <point x="378" y="495"/>
      <point x="315" y="495" type="curve" smooth="yes"/>
      <point x="234" y="495"/>
      <point x="192" y="466"/>
      <point x="160" y="412" type="curve"/>
      <point x="154" y="480" type="line"/>
      <point x="54" y="480" type="line"/>
      <point x="54" y="435" type="line"/>
      <point x="80" y="435" type="line" smooth="yes"/>
      <point x="105" y="435"/>
      <point x="114" y="426"/>
      <point x="114" y="399" type="curve" smooth="yes"/>
      <point x="114" y="81" type="line" smooth="yes"/>
      <point x="114" y="54"/>
      <point x="105" y="45"/>
      <point x="80" y="45" type="curve" smooth="yes"/>
      <point x="45" y="45" type="line"/>
      <point x="45" y="0" type="line"/>
    </contour>
  </outline>
</glyph>
<glyph name="p" format="1">
  <advance width="583"/>
  <unicode hex="0070"/>
  <note>
	p
  </note>
  <outline>
    <contour>
      <point x="208" y="-208" type="line"/>
      <point x="208" y="-166" type="line"/>
      <point x="187" y="-166" type="line" smooth="yes"/>
      <point x="152" y="-166"/>
      <point x="148" y="-151"/>
      <point x="148" y="-117" type="curve" smooth="yes"/>
      <point x="148" y="76" type="line"/>
      <point x="194" y="8"/>
      <point x="254" y="-15"/>
      <point x="328" y="-15" type="curve" smooth="yes"/>
      <point x="458" y="-15"/>
      <point x="538" y="82"/>
      <point x="538" y="244" type="curve" smooth="yes"/>
      <point x="538" y="405"/>
      <point x="459" y="495"/>
      <point x="329" y="495" type="curve" smooth="yes"/>
      <point x="255" y="495"/>
      <point x="191" y="468"/>
      <point x="150" y="404" type="curve"/>
      <point x="140" y="480" type="line"/>
      <point x="35" y="480" type="line"/>
      <point x="35" y="442" type="line"/>
      <point x="63" y="442" type="line" smooth="yes"/>
      <point x="86" y="442"/>
      <point x="95" y="431"/>
      <point x="95" y="402" type="curve" smooth="yes"/>
      <point x="95" y="-117" type="line" smooth="yes"/>
      <point x="95" y="-151"/>
      <point x="91" y="-166"/>
      <point x="56" y="-166" type="curve" smooth="yes"/>
      <point x="35" y="-166" type="line"/>
      <point x="35" y="-208" type="line"/>
    </contour>
    <contour>
      <point x="226" y="28"/>
      <point x="145" y="95"/>
      <point x="145" y="208" type="curve" smooth="yes"/>
      <point x="145" y="264" type="line" smooth="yes"/>
      <point x="145" y="374"/>
      <point x="220" y="453"/>
      <point x="322" y="453" type="curve" smooth="yes"/>
      <point x="431" y="453"/>
      <point x="487" y="382"/>
      <point x="487" y="244" type="curve" smooth="yes"/>
      <point x="487" y="98"/>
      <point x="428" y="28"/>
      <point x="315" y="28" type="curve" smooth="yes"/>
    </contour>
  </outline>
</glyph>
<glyph name="q" format="1">
  <advance width="583"/>
  <unicode hex="0071"/>
  <note>
	q
  </note>
  <outline>
    <contour>
      <point x="548" y="-208" type="line"/>
      <point x="548" y="-166" type="line"/>
      <point x="527" y="-166" type="line" smooth="yes"/>
      <point x="492" y="-166"/>
      <point x="488" y="-151"/>
      <point x="488" y="-117" type="curve" smooth="yes"/>
      <point x="488" y="402" type="line" smooth="yes"/>
      <point x="488" y="431"/>
      <point x="497" y="442"/>
      <point x="520" y="442" type="curve" smooth="yes"/>
      <point x="548" y="442" type="line"/>
      <point x="548" y="480" type="line"/>
      <point x="442" y="480" type="line"/>
      <point x="435" y="399" type="line"/>
      <point x="395" y="471"/>
      <point x="338" y="495"/>
      <point x="264" y="495" type="curve" smooth="yes"/>
      <point x="134" y="495"/>
      <point x="45" y="401"/>
      <point x="45" y="240" type="curve" smooth="yes"/>
      <point x="45" y="74"/>
      <point x="121" y="-15"/>
      <point x="251" y="-15" type="curve" smooth="yes"/>
      <point x="325" y="-15"/>
      <point x="389" y="8"/>
      <point x="435" y="76" type="curve"/>
      <point x="435" y="-208" type="line"/>
    </contour>
    <contour>
      <point x="151" y="28"/>
      <point x="96" y="92"/>
      <point x="96" y="238" type="curve" smooth="yes"/>
      <point x="96" y="383"/>
      <point x="161" y="453"/>
      <point x="275" y="453" type="curve" smooth="yes"/>
      <point x="369" y="453"/>
      <point x="438" y="365"/>
      <point x="438" y="264" type="curve" smooth="yes"/>
      <point x="438" y="208" type="line" smooth="yes"/>
      <point x="438" y="95"/>
      <point x="355" y="28"/>
      <point x="266" y="28" type="curve" smooth="yes"/>
    </contour>
  </outline>
</glyph>
<glyph name="r" format="1">
  <advance width="366"/>
  <unicode hex="0072"/>
  <note>
	r
  </note>
  <outline>
    <contour>
      <point x="236" y="0" type="line"/>
      <point x="236" y="45" type="line"/>
      <point x="201" y="45" type="line" smooth="yes"/>
      <point x="176" y="45"/>
      <point x="167" y="54"/>
      <point x="167" y="81" type="curve" smooth="yes"/>
      <point x="167" y="306" type="line" smooth="yes"/>
      <point x="167" y="391"/>
      <point x="201" y="435"/>
      <point x="299" y="435" type="curve" smooth="yes"/>
      <point x="331" y="435" type="line"/>
      <point x="331" y="480" type="line"/>
      <point x="297" y="480" type="line" smooth="yes"/>
      <point x="233" y="480"/>
      <point x="192" y="469"/>
      <point x="162" y="420" type="curve"/>
      <point x="147" y="480" type="line"/>
      <point x="54" y="480" type="line"/>
      <point x="54" y="435" type="line"/>
      <point x="80" y="435" type="line" smooth="yes"/>
      <point x="105" y="435"/>
      <point x="114" y="426"/>
      <point x="114" y="399" type="curve" smooth="yes"/>
      <point x="114" y="81" type="line" smooth="yes"/>
      <point x="114" y="54"/>
      <point x="105" y="45"/>
      <point x="80" y="45" type="curve" smooth="yes"/>
      <point x="45" y="45" type="line"/>
      <point x="45" y="0" type="line"/>
    </contour>
  </outline>
</glyph>
<glyph name="s" format="1">
  <advance width="445"/>
  <unicode hex="0073"/>
  <note>
	s
  </note>
  <outline>
    <contour>
      <point x="344" y="-15"/>
      <point x="400" y="32"/>
      <point x="400" y="111" type="curve" smooth="yes"/>
      <point x="400" y="208"/>
      <point x="312" y="235"/>
      <point x="237" y="265" type="curve" smooth="yes"/>
      <point x="172" y="291"/>
      <point x="101" y="300"/>
      <point x="101" y="370" type="curve" smooth="yes"/>
      <point x="101" y="429"/>
      <point x="143" y="449"/>
      <point x="222" y="449" type="curve" smooth="yes"/>
      <point x="273" y="449"/>
      <point x="306" y="440"/>
      <point x="335" y="423" type="curve"/>
      <point x="335" y="377" type="line"/>
      <point x="388" y="377" type="line"/>
      <point x="388" y="447" type="line"/>
      <point x="348" y="475"/>
      <point x="289" y="495"/>
      <point x="223" y="495" type="curve" smooth="yes"/>
      <point x="120" y="495"/>
      <point x="50" y="454"/>
      <point x="50" y="370" type="curve" smooth="yes"/>
      <point x="50" y="281"/>
      <point x="120" y="258"/>
      <point x="229" y="217" type="curve" smooth="yes"/>
      <point x="313" y="185"/>
      <point x="349" y="162"/>
      <point x="349" y="111" type="curve" smooth="yes"/>
      <point x="349" y="54"/>
      <point x="312" y="31"/>
      <point x="231" y="31" type="curve" smooth="yes"/>
      <point x="178" y="31"/>
      <point x="133" y="41"/>
      <point x="98" y="61" type="curve"/>
      <point x="98" y="107" type="line"/>
      <point x="45" y="107" type="line"/>
      <point x="45" y="37" type="line"/>
      <point x="93" y="5"/>
      <point x="159" y="-15"/>
      <point x="228" y="-15" type="curve" smooth="yes"/>
    </contour>
  </outline>
</glyph>
<glyph name="v" format="1">
  <advance width="576"/>
  <unicode hex="0076"/>
  <note>
	v
  </note>
  <outline>
    <contour>
      <point x="324" y="0" type="line"/>
      <point x="473" y="415" type="line" smooth="yes"/>
      <point x="480" y="433"/>
      <point x="486" y="437"/>
      <point x="513" y="437" type="curve" smooth="yes"/>
      <point x="541" y="437" type="line"/>
      <point x="541" y="480" type="line"/>
      <point x="442" y="480" type="line"/>
      <point x="287" y="43" type="line"/>
      <point x="134" y="480" type="line"/>
      <point x="35" y="480" type="line"/>
      <point x="35" y="437" type="line"/>
      <point x="62" y="437" type="line" smooth="yes"/>
      <point x="90" y="437"/>
      <point x="96" y="433"/>
      <point x="102" y="415" type="curve" smooth="yes"/>
      <point x="252" y="0" type="line"/>
    </contour>
  </outline>
</glyph>
<glyph name="x" format="1">
  <advance width="572"/>
  <unicode hex="0078"/>
  <note>
	x
  </note>
  <outline>
    <contour>
      <point x="218" y="0" type="line"/>
      <point x="218" y="45" type="line"/>
      <point x="163" y="45" type="line"/>
      <point x="286" y="208" type="line"/>
      <point x="409" y="45" type="line"/>
      <point x="354" y="45" type="line"/>
      <point x="354" y="0" type="line"/>
      <point x="537" y="0" type="line"/>
      <point x="537" y="45" type="line"/>
      <point x="502" y="45" type="line" smooth="yes"/>
      <point x="469" y="45"/>
      <point x="459" y="54"/>
      <point x="441" y="78" type="curve" smooth="yes"/>
      <point x="314" y="244" type="line"/>
      <point x="435" y="402" type="line" smooth="yes"/>
      <point x="453" y="426"/>
      <point x="462" y="435"/>
      <point x="495" y="435" type="curve" smooth="yes"/>
      <point x="530" y="435" type="line"/>
      <point x="530" y="480" type="line"/>
      <point x="347" y="480" type="line"/>
      <point x="347" y="435" type="line"/>
      <point x="403" y="435" type="line"/>
      <point x="286" y="279" type="line"/>
      <point x="169" y="435" type="line"/>
      <point x="225" y="435" type="line"/>
      <point x="225" y="480" type="line"/>
      <point x="42" y="480" type="line"/>
      <point x="42" y="435" type="line"/>
      <point x="77" y="435" type="line" smooth="yes"/>
      <point x="110" y="435"/>
      <point x="119" y="426"/>
      <point x="137" y="402" type="curve" smooth="yes"/>
      <point x="257" y="244" type="line"/>
      <point x="131" y="78" type="line" smooth="yes"/>
      <point x="113" y="54"/>
      <point x="103" y="45"/>
      <point x="70" y="45" type="curve" smooth="yes"/>
      <point x="35" y="45" type="line"/>
      <point x="35" y="0" type="line"/>
    </contour>
  </outline>
</glyph>
<glyph name="braceleft" format="1">
  <advance width="339"/>
  <unicode hex="007B"/>
  <note>
	braceleft
  </note>
  <outline>
    <contour>
      <point x="284" y="-83" type="line"/>
      <point x="284" y="-38" type="line"/>
      <point x="259" y="-38" type="line" smooth="yes"/>
      <point x="200" y="-38"/>
      <point x="179" y="-8"/>
      <point x="179" y="47" type="curve" smooth="yes"/>
      <point x="179" y="227" type="line" smooth="yes"/>
      <point x="179" y="280"/>
      <point x="154" y="320"/>
      <point x="114" y="333" type="curve"/>
      <point x="114" y="334" type="line"/>
      <point x="154" y="347"/>
      <point x="179" y="387"/>
      <point x="179" y="440" type="curve" smooth="yes"/>
      <point x="179" y="620" type="line" smooth="yes"/>
      <point x="179" y="675"/>
      <point x="200" y="705"/>
      <point x="259" y="705" type="curve" smooth="yes"/>
      <point x="284" y="705" type="line"/>
      <point x="284" y="750" type="line"/>
      <point x="249" y="750" type="line" smooth="yes"/>
      <point x="167" y="750"/>
      <point x="126" y="700"/>
      <point x="126" y="614" type="curve" smooth="yes"/>
      <point x="126" y="436" type="line" smooth="yes"/>
      <point x="126" y="375"/>
      <point x="94" y="356"/>
      <point x="46" y="356" type="curve" smooth="yes"/>
      <point x="35" y="356" type="line"/>
      <point x="35" y="311" type="line"/>
      <point x="46" y="311" type="line" smooth="yes"/>
      <point x="94" y="311"/>
      <point x="126" y="292"/>
      <point x="126" y="231" type="curve" smooth="yes"/>
      <point x="126" y="53" type="line" smooth="yes"/>
      <point x="126" y="-33"/>
      <point x="167" y="-83"/>
      <point x="249" y="-83" type="curve" smooth="yes"/>
    </contour>
  </outline>
</glyph>
<glyph name="bar" format="1">
  <advance width="163"/>
  <unicode hex="007C"/>
  <note>
	bar
  </note>
  <outline>
    <contour>
      <point x="108" y="-120" type="line"/>
      <point x="108" y="767" type="line"/>
      <point x="55" y="767" type="line"/>
      <point x="55" y="-120" type="line"/>
    </contour>
  </outline>
</glyph>
<glyph name="braceright" format="1">
  <advance width="339"/>
  <unicode hex="007D"/>
  <note>
	braceright
  </note>
  <outline>
    <contour>
      <point x="90" y="-83" type="line" smooth="yes"/>
      <point x="172" y="-83"/>
      <point x="213" y="-33"/>
      <point x="213" y="53" type="curve" smooth="yes"/>
      <point x="213" y="231" type="line" smooth="yes"/>
      <point x="213" y="292"/>
      <point x="245" y="311"/>
      <point x="293" y="311" type="curve" smooth="yes"/>
      <point x="304" y="311" type="line"/>
      <point x="304" y="356" type="line"/>
      <point x="293" y="356" type="line" smooth="yes"/>
      <point x="245" y="356"/>
      <point x="213" y="375"/>
      <point x="213" y="436" type="curve" smooth="yes"/>
      <point x="213" y="614" type="line" smooth="yes"/>
      <point x="213" y="700"/>
      <point x="172" y="750"/>
      <point x="90" y="750" type="curve" smooth="yes"/>
      <point x="55" y="750" type="line"/>
      <point x="55" y="705" type="line"/>
      <point x="80" y="705" type="line" smooth="yes"/>
      <point x="139" y="705"/>
      <point x="160" y="675"/>
      <point x="160" y="620" type="curve" smooth="yes"/>
      <point x="160" y="440" type="line" smooth="yes"/>
      <point x="160" y="387"/>
      <point x="185" y="347"/>
      <point x="225" y="334" type="curve"/>
      <point x="225" y="333" type="line"/>
      <point x="185" y="320"/>
      <point x="160" y="280"/>
      <point x="160" y="227" type="curve" smooth="yes"/>
      <point x="160" y="47" type="line" smooth="yes"/>
      <point x="160" y="-8"/>
      <point x="139" y="-38"/>
      <point x="80" y="-38" type="curve" smooth="yes"/>
      <point x="55" y="-38" type="line"/>
      <point x="55" y="-83" type="line"/>
    </contour>
  </outline>
</glyph>
<glyph name="asciitilde" format="1">
  <advance width="569"/>
  <unicode hex="007E"/>
  <note>
	asciitilde
  </note>
  <outline>
    <contour>
      <point x="102" y="245" type="line"/>
      <point x="102" y="294"/>
      <point x="114" y="324"/>
      <point x="176" y="324" type="curve" smooth="yes"/>
      <point x="250" y="324"/>
      <point x="300" y="245"/>
      <point x="393" y="245" type="curve" smooth="yes"/>
      <point x="477" y="245"/>
      <point x="514" y="296"/>
      <point x="514" y="370" type="curve"/>
      <point x="467" y="370" type="line"/>
      <point x="467" y="321"/>
      <point x="455" y="291"/>
      <point x="393" y="291" type="curve" smooth="yes"/>
      <point x="309" y="291"/>
      <point x="269" y="370"/>
      <point x="176" y="370" type="curve" smooth="yes"/>
      <point x="92" y="370"/>
      <point x="55" y="319"/>
      <point x="55" y="245" type="curve"/>
    </contour>
  </outline>
</glyph>
<glyph name="exclamdown" format="1">
  <advance width="173"/>
  <unicode hex="00A1"/>
  <note>
	exclamdown
  </note>
  <outline>
    <contour>
      <point x="117" y="-152" type="line"/>
      <point x="111" y="347" type="line"/>
      <point x="62" y="347" type="line"/>
      <point x="56" y="-152" type="line"/>
    </contour>
    <contour>
      <point x="118" y="432" type="line"/>
      <point x="118" y="495" type="line"/>
      <point x="55" y="495" type="line"/>
      <point x="55" y="432" type="line"/>
    </contour>
  </outline>
</glyph>
<glyph name="cent" format="1">
  <advance width="518"/>
  <unicode hex="00A2"/>
  <note>
	cent
  </note>
  <outline>
    <contour>
      <point x="315" y="-90" type="line"/>
      <point x="315" y="-14" type="line"/>
      <point x="373" y="-12"/>
      <point x="418" y="0"/>
      <point x="463" y="27" type="curve"/>
      <point x="439" y="66" type="line"/>
      <point x="396" y="41"/>
      <point x="359" y="31"/>
      <point x="290" y="31" type="curve" smooth="yes"/>
      <point x="198" y="31"/>
      <point x="96" y="87"/>
      <point x="96" y="238" type="curve" smooth="yes"/>
      <point x="96" y="393"/>
      <point x="189" y="449"/>
      <point x="288" y="449" type="curve" smooth="yes"/>
      <point x="349" y="449"/>
      <point x="384" y="440"/>
      <point x="420" y="421" type="curve"/>
      <point x="420" y="366" type="line"/>
      <point x="473" y="366" type="line"/>
      <point x="473" y="444" type="line"/>
      <point x="432" y="473"/>
      <point x="384" y="491"/>
      <point x="315" y="494" type="curve"/>
      <point x="315" y="570" type="line"/>
      <point x="262" y="570" type="line"/>
      <point x="262" y="494" type="line"/>
      <point x="129" y="483"/>
      <point x="45" y="392"/>
      <point x="45" y="238" type="curve" smooth="yes"/>
      <point x="45" y="85"/>
      <point x="139" y="-2"/>
      <point x="262" y="-13" type="curve"/>
      <point x="262" y="-90" type="line"/>
    </contour>
  </outline>
</glyph>
<glyph name="sterling" format="1">
  <advance width="488"/>
  <unicode hex="00A3"/>
  <note>
	sterling
  </note>
  <outline>
    <contour>
      <point x="453" y="0" type="line"/>
      <point x="453" y="45" type="line"/>
      <point x="158" y="45" type="line"/>
      <point x="185" y="68"/>
      <point x="190" y="100"/>
      <point x="190" y="140" type="curve" smooth="yes"/>
      <point x="190" y="365" type="line"/>
      <point x="357" y="365" type="line"/>
      <point x="357" y="410" type="line"/>
      <point x="190" y="410" type="line"/>
      <point x="190" y="503" type="line" smooth="yes"/>
      <point x="190" y="578"/>
      <point x="238" y="616"/>
      <point x="306" y="616" type="curve" smooth="yes"/>
      <point x="342" y="616"/>
      <point x="368" y="609"/>
      <point x="391" y="594" type="curve"/>
      <point x="391" y="551" type="line"/>
      <point x="443" y="551" type="line"/>
      <point x="443" y="610" type="line"/>
      <point x="407" y="644"/>
      <point x="365" y="662"/>
      <point x="302" y="662" type="curve" smooth="yes"/>
      <point x="207" y="662"/>
      <point x="137" y="601"/>
      <point x="137" y="502" type="curve" smooth="yes"/>
      <point x="137" y="410" type="line"/>
      <point x="55" y="410" type="line"/>
      <point x="55" y="365" type="line"/>
      <point x="137" y="365" type="line"/>
      <point x="137" y="140" type="line" smooth="yes"/>
      <point x="137" y="79"/>
      <point x="117" y="45"/>
      <point x="79" y="45" type="curve" smooth="yes"/>
      <point x="57" y="45" type="line"/>
      <point x="57" y="0" type="line"/>
    </contour>
  </outline>
</glyph>
<glyph name="currency" format="1">
  <advance width="604"/>
  <unicode hex="00A4"/>
  <note>
	currency
  </note>
  <outline>
    <contour>
      <point x="180" y="152" type="line"/>
      <point x="215" y="128"/>
      <point x="257" y="114"/>
      <point x="303" y="114" type="curve" smooth="yes"/>
      <point x="348" y="114"/>
      <point x="390" y="127"/>
      <point x="425" y="151" type="curve"/>
      <point x="507" y="75" type="line"/>
      <point x="539" y="108" type="line"/>
      <point x="459" y="181" type="line"/>
      <point x="496" y="220"/>
      <point x="518" y="271"/>
      <point x="518" y="329" type="curve" smooth="yes"/>
      <point x="518" y="380"/>
      <point x="500" y="428"/>
      <point x="469" y="465" type="curve"/>
      <point x="549" y="538" type="line"/>
      <point x="517" y="571" type="line"/>
      <point x="437" y="497" type="line"/>
      <point x="400" y="526"/>
      <point x="354" y="544"/>
      <point x="303" y="544" type="curve" smooth="yes"/>
      <point x="251" y="544"/>
      <point x="204" y="526"/>
      <point x="167" y="496" type="curve"/>
      <point x="87" y="571" type="line"/>
      <point x="55" y="538" type="line"/>
      <point x="135" y="464" type="line"/>
      <point x="105" y="427"/>
      <point x="88" y="380"/>
      <point x="88" y="329" type="curve" smooth="yes"/>
      <point x="88" y="272"/>
      <point x="109" y="221"/>
      <point x="145" y="182" type="curve"/>
      <point x="65" y="108" type="line"/>
      <point x="97" y="75" type="line"/>
    </contour>
    <contour>
      <point x="209" y="160"/>
      <point x="139" y="235"/>
      <point x="139" y="329" type="curve" smooth="yes"/>
      <point x="139" y="423"/>
      <point x="209" y="498"/>
      <point x="303" y="498" type="curve" smooth="yes"/>
      <point x="397" y="498"/>
      <point x="467" y="423"/>
      <point x="467" y="329" type="curve" smooth="yes"/>
      <point x="467" y="235"/>
      <point x="397" y="160"/>
      <point x="303" y="160" type="curve" smooth="yes"/>
    </contour>
  </outline>
</glyph>
<glyph name="yen" format="1">
  <advance width="664"/>
  <unicode hex="00A5"/>
  <note>
	yen
  </note>
  <outline>
    <contour>
      <point x="418" y="0" type="line"/>
      <point x="418" y="43" type="line"/>
      <point x="393" y="43" type="line" smooth="yes"/>
      <point x="368" y="43"/>
      <point x="359" y="52"/>
      <point x="359" y="79" type="curve" smooth="yes"/>
      <point x="359" y="134" type="line"/>
      <point x="493" y="134" type="line"/>
      <point x="493" y="179" type="line"/>
      <point x="359" y="179" type="line"/>
      <point x="359" y="233" type="line"/>
      <point x="493" y="233" type="line"/>
      <point x="493" y="278" type="line"/>
      <point x="383" y="278" type="line"/>
      <point x="540" y="568" type="line" smooth="yes"/>
      <point x="553" y="592"/>
      <point x="569" y="604"/>
      <point x="594" y="604" type="curve" smooth="yes"/>
      <point x="619" y="604" type="line"/>
      <point x="619" y="647" type="line"/>
      <point x="448" y="647" type="line"/>
      <point x="448" y="604" type="line"/>
      <point x="473" y="604" type="line" smooth="yes"/>
      <point x="498" y="604"/>
      <point x="500" y="592"/>
      <point x="487" y="568" type="curve" smooth="yes"/>
      <point x="332" y="279" type="line"/>
      <point x="177" y="568" type="line" smooth="yes"/>
      <point x="164" y="592"/>
      <point x="166" y="604"/>
      <point x="191" y="604" type="curve" smooth="yes"/>
      <point x="216" y="604" type="line"/>
      <point x="216" y="647" type="line"/>
      <point x="45" y="647" type="line"/>
      <point x="45" y="604" type="line"/>
      <point x="70" y="604" type="line" smooth="yes"/>
      <point x="95" y="604"/>
      <point x="111" y="592"/>
      <point x="124" y="568" type="curve" smooth="yes"/>
      <point x="281" y="278" type="line"/>
      <point x="172" y="278" type="line"/>
      <point x="172" y="233" type="line"/>
      <point x="306" y="233" type="line"/>
      <point x="306" y="179" type="line"/>
      <point x="172" y="179" type="line"/>
      <point x="172" y="134" type="line"/>
      <point x="306" y="134" type="line"/>
      <point x="306" y="79" type="line" smooth="yes"/>
      <point x="306" y="52"/>
      <point x="297" y="43"/>
      <point x="272" y="43" type="curve" smooth="yes"/>
      <point x="247" y="43" type="line"/>
      <point x="247" y="0" type="line"/>
    </contour>
  </outline>
</glyph>
<glyph name="brokenbar" format="1">
  <advance width="163"/>
  <unicode hex="00A6"/>
  <note>
	brokenbar
  </note>
  <outline>
    <contour>
      <point x="108" y="434" type="line"/>
      <point x="108" y="767" type="line"/>
      <point x="55" y="767" type="line"/>
      <point x="55" y="434" type="line"/>
    </contour>
    <contour>
      <point x="108" y="-120" type="line"/>
      <point x="108" y="213" type="line"/>
      <point x="55" y="213" type="line"/>
      <point x="55" y="-120" type="line"/>
    </contour>
  </outline>
</glyph>
<glyph name="section" format="1">
  <advance width="500"/>
  <unicode hex="00A7"/>
  <note>
	section
  </note>
  <outline>
    <contour>
      <point x="392" y="-156"/>
      <point x="465" y="-84"/>
      <point x="465" y="12" type="curve" smooth="yes"/>
      <point x="465" y="52"/>
      <point x="454" y="83"/>
      <point x="435" y="108" type="curve"/>
      <point x="455" y="135"/>
      <point x="465" y="167"/>
      <point x="465" y="203" type="curve" smooth="yes"/>
      <point x="465" y="318"/>
      <point x="374" y="358"/>
      <point x="267" y="400" type="curve" smooth="yes"/>
      <point x="176" y="436"/>
      <point x="92" y="463"/>
      <point x="92" y="548" type="curve" smooth="yes"/>
      <point x="92" y="633"/>
      <point x="159" y="666"/>
      <point x="250" y="666" type="curve" smooth="yes"/>
      <point x="308" y="666"/>
      <point x="365" y="654"/>
      <point x="399" y="634" type="curve"/>
      <point x="399" y="579" type="line"/>
      <point x="452" y="579" type="line"/>
      <point x="452" y="657" type="line"/>
      <point x="406" y="689"/>
      <point x="326" y="712"/>
      <point x="251" y="712" type="curve" smooth="yes"/>
      <point x="133" y="712"/>
      <point x="41" y="660"/>
      <point x="41" y="548" type="curve" smooth="yes"/>
      <point x="41" y="509"/>
      <point x="52" y="479"/>
      <point x="73" y="454" type="curve"/>
      <point x="53" y="429"/>
      <point x="41" y="396"/>
      <point x="41" y="357" type="curve" smooth="yes"/>
      <point x="41" y="254"/>
      <point x="123" y="211"/>
      <point x="258" y="162" type="curve" smooth="yes"/>
      <point x="353" y="127"/>
      <point x="414" y="95"/>
      <point x="414" y="12" type="curve" smooth="yes"/>
      <point x="414" y="-64"/>
      <point x="362" y="-110"/>
      <point x="260" y="-110" type="curve" smooth="yes"/>
      <point x="199" y="-110"/>
      <point x="127" y="-93"/>
      <point x="88" y="-67" type="curve"/>
      <point x="88" y="-12" type="line"/>
      <point x="35" y="-12" type="line"/>
      <point x="35" y="-90" type="line"/>
      <point x="89" y="-129"/>
      <point x="177" y="-156"/>
      <point x="256" y="-156" type="curve" smooth="yes"/>
    </contour>
    <contour>
      <point x="364" y="169"/>
      <point x="317" y="189"/>
      <point x="267" y="209" type="curve" smooth="yes"/>
      <point x="176" y="245"/>
      <point x="92" y="272"/>
      <point x="92" y="357" type="curve" smooth="yes"/>
      <point x="92" y="385"/>
      <point x="98" y="405"/>
      <point x="110" y="422" type="curve"/>
      <point x="146" y="396"/>
      <point x="196" y="377"/>
      <point x="258" y="353" type="curve" smooth="yes"/>
      <point x="352" y="316"/>
      <point x="414" y="286"/>
      <point x="414" y="203" type="curve" smooth="yes"/>
      <point x="414" y="179"/>
      <point x="411" y="160"/>
      <point x="400" y="142" type="curve"/>
    </contour>
  </outline>
</glyph>
<glyph name="dieresis" format="1">
  <advance width="367"/>
  <unicode hex="00A8"/>
  <note>
	dieresis
  </note>
  <outline>
    <contour>
      <point x="312" y="593" type="line"/>
      <point x="312" y="661" type="line"/>
      <point x="244" y="661" type="line"/>
      <point x="244" y="593" type="line"/>
    </contour>
    <contour>
      <point x="123" y="593" type="line"/>
      <point x="123" y="661" type="line"/>
      <point x="55" y="661" type="line"/>
      <point x="55" y="593" type="line"/>
    </contour>
  </outline>
</glyph>
<glyph name="copyright" format="1">
  <advance width="828"/>
  <unicode hex="00A9"/>
  <note>
	copyright
  </note>
  <outline>
    <contour>
      <point x="614" y="-15"/>
      <point x="773" y="144"/>
      <point x="773" y="342" type="curve" smooth="yes"/>
      <point x="773" y="541"/>
      <point x="614" y="700"/>
      <point x="415" y="700" type="curve" smooth="yes"/>
      <point x="214" y="700"/>
      <point x="55" y="541"/>
      <point x="55" y="342" type="curve" smooth="yes"/>
      <point x="55" y="144"/>
      <point x="214" y="-15"/>
      <point x="413" y="-15" type="curve" smooth="yes"/>
    </contour>
    <contour>
      <point x="483" y="84"/>
      <point x="535" y="95"/>
      <point x="586" y="126" type="curve"/>
      <point x="562" y="165" type="line"/>
      <point x="519" y="140"/>
      <point x="482" y="130"/>
      <point x="413" y="130" type="curve" smooth="yes"/>
      <point x="321" y="130"/>
      <point x="219" y="186"/>
      <point x="219" y="337" type="curve" smooth="yes"/>
      <point x="219" y="492"/>
      <point x="312" y="548"/>
      <point x="411" y="548" type="curve" smooth="yes"/>
      <point x="472" y="548"/>
      <point x="507" y="539"/>
      <point x="543" y="520" type="curve"/>
      <point x="543" y="465" type="line"/>
      <point x="596" y="465" type="line"/>
      <point x="596" y="543" type="line"/>
      <point x="550" y="576"/>
      <point x="496" y="594"/>
      <point x="411" y="594" type="curve" smooth="yes"/>
      <point x="263" y="594"/>
      <point x="168" y="501"/>
      <point x="168" y="337" type="curve" smooth="yes"/>
      <point x="168" y="173"/>
      <point x="277" y="84"/>
      <point x="413" y="84" type="curve" smooth="yes"/>
    </contour>
    <contour>
      <point x="236" y="30"/>
      <point x="106" y="164"/>
      <point x="106" y="341" type="curve" smooth="yes"/>
      <point x="106" y="519"/>
      <point x="236" y="655"/>
      <point x="414" y="655" type="curve" smooth="yes"/>
      <point x="592" y="655"/>
      <point x="722" y="519"/>
      <point x="722" y="341" type="curve" smooth="yes"/>
      <point x="722" y="164"/>
      <point x="592" y="30"/>
      <point x="414" y="30" type="curve" smooth="yes"/>
    </contour>
  </outline>
</glyph>
<glyph name="ordfeminine" format="1">
  <advance width="398"/>
  <unicode hex="00AA"/>
  <note>
	ordfeminine
  </note>
  <outline>
    <contour>
      <point x="207" y="335"/>
      <point x="244" y="353"/>
      <point x="270" y="384" type="curve"/>
      <point x="281" y="345" type="line"/>
      <point x="343" y="345" type="line"/>
      <point x="343" y="376" type="line"/>
      <point x="325" y="376" type="line" smooth="yes"/>
      <point x="310" y="376"/>
      <point x="305" y="383"/>
      <point x="305" y="402" type="curve" smooth="yes"/>
      <point x="305" y="556" type="line" smooth="yes"/>
      <point x="305" y="619"/>
      <point x="276" y="662"/>
      <point x="194" y="662" type="curve" smooth="yes"/>
      <point x="150" y="662"/>
      <point x="114" y="652"/>
      <point x="80" y="631" type="curve"/>
      <point x="80" y="585" type="line"/>
      <point x="121" y="585" type="line"/>
      <point x="121" y="610" type="line"/>
      <point x="145" y="621"/>
      <point x="159" y="624"/>
      <point x="195" y="624" type="curve" smooth="yes"/>
      <point x="247" y="624"/>
      <point x="262" y="606"/>
      <point x="262" y="557" type="curve" smooth="yes"/>
      <point x="262" y="518" type="line"/>
      <point x="159" y="511" type="line" smooth="yes"/>
      <point x="99" y="507"/>
      <point x="55" y="482"/>
      <point x="55" y="420" type="curve" smooth="yes"/>
      <point x="55" y="365"/>
      <point x="89" y="335"/>
      <point x="149" y="335" type="curve" smooth="yes"/>
    </contour>
    <contour>
      <point x="117" y="372"/>
      <point x="96" y="388"/>
      <point x="96" y="420" type="curve" smooth="yes"/>
      <point x="96" y="459"/>
      <point x="114" y="475"/>
      <point x="159" y="478" type="curve" smooth="yes"/>
      <point x="262" y="485" type="line"/>
      <point x="262" y="457" type="line" smooth="yes"/>
      <point x="262" y="395"/>
      <point x="220" y="372"/>
      <point x="161" y="372" type="curve" smooth="yes"/>
    </contour>
  </outline>
</glyph>
<glyph name="guillemetleft" format="1">
  <advance width="558"/>
  <unicode hex="00AB"/>
  <note>
	guillemotleft
  </note>
  <outline>
    <contour>
      <point x="503" y="142" type="line"/>
      <point x="296" y="323" type="line"/>
      <point x="503" y="504" type="line"/>
      <point x="503" y="561" type="line"/>
      <point x="255" y="348" type="line"/>
      <point x="255" y="298" type="line"/>
      <point x="503" y="85" type="line"/>
    </contour>
    <contour>
      <point x="303" y="142" type="line"/>
      <point x="96" y="323" type="line"/>
      <point x="303" y="504" type="line"/>
      <point x="303" y="561" type="line"/>
      <point x="55" y="348" type="line"/>
      <point x="55" y="298" type="line"/>
      <point x="303" y="85" type="line"/>
    </contour>
  </outline>
</glyph>
<glyph name="logicalnot" format="1">
  <advance width="511"/>
  <unicode hex="00AC"/>
  <note>
	logicalnot
  </note>
  <outline>
    <contour>
      <point x="456" y="142" type="line"/>
      <point x="456" y="327" type="line"/>
      <point x="55" y="327" type="line"/>
      <point x="55" y="282" type="line"/>
      <point x="403" y="282" type="line"/>
      <point x="403" y="142" type="line"/>
    </contour>
  </outline>
</glyph>
<glyph name="registered" format="1">
  <advance width="828"/>
  <unicode hex="00AE"/>
  <note>
	registered
  </note>
  <outline>
    <contour>
      <point x="614" y="-15"/>
      <point x="773" y="144"/>
      <point x="773" y="342" type="curve" smooth="yes"/>
      <point x="773" y="541"/>
      <point x="614" y="700"/>
      <point x="415" y="700" type="curve" smooth="yes"/>
      <point x="214" y="700"/>
      <point x="55" y="541"/>
      <point x="55" y="342" type="curve" smooth="yes"/>
      <point x="55" y="144"/>
      <point x="214" y="-15"/>
      <point x="413" y="-15" type="curve" smooth="yes"/>
    </contour>
    <contour>
      <point x="236" y="30"/>
      <point x="106" y="164"/>
      <point x="106" y="341" type="curve" smooth="yes"/>
      <point x="106" y="519"/>
      <point x="236" y="655"/>
      <point x="414" y="655" type="curve" smooth="yes"/>
      <point x="592" y="655"/>
      <point x="722" y="519"/>
      <point x="722" y="341" type="curve" smooth="yes"/>
      <point x="722" y="164"/>
      <point x="592" y="30"/>
      <point x="414" y="30" type="curve" smooth="yes"/>
    </contour>
    <contour>
      <point x="366" y="118" type="line"/>
      <point x="366" y="154" type="line"/>
      <point x="345" y="154" type="line" smooth="yes"/>
      <point x="322" y="154"/>
      <point x="318" y="162"/>
      <point x="318" y="180" type="curve" smooth="yes"/>
      <point x="318" y="316" type="line"/>
      <point x="407" y="316" type="line"/>
      <point x="471" y="193" type="line" smooth="yes"/>
      <point x="500" y="137"/>
      <point x="530" y="118"/>
      <point x="584" y="118" type="curve" smooth="yes"/>
      <point x="610" y="118" type="line"/>
      <point x="610" y="157" type="line"/>
      <point x="584" y="157" type="line" smooth="yes"/>
      <point x="552" y="157"/>
      <point x="536" y="162"/>
      <point x="516" y="200" type="curve" smooth="yes"/>
      <point x="455" y="316" type="line"/>
      <point x="542" y="319"/>
      <point x="590" y="373"/>
      <point x="590" y="449" type="curve" smooth="yes"/>
      <point x="590" y="526"/>
      <point x="538" y="573"/>
      <point x="447" y="573" type="curve" smooth="yes"/>
      <point x="227" y="573" type="line"/>
      <point x="227" y="533" type="line"/>
      <point x="247" y="533" type="line" smooth="yes"/>
      <point x="268" y="533"/>
      <point x="273" y="526"/>
      <point x="273" y="507" type="curve" smooth="yes"/>
      <point x="273" y="180" type="line" smooth="yes"/>
      <point x="273" y="162"/>
      <point x="268" y="154"/>
      <point x="247" y="154" type="curve" smooth="yes"/>
      <point x="227" y="154" type="line"/>
      <point x="227" y="118" type="line"/>
    </contour>
    <contour>
      <point x="318" y="533" type="line"/>
      <point x="440" y="533" type="line" smooth="yes"/>
      <point x="514" y="533"/>
      <point x="548" y="513"/>
      <point x="548" y="449" type="curve" smooth="yes"/>
      <point x="548" y="388"/>
      <point x="512" y="355"/>
      <point x="440" y="355" type="curve" smooth="yes"/>
      <point x="318" y="355" type="line"/>
    </contour>
  </outline>
</glyph>
<glyph name="macron" format="1">
  <advance width="431"/>
  <unicode hex="00AF"/>
  <note>
	macron
  </note>
  <outline>
    <contour>
      <point x="376" y="594" type="line"/>
      <point x="376" y="639" type="line"/>
      <point x="55" y="639" type="line"/>
      <point x="55" y="594" type="line"/>
    </contour>
  </outline>
</glyph>
<glyph name="degree" format="1">
  <advance width="356"/>
  <unicode hex="00B0"/>
  <note>
	degree
  </note>
  <outline>
    <contour>
      <point x="246" y="416"/>
      <point x="301" y="471"/>
      <point x="301" y="538" type="curve" smooth="yes"/>
      <point x="301" y="607"/>
      <point x="246" y="662"/>
      <point x="177" y="662" type="curve" smooth="yes"/>
      <point x="110" y="662"/>
      <point x="55" y="607"/>
      <point x="55" y="538" type="curve" smooth="yes"/>
      <point x="55" y="471"/>
      <point x="110" y="416"/>
      <point x="177" y="416" type="curve" smooth="yes"/>
    </contour>
    <contour>
      <point x="133" y="460"/>
      <point x="99" y="494"/>
      <point x="99" y="538" type="curve" smooth="yes"/>
      <point x="99" y="584"/>
      <point x="133" y="618"/>
      <point x="177" y="618" type="curve" smooth="yes"/>
      <point x="223" y="618"/>
      <point x="257" y="584"/>
      <point x="257" y="538" type="curve" smooth="yes"/>
      <point x="257" y="494"/>
      <point x="223" y="460"/>
      <point x="177" y="460" type="curve" smooth="yes"/>
    </contour>
  </outline>
</glyph>
<glyph name="plusminus" format="1">
  <advance width="411"/>
  <unicode hex="00B1"/>
  <note>
	plusminus
  </note>
  <outline>
    <contour>
      <point x="231" y="172" type="line"/>
      <point x="231" y="282" type="line"/>
      <point x="356" y="282" type="line"/>
      <point x="356" y="327" type="line"/>
      <point x="231" y="327" type="line"/>
      <point x="231" y="437" type="line"/>
      <point x="178" y="437" type="line"/>
      <point x="178" y="327" type="line"/>
      <point x="55" y="327" type="line"/>
      <point x="55" y="282" type="line"/>
      <point x="178" y="282" type="line"/>
      <point x="178" y="172" type="line"/>
    </contour>
    <contour>
      <point x="356" y="40" type="line"/>
      <point x="356" y="85" type="line"/>
      <point x="55" y="85" type="line"/>
      <point x="55" y="40" type="line"/>
    </contour>
  </outline>
</glyph>
<glyph name="twosuperior" format="1">
  <advance width="334"/>
  <unicode hex="00B2"/>
  <note>
	twosuperior
  </note>
  <outline>
    <contour>
      <point x="279" y="345" type="line"/>
      <point x="279" y="383" type="line"/>
      <point x="98" y="383" type="line"/>
      <point x="98" y="414"/>
      <point x="129" y="433"/>
      <point x="175" y="461" type="curve" smooth="yes"/>
      <point x="249" y="506"/>
      <point x="276" y="526"/>
      <point x="276" y="574" type="curve" smooth="yes"/>
      <point x="276" y="628"/>
      <point x="237" y="662"/>
      <point x="164" y="662" type="curve" smooth="yes"/>
      <point x="127" y="662"/>
      <point x="80" y="648"/>
      <point x="55" y="630" type="curve"/>
      <point x="55" y="584" type="line"/>
      <point x="96" y="584" type="line"/>
      <point x="96" y="609" type="line"/>
      <point x="113" y="619"/>
      <point x="139" y="624"/>
      <point x="164" y="624" type="curve" smooth="yes"/>
      <point x="211" y="624"/>
      <point x="234" y="611"/>
      <point x="234" y="574" type="curve" smooth="yes"/>
      <point x="234" y="537"/>
      <point x="214" y="526"/>
      <point x="162" y="496" type="curve" smooth="yes"/>
      <point x="104" y="462"/>
      <point x="55" y="431"/>
      <point x="55" y="378" type="curve" smooth="yes"/>
      <point x="55" y="345" type="line"/>
    </contour>
  </outline>
</glyph>
<glyph name="threesuperior" format="1">
  <advance width="345"/>
  <unicode hex="00B3"/>
  <note>
	threesuperior
  </note>
  <outline>
    <contour>
      <point x="238" y="335"/>
      <point x="290" y="365"/>
      <point x="290" y="432" type="curve" smooth="yes"/>
      <point x="290" y="474"/>
      <point x="271" y="493"/>
      <point x="240" y="503" type="curve"/>
      <point x="270" y="518"/>
      <point x="283" y="546"/>
      <point x="283" y="578" type="curve" smooth="yes"/>
      <point x="283" y="632"/>
      <point x="239" y="662"/>
      <point x="169" y="662" type="curve" smooth="yes"/>
      <point x="128" y="662"/>
      <point x="85" y="645"/>
      <point x="61" y="627" type="curve"/>
      <point x="61" y="579" type="line"/>
      <point x="102" y="579" type="line"/>
      <point x="102" y="606" type="line"/>
      <point x="118" y="616"/>
      <point x="144" y="624"/>
      <point x="175" y="624" type="curve" smooth="yes"/>
      <point x="217" y="624"/>
      <point x="242" y="609"/>
      <point x="242" y="578" type="curve" smooth="yes"/>
      <point x="242" y="537"/>
      <point x="226" y="521"/>
      <point x="179" y="521" type="curve" smooth="yes"/>
      <point x="137" y="521" type="line"/>
      <point x="137" y="485" type="line"/>
      <point x="177" y="485" type="line" smooth="yes"/>
      <point x="228" y="485"/>
      <point x="249" y="472"/>
      <point x="249" y="432" type="curve" smooth="yes"/>
      <point x="249" y="387"/>
      <point x="215" y="373"/>
      <point x="167" y="373" type="curve" smooth="yes"/>
      <point x="136" y="373"/>
      <point x="112" y="380"/>
      <point x="96" y="393" type="curve"/>
      <point x="96" y="419" type="line"/>
      <point x="55" y="419" type="line"/>
      <point x="55" y="378" type="line"/>
      <point x="80" y="350"/>
      <point x="124" y="335"/>
      <point x="167" y="335" type="curve" smooth="yes"/>
    </contour>
  </outline>
</glyph>
<glyph name="acute" format="1">
  <advance width="274"/>
  <unicode hex="00B4"/>
  <note>
	acute
  </note>
  <outline>
    <contour>
      <point x="103" y="543" type="line"/>
      <point x="219" y="721" type="line"/>
      <point x="140" y="721" type="line"/>
      <point x="55" y="543" type="line"/>
    </contour>
  </outline>
</glyph>
<glyph name="paragraph" format="1">
  <advance width="623"/>
  <unicode hex="00B6"/>
  <note>
	paragraph
  </note>
  <outline>
    <contour>
      <point x="305" y="-156" type="line"/>
      <point x="305" y="604" type="line"/>
      <point x="446" y="604" type="line"/>
      <point x="446" y="-156" type="line"/>
      <point x="568" y="-156" type="line"/>
      <point x="568" y="-111" type="line"/>
      <point x="537" y="-111" type="line" smooth="yes"/>
      <point x="506" y="-111"/>
      <point x="499" y="-100"/>
      <point x="499" y="-75" type="curve" smooth="yes"/>
      <point x="499" y="568" type="line" smooth="yes"/>
      <point x="499" y="593"/>
      <point x="506" y="604"/>
      <point x="537" y="604" type="curve" smooth="yes"/>
      <point x="558" y="604" type="line"/>
      <point x="558" y="647" type="line"/>
      <point x="264" y="647" type="line" smooth="yes"/>
      <point x="121" y="647"/>
      <point x="55" y="591"/>
      <point x="55" y="478" type="curve" smooth="yes"/>
      <point x="55" y="381"/>
      <point x="119" y="319"/>
      <point x="252" y="319" type="curve"/>
      <point x="252" y="-75" type="line" smooth="yes"/>
      <point x="252" y="-100"/>
      <point x="245" y="-111"/>
      <point x="214" y="-111" type="curve" smooth="yes"/>
      <point x="183" y="-111" type="line"/>
      <point x="183" y="-156" type="line"/>
    </contour>
  </outline>
</glyph>
<glyph name="periodcentered" format="1">
  <advance width="179"/>
  <unicode hex="00B7"/>
  <note>
	periodcentered
  </note>
  <outline>
    <contour>
      <point x="124" y="272" type="line"/>
      <point x="124" y="341" type="line"/>
      <point x="55" y="341" type="line"/>
      <point x="55" y="272" type="line"/>
    </contour>
  </outline>
</glyph>
<glyph name="cedilla" format="1">
  <advance width="280"/>
  <unicode hex="00B8"/>
  <note>
	cedilla
  </note>
  <outline>
    <contour>
      <point x="182" y="-228"/>
      <point x="225" y="-198"/>
      <point x="225" y="-139" type="curve" smooth="yes"/>
      <point x="225" y="-94"/>
      <point x="205" y="-62"/>
      <point x="140" y="-53" type="curve"/>
      <point x="148" y="0" type="line"/>
      <point x="103" y="0" type="line"/>
      <point x="90" y="-86" type="line"/>
      <point x="167" y="-86"/>
      <point x="182" y="-101"/>
      <point x="182" y="-141" type="curve" smooth="yes"/>
      <point x="182" y="-174"/>
      <point x="156" y="-188"/>
      <point x="108" y="-188" type="curve" smooth="yes"/>
      <point x="84" y="-188"/>
      <point x="66" y="-183"/>
      <point x="55" y="-180" type="curve"/>
      <point x="55" y="-219" type="line"/>
      <point x="71" y="-224"/>
      <point x="90" y="-228"/>
      <point x="109" y="-228" type="curve" smooth="yes"/>
    </contour>
  </outline>
</glyph>
<glyph name="onesuperior" format="1">
  <advance width="292"/>
  <unicode hex="00B9"/>
  <note>
	onesuperior
  </note>
  <outline>
    <contour>
      <point x="247" y="345" type="line"/>
      <point x="247" y="381" type="line"/>
      <point x="212" y="381" type="line" smooth="yes"/>
      <point x="181" y="381"/>
      <point x="179" y="387"/>
      <point x="179" y="412" type="curve" smooth="yes"/>
      <point x="179" y="657" type="line"/>
      <point x="135" y="657" type="line"/>
      <point x="45" y="599" type="line"/>
      <point x="68" y="566" type="line"/>
      <point x="137" y="613" type="line"/>
      <point x="137" y="412" type="line" smooth="yes"/>
      <point x="137" y="387"/>
      <point x="135" y="381"/>
      <point x="104" y="381" type="curve" smooth="yes"/>
      <point x="69" y="381" type="line"/>
      <point x="69" y="345" type="line"/>
    </contour>
  </outline>
</glyph>
<glyph name="ordmasculine" format="1">
  <advance width="410"/>
  <unicode hex="00BA"/>
  <note>
	ordmasculine
  </note>
  <outline>
    <contour>
      <point x="308" y="335"/>
      <point x="355" y="403"/>
      <point x="355" y="498" type="curve" smooth="yes"/>
      <point x="355" y="593"/>
      <point x="308" y="662"/>
      <point x="205" y="662" type="curve" smooth="yes"/>
      <point x="102" y="662"/>
      <point x="55" y="593"/>
      <point x="55" y="498" type="curve" smooth="yes"/>
      <point x="55" y="403"/>
      <point x="102" y="335"/>
      <point x="205" y="335" type="curve" smooth="yes"/>
    </contour>
    <contour>
      <point x="134" y="373"/>
      <point x="97" y="413"/>
      <point x="97" y="498" type="curve" smooth="yes"/>
      <point x="97" y="582"/>
      <point x="134" y="624"/>
      <point x="205" y="624" type="curve" smooth="yes"/>
      <point x="276" y="624"/>
      <point x="313" y="582"/>
      <point x="313" y="498" type="curve" smooth="yes"/>
      <point x="313" y="413"/>
      <point x="276" y="373"/>
      <point x="205" y="373" type="curve" smooth="yes"/>
    </contour>
  </outline>
</glyph>
<glyph name="guillemetright" format="1">
  <advance width="558"/>
  <unicode hex="00BB"/>
  <note>
	guillemotright
  </note>
  <outline>
    <contour>
      <point x="503" y="298" type="line"/>
      <point x="503" y="348" type="line"/>
      <point x="255" y="561" type="line"/>
      <point x="255" y="504" type="line"/>
      <point x="462" y="323" type="line"/>
      <point x="255" y="142" type="line"/>
      <point x="255" y="85" type="line"/>
    </contour>
    <contour>
      <point x="303" y="298" type="line"/>
      <point x="303" y="348" type="line"/>
      <point x="55" y="561" type="line"/>
      <point x="55" y="504" type="line"/>
      <point x="262" y="323" type="line"/>
      <point x="55" y="142" type="line"/>
      <point x="55" y="85" type="line"/>
    </contour>
  </outline>
</glyph>
<glyph name="onequarter" format="1">
  <advance width="609"/>
  <unicode hex="00BC"/>
  <note>
	onequarter
  </note>
  <outline>
    <contour>
      <point x="141" y="0" type="line"/>
      <point x="552" y="647" type="line"/>
      <point x="499" y="647" type="line"/>
      <point x="88" y="0" type="line"/>
    </contour>
    <contour>
      <point x="544" y="0" type="line"/>
      <point x="544" y="36" type="line"/>
      <point x="514" y="36" type="line" smooth="yes"/>
      <point x="498" y="36"/>
      <point x="495" y="41"/>
      <point x="495" y="53" type="curve" smooth="yes"/>
      <point x="495" y="83" type="line"/>
      <point x="554" y="83" type="line"/>
      <point x="554" y="119" type="line"/>
      <point x="495" y="119" type="line"/>
      <point x="495" y="312" type="line"/>
      <point x="449" y="312" type="line"/>
      <point x="298" y="119" type="line"/>
      <point x="298" y="83" type="line"/>
      <point x="453" y="83" type="line"/>
      <point x="453" y="53" type="line" smooth="yes"/>
      <point x="453" y="41"/>
      <point x="450" y="36"/>
      <point x="435" y="36" type="curve" smooth="yes"/>
      <point x="404" y="36" type="line"/>
      <point x="404" y="0" type="line"/>
    </contour>
    <contour>
      <point x="453" y="261" type="line"/>
      <point x="453" y="119" type="line"/>
      <point x="344" y="119" type="line"/>
    </contour>
    <contour>
      <point x="257" y="345" type="line"/>
      <point x="257" y="381" type="line"/>
      <point x="222" y="381" type="line" smooth="yes"/>
      <point x="191" y="381"/>
      <point x="189" y="387"/>
      <point x="189" y="412" type="curve" smooth="yes"/>
      <point x="189" y="657" type="line"/>
      <point x="145" y="657" type="line"/>
      <point x="55" y="599" type="line"/>
      <point x="78" y="566" type="line"/>
      <point x="147" y="613" type="line"/>
      <point x="147" y="412" type="line" smooth="yes"/>
      <point x="147" y="387"/>
      <point x="145" y="381"/>
      <point x="114" y="381" type="curve" smooth="yes"/>
      <point x="79" y="381" type="line"/>
      <point x="79" y="345" type="line"/>
    </contour>
  </outline>
</glyph>
<glyph name="onehalf" format="1">
  <advance width="641"/>
  <unicode hex="00BD"/>
  <note>
	onehalf
  </note>
  <outline>
    <contour>
      <point x="141" y="0" type="line"/>
      <point x="552" y="647" type="line"/>
      <point x="499" y="647" type="line"/>
      <point x="88" y="0" type="line"/>
    </contour>
    <contour>
      <point x="586" y="0" type="line"/>
      <point x="586" y="38" type="line"/>
      <point x="405" y="38" type="line"/>
      <point x="405" y="69"/>
      <point x="436" y="88"/>
      <point x="482" y="116" type="curve" smooth="yes"/>
      <point x="556" y="161"/>
      <point x="583" y="181"/>
      <point x="583" y="229" type="curve" smooth="yes"/>
      <point x="583" y="283"/>
      <point x="544" y="317"/>
      <point x="471" y="317" type="curve" smooth="yes"/>
      <point x="434" y="317"/>
      <point x="387" y="303"/>
      <point x="362" y="285" type="curve"/>
      <point x="362" y="239" type="line"/>
      <point x="403" y="239" type="line"/>
      <point x="403" y="264" type="line"/>
      <point x="420" y="274"/>
      <point x="446" y="279"/>
      <point x="471" y="279" type="curve" smooth="yes"/>
      <point x="518" y="279"/>
      <point x="541" y="266"/>
      <point x="541" y="229" type="curve" smooth="yes"/>
      <point x="541" y="192"/>
      <point x="521" y="181"/>
      <point x="469" y="151" type="curve" smooth="yes"/>
      <point x="411" y="117"/>
      <point x="362" y="86"/>
      <point x="362" y="33" type="curve" smooth="yes"/>
      <point x="362" y="0" type="line"/>
    </contour>
    <contour>
      <point x="257" y="345" type="line"/>
      <point x="257" y="381" type="line"/>
      <point x="222" y="381" type="line" smooth="yes"/>
      <point x="191" y="381"/>
      <point x="189" y="387"/>
      <point x="189" y="412" type="curve" smooth="yes"/>
      <point x="189" y="657" type="line"/>
      <point x="145" y="657" type="line"/>
      <point x="55" y="599" type="line"/>
      <point x="78" y="566" type="line"/>
      <point x="147" y="613" type="line"/>
      <point x="147" y="412" type="line" smooth="yes"/>
      <point x="147" y="387"/>
      <point x="145" y="381"/>
      <point x="114" y="381" type="curve" smooth="yes"/>
      <point x="79" y="381" type="line"/>
      <point x="79" y="345" type="line"/>
    </contour>
  </outline>
</glyph>
<glyph name="threequarters" format="1">
  <advance width="616"/>
  <unicode hex="00BE"/>
  <note>
	threequarters
  </note>
  <outline>
    <contour>
      <point x="148" y="0" type="line"/>
      <point x="559" y="647" type="line"/>
      <point x="506" y="647" type="line"/>
      <point x="95" y="0" type="line"/>
    </contour>
    <contour>
      <point x="551" y="0" type="line"/>
      <point x="551" y="36" type="line"/>
      <point x="521" y="36" type="line" smooth="yes"/>
      <point x="505" y="36"/>
      <point x="502" y="41"/>
      <point x="502" y="53" type="curve" smooth="yes"/>
      <point x="502" y="83" type="line"/>
      <point x="561" y="83" type="line"/>
      <point x="561" y="119" type="line"/>
      <point x="502" y="119" type="line"/>
      <point x="502" y="312" type="line"/>
      <point x="456" y="312" type="line"/>
      <point x="305" y="119" type="line"/>
      <point x="305" y="83" type="line"/>
      <point x="460" y="83" type="line"/>
      <point x="460" y="53" type="line" smooth="yes"/>
      <point x="460" y="41"/>
      <point x="457" y="36"/>
      <point x="442" y="36" type="curve" smooth="yes"/>
      <point x="411" y="36" type="line"/>
      <point x="411" y="0" type="line"/>
    </contour>
    <contour>
      <point x="460" y="261" type="line"/>
      <point x="460" y="119" type="line"/>
      <point x="351" y="119" type="line"/>
    </contour>
    <contour>
      <point x="238" y="335"/>
      <point x="290" y="365"/>
      <point x="290" y="432" type="curve" smooth="yes"/>
      <point x="290" y="474"/>
      <point x="271" y="493"/>
      <point x="240" y="503" type="curve"/>
      <point x="270" y="518"/>
      <point x="283" y="546"/>
      <point x="283" y="578" type="curve" smooth="yes"/>
      <point x="283" y="632"/>
      <point x="239" y="662"/>
      <point x="169" y="662" type="curve" smooth="yes"/>
      <point x="128" y="662"/>
      <point x="85" y="645"/>
      <point x="61" y="627" type="curve"/>
      <point x="61" y="579" type="line"/>
      <point x="102" y="579" type="line"/>
      <point x="102" y="606" type="line"/>
      <point x="118" y="616"/>
      <point x="144" y="624"/>
      <point x="175" y="624" type="curve" smooth="yes"/>
      <point x="217" y="624"/>
      <point x="242" y="609"/>
      <point x="242" y="578" type="curve" smooth="yes"/>
      <point x="242" y="537"/>
      <point x="226" y="521"/>
      <point x="179" y="521" type="curve" smooth="yes"/>
      <point x="137" y="521" type="line"/>
      <point x="137" y="485" type="line"/>
      <point x="177" y="485" type="line" smooth="yes"/>
      <point x="228" y="485"/>
      <point x="249" y="472"/>
      <point x="249" y="432" type="curve" smooth="yes"/>
      <point x="249" y="387"/>
      <point x="215" y="373"/>
      <point x="167" y="373" type="curve" smooth="yes"/>
      <point x="136" y="373"/>
      <point x="112" y="380"/>
      <point x="96" y="393" type="curve"/>
      <point x="96" y="419" type="line"/>
      <point x="55" y="419" type="line"/>
      <point x="55" y="378" type="line"/>
      <point x="80" y="350"/>
      <point x="124" y="335"/>
      <point x="167" y="335" type="curve" smooth="yes"/>
    </contour>
  </outline>
</glyph>
<glyph name="questiondown" format="1">
  <advance width="521"/>
  <unicode hex="00BF"/>
  <note>
	questiondown
  </note>
  <outline>
    <contour>
      <point x="340" y="-167"/>
      <point x="420" y="-141"/>
      <point x="466" y="-107" type="curve"/>
      <point x="466" y="-29" type="line"/>
      <point x="413" y="-29" type="line"/>
      <point x="413" y="-84" type="line"/>
      <point x="379" y="-106"/>
      <point x="322" y="-121"/>
      <point x="264" y="-121" type="curve" smooth="yes"/>
      <point x="173" y="-121"/>
      <point x="106" y="-93"/>
      <point x="106" y="-8" type="curve" smooth="yes"/>
      <point x="106" y="69"/>
      <point x="133" y="94"/>
      <point x="211" y="130" type="curve" smooth="yes"/>
      <point x="301" y="171"/>
      <point x="331" y="228"/>
      <point x="331" y="315" type="curve" smooth="yes"/>
      <point x="331" y="347" type="line"/>
      <point x="278" y="347" type="line"/>
      <point x="278" y="315" type="line" smooth="yes"/>
      <point x="278" y="253"/>
      <point x="269" y="210"/>
      <point x="202" y="177" type="curve" smooth="yes"/>
      <point x="92" y="123"/>
      <point x="55" y="86"/>
      <point x="55" y="-8" type="curve" smooth="yes"/>
      <point x="55" y="-120"/>
      <point x="147" y="-167"/>
      <point x="265" y="-167" type="curve" smooth="yes"/>
    </contour>
    <contour>
      <point x="339" y="426" type="line"/>
      <point x="339" y="495" type="line"/>
      <point x="270" y="495" type="line"/>
      <point x="270" y="426" type="line"/>
    </contour>
  </outline>
</glyph>
<glyph name="Acircumflex" format="1">
  <advance width="724"/>
  <unicode hex="00C2"/>
  <note>
	Acircumflex
  </note>
  <outline>
    <contour>
      <point x="231" y="0" type="line"/>
      <point x="231" y="45" type="line"/>
      <point x="173" y="45" type="line"/>
      <point x="232" y="209" type="line"/>
      <point x="492" y="209" type="line"/>
      <point x="551" y="45" type="line"/>
      <point x="493" y="45" type="line"/>
      <point x="493" y="0" type="line"/>
      <point x="679" y="0" type="line"/>
      <point x="679" y="45" type="line"/>
      <point x="644" y="45" type="line" smooth="yes"/>
      <point x="619" y="45"/>
      <point x="599" y="56"/>
      <point x="590" y="81" type="curve" smooth="yes"/>
      <point x="387" y="647" type="line"/>
      <point x="338" y="647" type="line"/>
      <point x="134" y="81" type="line" smooth="yes"/>
      <point x="125" y="56"/>
      <point x="105" y="45"/>
      <point x="80" y="45" type="curve" smooth="yes"/>
      <point x="45" y="45" type="line"/>
      <point x="45" y="0" type="line"/>
    </contour>
    <contour>
      <point x="362" y="572" type="line"/>
      <point x="476" y="254" type="line"/>
      <point x="248" y="254" type="line"/>
    </contour>
    <contour>
      <point x="271" y="703" type="line"/>
      <point x="362" y="842" type="line"/>
      <point x="454" y="703" type="line"/>
      <point x="512" y="703" type="line"/>
      <point x="397" y="881" type="line"/>
      <point x="328" y="881" type="line"/>
      <point x="213" y="703" type="line"/>
    </contour>
  </outline>
</glyph>
<glyph name="Atilde" format="1">
  <advance width="724"/>
  <unicode hex="00C3"/>
  <note>
	Atilde
  </note>
  <outline>
    <contour>
      <point x="231" y="0" type="line"/>
      <point x="231" y="45" type="line"/>
      <point x="173" y="45" type="line"/>
      <point x="232" y="209" type="line"/>
      <point x="492" y="209" type="line"/>
      <point x="551" y="45" type="line"/>
      <point x="493" y="45" type="line"/>
      <point x="493" y="0" type="line"/>
      <point x="679" y="0" type="line"/>
      <point x="679" y="45" type="line"/>
      <point x="644" y="45" type="line" smooth="yes"/>
      <point x="619" y="45"/>
      <point x="599" y="56"/>
      <point x="590" y="81" type="curve" smooth="yes"/>
      <point x="387" y="647" type="line"/>
      <point x="338" y="647" type="line"/>
      <point x="134" y="81" type="line" smooth="yes"/>
      <point x="125" y="56"/>
      <point x="105" y="45"/>
      <point x="80" y="45" type="curve" smooth="yes"/>
      <point x="45" y="45" type="line"/>
      <point x="45" y="0" type="line"/>
    </contour>
    <contour>
      <point x="362" y="572" type="line"/>
      <point x="476" y="254" type="line"/>
      <point x="248" y="254" type="line"/>
    </contour>
    <contour>
      <point x="234" y="703" type="line"/>
      <point x="234" y="752"/>
      <point x="250" y="762"/>
      <point x="279" y="762" type="curve" smooth="yes"/>
      <point x="339" y="762"/>
      <point x="380" y="703"/>
      <point x="446" y="703" type="curve" smooth="yes"/>
      <point x="504" y="703"/>
      <point x="538" y="734"/>
      <point x="538" y="808" type="curve"/>
      <point x="491" y="808" type="line"/>
      <point x="491" y="759"/>
      <point x="475" y="749"/>
      <point x="446" y="749" type="curve" smooth="yes"/>
      <point x="393" y="749"/>
      <point x="350" y="808"/>
      <point x="279" y="808" type="curve" smooth="yes"/>
      <point x="221" y="808"/>
      <point x="187" y="777"/>
      <point x="187" y="703" type="curve"/>
    </contour>
  </outline>
</glyph>
<glyph name="Aring" format="1">
  <advance width="724"/>
  <unicode hex="00C5"/>
  <note>
	Aring
  </note>
  <outline>
    <contour>
      <point x="231" y="0" type="line"/>
      <point x="231" y="45" type="line"/>
      <point x="173" y="45" type="line"/>
      <point x="232" y="209" type="line"/>
      <point x="492" y="209" type="line"/>
      <point x="551" y="45" type="line"/>
      <point x="493" y="45" type="line"/>
      <point x="493" y="0" type="line"/>
      <point x="679" y="0" type="line"/>
      <point x="679" y="45" type="line"/>
      <point x="644" y="45" type="line" smooth="yes"/>
      <point x="619" y="45"/>
      <point x="599" y="56"/>
      <point x="590" y="81" type="curve" smooth="yes"/>
      <point x="387" y="647" type="line"/>
      <point x="338" y="647" type="line"/>
      <point x="134" y="81" type="line" smooth="yes"/>
      <point x="125" y="56"/>
      <point x="105" y="45"/>
      <point x="80" y="45" type="curve" smooth="yes"/>
      <point x="45" y="45" type="line"/>
      <point x="45" y="0" type="line"/>
    </contour>
    <contour>
      <point x="362" y="572" type="line"/>
      <point x="476" y="254" type="line"/>
      <point x="248" y="254" type="line"/>
    </contour>
    <contour>
      <point x="422" y="604"/>
      <point x="470" y="651"/>
      <point x="470" y="711" type="curve" smooth="yes"/>
      <point x="470" y="771"/>
      <point x="422" y="819"/>
      <point x="362" y="819" type="curve" smooth="yes"/>
      <point x="302" y="819"/>
      <point x="255" y="771"/>
      <point x="255" y="711" type="curve" smooth="yes"/>
      <point x="255" y="651"/>
      <point x="302" y="604"/>
      <point x="362" y="604" type="curve" smooth="yes"/>
    </contour>
    <contour>
      <point x="325" y="647"/>
      <point x="298" y="674"/>
      <point x="298" y="711" type="curve" smooth="yes"/>
      <point x="298" y="748"/>
      <point x="325" y="776"/>
      <point x="362" y="776" type="curve" smooth="yes"/>
      <point x="399" y="776"/>
      <point x="427" y="748"/>
      <point x="427" y="711" type="curve" smooth="yes"/>
      <point x="427" y="674"/>
      <point x="399" y="647"/>
      <point x="362" y="647" type="curve" smooth="yes"/>
    </contour>
  </outline>
</glyph>
<glyph name="Ccedilla" format="1">
  <advance width="595"/>
  <unicode hex="00C7"/>
  <note>
	Ccedilla
  </note>
  <outline>
    <contour>
      <point x="429" y="-15"/>
      <point x="489" y="-4"/>
      <point x="540" y="27" type="curve"/>
      <point x="516" y="66" type="line"/>
      <point x="473" y="41"/>
      <point x="423" y="31"/>
      <point x="359" y="31" type="curve" smooth="yes"/>
      <point x="207" y="31"/>
      <point x="96" y="140"/>
      <point x="96" y="321" type="curve" smooth="yes"/>
      <point x="96" y="506"/>
      <point x="194" y="616"/>
      <point x="353" y="616" type="curve" smooth="yes"/>
      <point x="414" y="616"/>
      <point x="461" y="607"/>
      <point x="497" y="588" type="curve"/>
      <point x="497" y="533" type="line"/>
      <point x="550" y="533" type="line"/>
      <point x="550" y="611" type="line"/>
      <point x="504" y="644"/>
      <point x="438" y="662"/>
      <point x="353" y="662" type="curve" smooth="yes"/>
      <point x="145" y="662"/>
      <point x="45" y="515"/>
      <point x="45" y="321" type="curve" smooth="yes"/>
      <point x="45" y="127"/>
      <point x="158" y="-15"/>
      <point x="359" y="-15" type="curve" smooth="yes"/>
    </contour>
    <contour>
      <point x="409" y="-228"/>
      <point x="452" y="-198"/>
      <point x="452" y="-139" type="curve" smooth="yes"/>
      <point x="452" y="-94"/>
      <point x="432" y="-62"/>
      <point x="367" y="-53" type="curve"/>
      <point x="375" y="0" type="line"/>
      <point x="330" y="0" type="line"/>
      <point x="317" y="-86" type="line"/>
      <point x="394" y="-86"/>
      <point x="409" y="-101"/>
      <point x="409" y="-141" type="curve" smooth="yes"/>
      <point x="409" y="-174"/>
      <point x="383" y="-188"/>
      <point x="335" y="-188" type="curve" smooth="yes"/>
      <point x="311" y="-188"/>
      <point x="293" y="-183"/>
      <point x="282" y="-180" type="curve"/>
      <point x="282" y="-219" type="line"/>
      <point x="298" y="-224"/>
      <point x="317" y="-228"/>
      <point x="336" y="-228" type="curve" smooth="yes"/>
    </contour>
  </outline>
</glyph>
<glyph name="Eacute" format="1">
  <advance width="543"/>
  <unicode hex="00C9"/>
  <note>
	Eacute
  </note>
  <outline>
    <contour>
      <point x="498" y="0" type="line"/>
      <point x="498" y="104" type="line"/>
      <point x="450" y="104" type="line"/>
      <point x="450" y="79" type="line" smooth="yes"/>
      <point x="450" y="54"/>
      <point x="441" y="45"/>
      <point x="414" y="45" type="curve" smooth="yes"/>
      <point x="167" y="45" type="line"/>
      <point x="167" y="302" type="line"/>
      <point x="378" y="302" type="line"/>
      <point x="378" y="347" type="line"/>
      <point x="167" y="347" type="line"/>
      <point x="167" y="602" type="line"/>
      <point x="414" y="602" type="line" smooth="yes"/>
      <point x="441" y="602"/>
      <point x="450" y="593"/>
      <point x="450" y="568" type="curve" smooth="yes"/>
      <point x="450" y="544" type="line"/>
      <point x="498" y="544" type="line"/>
      <point x="498" y="647" type="line"/>
      <point x="45" y="647" type="line"/>
      <point x="45" y="602" type="line"/>
      <point x="80" y="602" type="line" smooth="yes"/>
      <point x="105" y="602"/>
      <point x="114" y="593"/>
      <point x="114" y="566" type="curve" smooth="yes"/>
      <point x="114" y="81" type="line" smooth="yes"/>
      <point x="114" y="54"/>
      <point x="105" y="45"/>
      <point x="80" y="45" type="curve" smooth="yes"/>
      <point x="45" y="45" type="line"/>
      <point x="45" y="0" type="line"/>
    </contour>
    <contour>
      <point x="292" y="703" type="line"/>
      <point x="408" y="881" type="line"/>
      <point x="329" y="881" type="line"/>
      <point x="244" y="703" type="line"/>
    </contour>
  </outline>
</glyph>
<glyph name="Ntilde" format="1">
  <advance width="686"/>
  <unicode hex="00D1"/>
  <note>
	Ntilde
  </note>
  <outline>
    <contour>
      <point x="236" y="0" type="line"/>
      <point x="236" y="45" type="line"/>
      <point x="201" y="45" type="line" smooth="yes"/>
      <point x="176" y="45"/>
      <point x="167" y="54"/>
      <point x="167" y="81" type="curve" smooth="yes"/>
      <point x="167" y="553" type="line"/>
      <point x="524" y="0" type="line"/>
      <point x="572" y="0" type="line"/>
      <point x="572" y="566" type="line" smooth="yes"/>
      <point x="572" y="593"/>
      <point x="581" y="602"/>
      <point x="606" y="602" type="curve" smooth="yes"/>
      <point x="641" y="602" type="line"/>
      <point x="641" y="647" type="line"/>
      <point x="450" y="647" type="line"/>
      <point x="450" y="602" type="line"/>
      <point x="485" y="602" type="line" smooth="yes"/>
      <point x="510" y="602"/>
      <point x="519" y="593"/>
      <point x="519" y="566" type="curve" smooth="yes"/>
      <point x="519" y="94" type="line"/>
      <point x="162" y="647" type="line"/>
      <point x="45" y="647" type="line"/>
      <point x="45" y="602" type="line"/>
      <point x="80" y="602" type="line" smooth="yes"/>
      <point x="105" y="602"/>
      <point x="114" y="593"/>
      <point x="114" y="566" type="curve" smooth="yes"/>
      <point x="114" y="81" type="line" smooth="yes"/>
      <point x="114" y="54"/>
      <point x="105" y="45"/>
      <point x="80" y="45" type="curve" smooth="yes"/>
      <point x="45" y="45" type="line"/>
      <point x="45" y="0" type="line"/>
    </contour>
    <contour>
      <point x="214" y="703" type="line"/>
      <point x="214" y="752"/>
      <point x="230" y="762"/>
      <point x="259" y="762" type="curve" smooth="yes"/>
      <point x="319" y="762"/>
      <point x="360" y="703"/>
      <point x="426" y="703" type="curve" smooth="yes"/>
      <point x="484" y="703"/>
      <point x="518" y="734"/>
      <point x="518" y="808" type="curve"/>
      <point x="471" y="808" type="line"/>
      <point x="471" y="759"/>
      <point x="455" y="749"/>
      <point x="426" y="749" type="curve" smooth="yes"/>
      <point x="373" y="749"/>
      <point x="330" y="808"/>
      <point x="259" y="808" type="curve" smooth="yes"/>
      <point x="201" y="808"/>
      <point x="167" y="777"/>
      <point x="167" y="703" type="curve"/>
    </contour>
  </outline>
</glyph>
<glyph name="Ograve" format="1">
  <advance width="652"/>
  <unicode hex="00D2"/>
  <note>
	Ograve
  </note>
  <outline>
    <contour>
      <point x="517" y="-15"/>
      <point x="607" y="97"/>
      <point x="607" y="321" type="curve" smooth="yes"/>
      <point x="607" y="545"/>
      <point x="524" y="662"/>
      <point x="326" y="662" type="curve" smooth="yes"/>
      <point x="128" y="662"/>
      <point x="45" y="545"/>
      <point x="45" y="321" type="curve" smooth="yes"/>
      <point x="45" y="97"/>
      <point x="135" y="-15"/>
      <point x="326" y="-15" type="curve" smooth="yes"/>
    </contour>
    <contour>
      <point x="179" y="31"/>
      <point x="96" y="110"/>
      <point x="96" y="321" type="curve" smooth="yes"/>
      <point x="96" y="536"/>
      <point x="177" y="616"/>
      <point x="326" y="616" type="curve" smooth="yes"/>
      <point x="475" y="616"/>
      <point x="556" y="536"/>
      <point x="556" y="321" type="curve" smooth="yes"/>
      <point x="556" y="110"/>
      <point x="473" y="31"/>
      <point x="326" y="31" type="curve" smooth="yes"/>
    </contour>
    <contour>
      <point x="354" y="703" type="line"/>
      <point x="269" y="881" type="line"/>
      <point x="190" y="881" type="line"/>
      <point x="306" y="703" type="line"/>
    </contour>
  </outline>
</glyph>
<glyph name="Oacute" format="1">
  <advance width="652"/>
  <unicode hex="00D3"/>
  <note>
	Oacute
  </note>
  <outline>
    <contour>
      <point x="517" y="-15"/>
      <point x="607" y="97"/>
      <point x="607" y="321" type="curve" smooth="yes"/>
      <point x="607" y="545"/>
      <point x="524" y="662"/>
      <point x="326" y="662" type="curve" smooth="yes"/>
      <point x="128" y="662"/>
      <point x="45" y="545"/>
      <point x="45" y="321" type="curve" smooth="yes"/>
      <point x="45" y="97"/>
      <point x="135" y="-15"/>
      <point x="326" y="-15" type="curve" smooth="yes"/>
    </contour>
    <contour>
      <point x="179" y="31"/>
      <point x="96" y="110"/>
      <point x="96" y="321" type="curve" smooth="yes"/>
      <point x="96" y="536"/>
      <point x="177" y="616"/>
      <point x="326" y="616" type="curve" smooth="yes"/>
      <point x="475" y="616"/>
      <point x="556" y="536"/>
      <point x="556" y="321" type="curve" smooth="yes"/>
      <point x="556" y="110"/>
      <point x="473" y="31"/>
      <point x="326" y="31" type="curve" smooth="yes"/>
    </contour>
    <contour>
      <point x="336" y="703" type="line"/>
      <point x="452" y="881" type="line"/>
      <point x="373" y="881" type="line"/>
      <point x="288" y="703" type="line"/>
    </contour>
  </outline>
</glyph>
<glyph name="Otilde" format="1">
  <advance width="652"/>
  <unicode hex="00D5"/>
  <note>
	Otilde
  </note>
  <outline>
    <contour>
      <point x="517" y="-15"/>
      <point x="607" y="97"/>
      <point x="607" y="321" type="curve" smooth="yes"/>
      <point x="607" y="545"/>
      <point x="524" y="662"/>
      <point x="326" y="662" type="curve" smooth="yes"/>
      <point x="128" y="662"/>
      <point x="45" y="545"/>
      <point x="45" y="321" type="curve" smooth="yes"/>
      <point x="45" y="97"/>
      <point x="135" y="-15"/>
      <point x="326" y="-15" type="curve" smooth="yes"/>
    </contour>
    <contour>
      <point x="179" y="31"/>
      <point x="96" y="110"/>
      <point x="96" y="321" type="curve" smooth="yes"/>
      <point x="96" y="536"/>
      <point x="177" y="616"/>
      <point x="326" y="616" type="curve" smooth="yes"/>
      <point x="475" y="616"/>
      <point x="556" y="536"/>
      <point x="556" y="321" type="curve" smooth="yes"/>
      <point x="556" y="110"/>
      <point x="473" y="31"/>
      <point x="326" y="31" type="curve" smooth="yes"/>
    </contour>
    <contour>
      <point x="198" y="703" type="line"/>
      <point x="198" y="752"/>
      <point x="214" y="762"/>
      <point x="243" y="762" type="curve" smooth="yes"/>
      <point x="303" y="762"/>
      <point x="344" y="703"/>
      <point x="410" y="703" type="curve" smooth="yes"/>
      <point x="468" y="703"/>
      <point x="502" y="734"/>
      <point x="502" y="808" type="curve"/>
      <point x="455" y="808" type="line"/>
      <point x="455" y="759"/>
      <point x="439" y="749"/>
      <point x="410" y="749" type="curve" smooth="yes"/>
      <point x="357" y="749"/>
      <point x="314" y="808"/>
      <point x="243" y="808" type="curve" smooth="yes"/>
      <point x="185" y="808"/>
      <point x="151" y="777"/>
      <point x="151" y="703" type="curve"/>
    </contour>
  </outline>
</glyph>
<glyph name="multiply" format="1">
  <advance width="350"/>
  <unicode hex="00D7"/>
  <note>
	multiply
  </note>
  <outline>
    <contour>
      <point x="176" y="266" type="line"/>
      <point x="257" y="185" type="line"/>
      <point x="295" y="223" type="line"/>
      <point x="213" y="304" type="line"/>
      <point x="295" y="386" type="line"/>
      <point x="258" y="424" type="line"/>
      <point x="175" y="341" type="line"/>
      <point x="93" y="424" type="line"/>
      <point x="55" y="387" type="line"/>
      <point x="138" y="304" type="line"/>
      <point x="56" y="222" type="line"/>
      <point x="94" y="184" type="line"/>
    </contour>
  </outline>
</glyph>
<glyph name="Thorn" format="1">
  <advance width="615"/>
  <unicode hex="00DE"/>
  <note>
	Thorn
  </note>
  <outline>
    <contour>
      <point x="236" y="0" type="line"/>
      <point x="236" y="45" type="line"/>
      <point x="205" y="45" type="line" smooth="yes"/>
      <point x="174" y="45"/>
      <point x="167" y="56"/>
      <point x="167" y="81" type="curve" smooth="yes"/>
      <point x="167" y="128" type="line"/>
      <point x="376" y="128" type="line" smooth="yes"/>
      <point x="496" y="128"/>
      <point x="570" y="207"/>
      <point x="570" y="327" type="curve" smooth="yes"/>
      <point x="570" y="448"/>
      <point x="496" y="519"/>
      <point x="377" y="519" type="curve" smooth="yes"/>
      <point x="167" y="519" type="line"/>
      <point x="167" y="647" type="line"/>
      <point x="45" y="647" type="line"/>
      <point x="45" y="602" type="line"/>
      <point x="76" y="602" type="line" smooth="yes"/>
      <point x="107" y="602"/>
      <point x="114" y="591"/>
      <point x="114" y="566" type="curve" smooth="yes"/>
      <point x="114" y="81" type="line" smooth="yes"/>
      <point x="114" y="56"/>
      <point x="107" y="45"/>
      <point x="76" y="45" type="curve" smooth="yes"/>
      <point x="45" y="45" type="line"/>
      <point x="45" y="0" type="line"/>
    </contour>
    <contour>
      <point x="167" y="474" type="line"/>
      <point x="369" y="474" type="line" smooth="yes"/>
      <point x="470" y="474"/>
      <point x="519" y="439"/>
      <point x="519" y="327" type="curve" smooth="yes"/>
      <point x="519" y="221"/>
      <point x="466" y="173"/>
      <point x="369" y="173" type="curve" smooth="yes"/>
      <point x="167" y="173" type="line"/>
    </contour>
  </outline>
</glyph>
<glyph name="germandbls" format="1">
  <advance width="624"/>
  <unicode hex="00DF"/>
  <note>
	germandbls
  </note>
  <outline>
    <contour>
      <point x="518" y="-15"/>
      <point x="579" y="66"/>
      <point x="579" y="183" type="curve" smooth="yes"/>
      <point x="579" y="268"/>
      <point x="550" y="335"/>
      <point x="465" y="358" type="curve"/>
      <point x="532" y="383"/>
      <point x="563" y="459"/>
      <point x="563" y="526" type="curve" smooth="yes"/>
      <point x="563" y="633"/>
      <point x="488" y="712"/>
      <point x="337" y="712" type="curve" smooth="yes"/>
      <point x="179" y="712"/>
      <point x="114" y="624"/>
      <point x="114" y="502" type="curve" smooth="yes"/>
      <point x="114" y="81" type="line" smooth="yes"/>
      <point x="114" y="54"/>
      <point x="105" y="45"/>
      <point x="80" y="45" type="curve" smooth="yes"/>
      <point x="45" y="45" type="line"/>
      <point x="45" y="0" type="line"/>
      <point x="167" y="0" type="line"/>
      <point x="167" y="504" type="line" smooth="yes"/>
      <point x="167" y="615"/>
      <point x="221" y="667"/>
      <point x="337" y="667" type="curve" smooth="yes"/>
      <point x="454" y="667"/>
      <point x="512" y="619"/>
      <point x="512" y="526" type="curve" smooth="yes"/>
      <point x="512" y="446"/>
      <point x="475" y="378"/>
      <point x="373" y="378" type="curve" smooth="yes"/>
      <point x="318" y="378" type="line"/>
      <point x="318" y="333" type="line"/>
      <point x="382" y="333" type="line" smooth="yes"/>
      <point x="493" y="333"/>
      <point x="528" y="279"/>
      <point x="528" y="184" type="curve" smooth="yes"/>
      <point x="528" y="76"/>
      <point x="476" y="31"/>
      <point x="393" y="31" type="curve" smooth="yes"/>
      <point x="343" y="31"/>
      <point x="305" y="37"/>
      <point x="259" y="61" type="curve"/>
      <point x="238" y="21" type="line"/>
      <point x="286" y="-7"/>
      <point x="342" y="-15"/>
      <point x="393" y="-15" type="curve" smooth="yes"/>
    </contour>
  </outline>
</glyph>
<glyph name="adieresis" format="1">
  <advance width="518"/>
  <unicode hex="00E4"/>
  <note>
	adieresis
  </note>
  <outline>
    <contour>
      <point x="276" y="-15"/>
      <point x="338" y="9"/>
      <point x="376" y="61" type="curve"/>
      <point x="387" y="0" type="line"/>
      <point x="483" y="0" type="line"/>
      <point x="483" y="38" type="line"/>
      <point x="455" y="38" type="line" smooth="yes"/>
      <point x="432" y="38"/>
      <point x="423" y="49"/>
      <point x="423" y="78" type="curve" smooth="yes"/>
      <point x="423" y="329" type="line" smooth="yes"/>
      <point x="423" y="427"/>
      <point x="384" y="495"/>
      <point x="252" y="495" type="curve" smooth="yes"/>
      <point x="184" y="495"/>
      <point x="128" y="480"/>
      <point x="75" y="448" type="curve"/>
      <point x="75" y="387" type="line"/>
      <point x="128" y="387" type="line"/>
      <point x="128" y="424" type="line"/>
      <point x="163" y="441"/>
      <point x="198" y="449"/>
      <point x="254" y="449" type="curve" smooth="yes"/>
      <point x="345" y="449"/>
      <point x="370" y="413"/>
      <point x="370" y="330" type="curve" smooth="yes"/>
      <point x="370" y="265" type="line"/>
      <point x="196" y="253" type="line" smooth="yes"/>
      <point x="102" y="247"/>
      <point x="35" y="214"/>
      <point x="35" y="117" type="curve" smooth="yes"/>
      <point x="35" y="31"/>
      <point x="89" y="-15"/>
      <point x="188" y="-15" type="curve" smooth="yes"/>
    </contour>
    <contour>
      <point x="116" y="31"/>
      <point x="86" y="61"/>
      <point x="86" y="115" type="curve" smooth="yes"/>
      <point x="86" y="181"/>
      <point x="112" y="205"/>
      <point x="195" y="211" type="curve" smooth="yes"/>
      <point x="370" y="223" type="line"/>
      <point x="370" y="165" type="line" smooth="yes"/>
      <point x="370" y="71"/>
      <point x="295" y="31"/>
      <point x="200" y="31" type="curve" smooth="yes"/>
    </contour>
    <contour>
      <point x="183" y="549" type="line"/>
      <point x="183" y="617" type="line"/>
      <point x="115" y="617" type="line"/>
      <point x="115" y="549" type="line"/>
    </contour>
    <contour>
      <point x="372" y="549" type="line"/>
      <point x="372" y="617" type="line"/>
      <point x="304" y="617" type="line"/>
      <point x="304" y="549" type="line"/>
    </contour>
  </outline>
</glyph>
<glyph name="aring" format="1">
  <advance width="518"/>
  <unicode hex="00E5"/>
  <note>
	aring
  </note>
  <outline>
    <contour>
      <point x="276" y="-15"/>
      <point x="338" y="9"/>
      <point x="376" y="61" type="curve"/>
      <point x="387" y="0" type="line"/>
      <point x="483" y="0" type="line"/>
      <point x="483" y="38" type="line"/>
      <point x="455" y="38" type="line" smooth="yes"/>
      <point x="432" y="38"/>
      <point x="423" y="49"/>
      <point x="423" y="78" type="curve" smooth="yes"/>
      <point x="423" y="329" type="line" smooth="yes"/>
      <point x="423" y="427"/>
      <point x="384" y="495"/>
      <point x="252" y="495" type="curve" smooth="yes"/>
      <point x="184" y="495"/>
      <point x="128" y="480"/>
      <point x="75" y="448" type="curve"/>
      <point x="75" y="387" type="line"/>
      <point x="128" y="387" type="line"/>
      <point x="128" y="424" type="line"/>
      <point x="163" y="441"/>
      <point x="198" y="449"/>
      <point x="254" y="449" type="curve" smooth="yes"/>
      <point x="345" y="449"/>
      <point x="370" y="413"/>
      <point x="370" y="330" type="curve" smooth="yes"/>
      <point x="370" y="265" type="line"/>
      <point x="196" y="253" type="line" smooth="yes"/>
      <point x="102" y="247"/>
      <point x="35" y="214"/>
      <point x="35" y="117" type="curve" smooth="yes"/>
      <point x="35" y="31"/>
      <point x="89" y="-15"/>
      <point x="188" y="-15" type="curve" smooth="yes"/>
    </contour>
    <contour>
      <point x="116" y="31"/>
      <point x="86" y="61"/>
      <point x="86" y="115" type="curve" smooth="yes"/>
      <point x="86" y="181"/>
      <point x="112" y="205"/>
      <point x="195" y="211" type="curve" smooth="yes"/>
      <point x="370" y="223" type="line"/>
      <point x="370" y="165" type="line" smooth="yes"/>
      <point x="370" y="71"/>
      <point x="295" y="31"/>
      <point x="200" y="31" type="curve" smooth="yes"/>
    </contour>
    <contour>
      <point x="308" y="529"/>
      <point x="356" y="576"/>
      <point x="356" y="636" type="curve" smooth="yes"/>
      <point x="356" y="696"/>
      <point x="308" y="744"/>
      <point x="248" y="744" type="curve" smooth="yes"/>
      <point x="188" y="744"/>
      <point x="141" y="696"/>
      <point x="141" y="636" type="curve" smooth="yes"/>
      <point x="141" y="576"/>
      <point x="188" y="529"/>
      <point x="248" y="529" type="curve" smooth="yes"/>
    </contour>
    <contour>
      <point x="211" y="572"/>
      <point x="184" y="599"/>
      <point x="184" y="636" type="curve" smooth="yes"/>
      <point x="184" y="673"/>
      <point x="211" y="701"/>
      <point x="248" y="701" type="curve" smooth="yes"/>
      <point x="285" y="701"/>
      <point x="313" y="673"/>
      <point x="313" y="636" type="curve" smooth="yes"/>
      <point x="313" y="599"/>
      <point x="285" y="572"/>
      <point x="248" y="572" type="curve" smooth="yes"/>
    </contour>
  </outline>
</glyph>
<glyph name="ae" format="1">
  <advance width="869"/>
  <unicode hex="00E6"/>
  <note>
	ae
  </note>
  <outline>
    <contour>
      <point x="286" y="-15"/>
      <point x="379" y="17"/>
      <point x="415" y="98" type="curve"/>
      <point x="456" y="25"/>
      <point x="527" y="-15"/>
      <point x="614" y="-15" type="curve" smooth="yes"/>
      <point x="695" y="-15"/>
      <point x="751" y="1"/>
      <point x="807" y="36" type="curve"/>
      <point x="807" y="93" type="line"/>
      <point x="754" y="93" type="line"/>
      <point x="754" y="59" type="line"/>
      <point x="722" y="38"/>
      <point x="683" y="28"/>
      <point x="614" y="28" type="curve" smooth="yes"/>
      <point x="530" y="28"/>
      <point x="434" y="87"/>
      <point x="434" y="218" type="curve"/>
      <point x="824" y="218" type="line"/>
      <point x="824" y="263" type="line" smooth="yes"/>
      <point x="824" y="408"/>
      <point x="757" y="495"/>
      <point x="612" y="495" type="curve" smooth="yes"/>
      <point x="528" y="495"/>
      <point x="462" y="466"/>
      <point x="422" y="401" type="curve"/>
      <point x="399" y="461"/>
      <point x="358" y="495"/>
      <point x="262" y="495" type="curve" smooth="yes"/>
      <point x="194" y="495"/>
      <point x="138" y="480"/>
      <point x="85" y="448" type="curve"/>
      <point x="85" y="387" type="line"/>
      <point x="138" y="387" type="line"/>
      <point x="138" y="424" type="line"/>
      <point x="173" y="441"/>
      <point x="208" y="449"/>
      <point x="264" y="449" type="curve" smooth="yes"/>
      <point x="355" y="449"/>
      <point x="380" y="413"/>
      <point x="380" y="330" type="curve" smooth="yes"/>
      <point x="380" y="265" type="line"/>
      <point x="206" y="253" type="line" smooth="yes"/>
      <point x="112" y="247"/>
      <point x="45" y="214"/>
      <point x="45" y="117" type="curve" smooth="yes"/>
      <point x="45" y="31"/>
      <point x="99" y="-15"/>
      <point x="198" y="-15" type="curve" smooth="yes"/>
    </contour>
    <contour>
      <point x="126" y="31"/>
      <point x="96" y="61"/>
      <point x="96" y="115" type="curve" smooth="yes"/>
      <point x="96" y="181"/>
      <point x="122" y="205"/>
      <point x="205" y="211" type="curve" smooth="yes"/>
      <point x="380" y="223" type="line"/>
      <point x="380" y="165" type="line" smooth="yes"/>
      <point x="380" y="71"/>
      <point x="305" y="31"/>
      <point x="210" y="31" type="curve" smooth="yes"/>
    </contour>
    <contour>
      <point x="434" y="384"/>
      <point x="499" y="449"/>
      <point x="612" y="449" type="curve" smooth="yes"/>
      <point x="723" y="449"/>
      <point x="776" y="397"/>
      <point x="776" y="263" type="curve"/>
      <point x="434" y="263" type="line"/>
    </contour>
  </outline>
</glyph>
<glyph name="ccedilla" format="1">
  <advance width="508"/>
  <unicode hex="00E7"/>
  <note>
	ccedilla
  </note>
  <outline>
    <contour>
      <point x="360" y="-15"/>
      <point x="412" y="-4"/>
      <point x="463" y="27" type="curve"/>
      <point x="439" y="66" type="line"/>
      <point x="396" y="41"/>
      <point x="359" y="31"/>
      <point x="290" y="31" type="curve" smooth="yes"/>
      <point x="198" y="31"/>
      <point x="96" y="87"/>
      <point x="96" y="238" type="curve" smooth="yes"/>
      <point x="96" y="393"/>
      <point x="184" y="449"/>
      <point x="283" y="449" type="curve" smooth="yes"/>
      <point x="344" y="449"/>
      <point x="374" y="440"/>
      <point x="410" y="421" type="curve"/>
      <point x="410" y="366" type="line"/>
      <point x="463" y="366" type="line"/>
      <point x="463" y="444" type="line"/>
      <point x="417" y="477"/>
      <point x="368" y="495"/>
      <point x="283" y="495" type="curve" smooth="yes"/>
      <point x="135" y="495"/>
      <point x="45" y="402"/>
      <point x="45" y="238" type="curve" smooth="yes"/>
      <point x="45" y="74"/>
      <point x="154" y="-15"/>
      <point x="290" y="-15" type="curve" smooth="yes"/>
    </contour>
    <contour>
      <point x="347" y="-228"/>
      <point x="390" y="-198"/>
      <point x="390" y="-139" type="curve" smooth="yes"/>
      <point x="390" y="-94"/>
      <point x="370" y="-62"/>
      <point x="305" y="-53" type="curve"/>
      <point x="313" y="0" type="line"/>
      <point x="268" y="0" type="line"/>
      <point x="255" y="-86" type="line"/>
      <point x="332" y="-86"/>
      <point x="347" y="-101"/>
      <point x="347" y="-141" type="curve" smooth="yes"/>
      <point x="347" y="-174"/>
      <point x="321" y="-188"/>
      <point x="273" y="-188" type="curve" smooth="yes"/>
      <point x="249" y="-188"/>
      <point x="231" y="-183"/>
      <point x="220" y="-180" type="curve"/>
      <point x="220" y="-219" type="line"/>
      <point x="236" y="-224"/>
      <point x="255" y="-228"/>
      <point x="274" y="-228" type="curve" smooth="yes"/>
    </contour>
  </outline>
</glyph>
<glyph name="edieresis" format="1">
  <advance width="534"/>
  <unicode hex="00EB"/>
  <note>
	edieresis
  </note>
  <outline>
    <contour>
      <point x="360" y="-15"/>
      <point x="416" y="1"/>
      <point x="472" y="36" type="curve"/>
      <point x="472" y="93" type="line"/>
      <point x="419" y="93" type="line"/>
      <point x="419" y="59" type="line"/>
      <point x="387" y="38"/>
      <point x="348" y="28"/>
      <point x="279" y="28" type="curve" smooth="yes"/>
      <point x="186" y="28"/>
      <point x="99" y="80"/>
      <point x="99" y="218" type="curve"/>
      <point x="489" y="218" type="line"/>
      <point x="489" y="263" type="line" smooth="yes"/>
      <point x="489" y="403"/>
      <point x="422" y="495"/>
      <point x="277" y="495" type="curve" smooth="yes"/>
      <point x="132" y="495"/>
      <point x="45" y="409"/>
      <point x="45" y="232" type="curve" smooth="yes"/>
      <point x="45" y="65"/>
      <point x="150" y="-15"/>
      <point x="279" y="-15" type="curve" smooth="yes"/>
    </contour>
    <contour>
      <point x="99" y="374"/>
      <point x="158" y="449"/>
      <point x="277" y="449" type="curve" smooth="yes"/>
      <point x="392" y="449"/>
      <point x="441" y="387"/>
      <point x="441" y="263" type="curve"/>
      <point x="99" y="263" type="line"/>
    </contour>
    <contour>
      <point x="216" y="549" type="line"/>
      <point x="216" y="617" type="line"/>
      <point x="148" y="617" type="line"/>
      <point x="148" y="549" type="line"/>
    </contour>
    <contour>
      <point x="405" y="549" type="line"/>
      <point x="405" y="617" type="line"/>
      <point x="337" y="617" type="line"/>
      <point x="337" y="549" type="line"/>
    </contour>
  </outline>
</glyph>
<glyph name="iacute" format="1">
  <advance width="261"/>
  <unicode hex="00ED"/>
  <note>
	iacute
  </note>
  <outline>
    <contour>
      <point x="226" y="0" type="line"/>
      <point x="226" y="45" type="line"/>
      <point x="191" y="45" type="line" smooth="yes"/>
      <point x="166" y="45"/>
      <point x="157" y="54"/>
      <point x="157" y="81" type="curve" smooth="yes"/>
      <point x="157" y="480" type="line"/>
      <point x="35" y="480" type="line"/>
      <point x="35" y="435" type="line"/>
      <point x="70" y="435" type="line" smooth="yes"/>
      <point x="95" y="435"/>
      <point x="104" y="426"/>
      <point x="104" y="399" type="curve" smooth="yes"/>
      <point x="104" y="81" type="line" smooth="yes"/>
      <point x="104" y="54"/>
      <point x="95" y="45"/>
      <point x="70" y="45" type="curve" smooth="yes"/>
      <point x="35" y="45" type="line"/>
      <point x="35" y="0" type="line"/>
    </contour>
    <contour>
      <point x="127" y="529" type="line"/>
      <point x="243" y="707" type="line"/>
      <point x="164" y="707" type="line"/>
      <point x="79" y="529" type="line"/>
    </contour>
  </outline>
</glyph>
<glyph name="icircumflex" format="1">
  <advance width="261"/>
  <unicode hex="00EE"/>
  <note>
	icircumflex
  </note>
  <outline>
    <contour>
      <point x="226" y="0" type="line"/>
      <point x="226" y="45" type="line"/>
      <point x="191" y="45" type="line" smooth="yes"/>
      <point x="166" y="45"/>
      <point x="157" y="54"/>
      <point x="157" y="81" type="curve" smooth="yes"/>
      <point x="157" y="480" type="line"/>
      <point x="35" y="480" type="line"/>
      <point x="35" y="435" type="line"/>
      <point x="70" y="435" type="line" smooth="yes"/>
      <point x="95" y="435"/>
      <point x="104" y="426"/>
      <point x="104" y="399" type="curve" smooth="yes"/>
      <point x="104" y="81" type="line" smooth="yes"/>
      <point x="104" y="54"/>
      <point x="95" y="45"/>
      <point x="70" y="45" type="curve" smooth="yes"/>
      <point x="35" y="45" type="line"/>
      <point x="35" y="0" type="line"/>
    </contour>
    <contour>
      <point x="14" y="523" type="line"/>
      <point x="105" y="662" type="line"/>
      <point x="197" y="523" type="line"/>
      <point x="255" y="523" type="line"/>
      <point x="140" y="701" type="line"/>
      <point x="71" y="701" type="line"/>
      <point x="-44" y="523" type="line"/>
    </contour>
  </outline>
</glyph>
<glyph name="eth" format="1">
  <advance width="567"/>
  <unicode hex="00F0"/>
  <note>
	eth
  </note>
  <outline>
    <contour>
      <point x="392" y="-15"/>
      <point x="494" y="63"/>
      <point x="516" y="276" type="curve" smooth="yes"/>
      <point x="533" y="435"/>
      <point x="512" y="532"/>
      <point x="472" y="589" type="curve"/>
      <point x="514" y="613" type="line"/>
      <point x="514" y="665" type="line"/>
      <point x="441" y="623" type="line"/>
      <point x="406" y="652"/>
      <point x="363" y="662"/>
      <point x="318" y="662" type="curve" smooth="yes"/>
      <point x="257" y="662"/>
      <point x="194" y="650"/>
      <point x="156" y="628" type="curve"/>
      <point x="177" y="585" type="line"/>
      <point x="221" y="608"/>
      <point x="262" y="616"/>
      <point x="314" y="616" type="curve" smooth="yes"/>
      <point x="343" y="616"/>
      <point x="372" y="609"/>
      <point x="393" y="596" type="curve"/>
      <point x="315" y="552" type="line"/>
      <point x="315" y="500" type="line"/>
      <point x="428" y="564" type="line"/>
      <point x="461" y="515"/>
      <point x="472" y="457"/>
      <point x="471" y="363" type="curve"/>
      <point x="433" y="425"/>
      <point x="377" y="459"/>
      <point x="302" y="459" type="curve" smooth="yes"/>
      <point x="159" y="459"/>
      <point x="63" y="373"/>
      <point x="48" y="231" type="curve" smooth="yes"/>
      <point x="30" y="66"/>
      <point x="111" y="-15"/>
      <point x="257" y="-15" type="curve" smooth="yes"/>
    </contour>
    <contour>
      <point x="133" y="31"/>
      <point x="84" y="90"/>
      <point x="99" y="231" type="curve" smooth="yes"/>
      <point x="111" y="351"/>
      <point x="176" y="413"/>
      <point x="305" y="413" type="curve" smooth="yes"/>
      <point x="390" y="413"/>
      <point x="473" y="352"/>
      <point x="461" y="240" type="curve" smooth="yes"/>
      <point x="446" y="91"/>
      <point x="368" y="31"/>
      <point x="262" y="31" type="curve" smooth="yes"/>
    </contour>
  </outline>
</glyph>
<glyph name="ntilde" format="1">
  <advance width="597"/>
  <unicode hex="00F1"/>
  <note>
	ntilde
  </note>
  <outline>
    <contour>
      <point x="236" y="0" type="line"/>
      <point x="236" y="45" type="line"/>
      <point x="201" y="45" type="line" smooth="yes"/>
      <point x="176" y="45"/>
      <point x="167" y="54"/>
      <point x="167" y="81" type="curve" smooth="yes"/>
      <point x="167" y="305" type="line" smooth="yes"/>
      <point x="167" y="396"/>
      <point x="243" y="449"/>
      <point x="327" y="449" type="curve" smooth="yes"/>
      <point x="409" y="449"/>
      <point x="440" y="414"/>
      <point x="440" y="330" type="curve" smooth="yes"/>
      <point x="440" y="0" type="line"/>
      <point x="562" y="0" type="line"/>
      <point x="562" y="45" type="line"/>
      <point x="527" y="45" type="line" smooth="yes"/>
      <point x="502" y="45"/>
      <point x="493" y="54"/>
      <point x="493" y="81" type="curve" smooth="yes"/>
      <point x="493" y="331" type="line" smooth="yes"/>
      <point x="493" y="435"/>
      <point x="445" y="495"/>
      <point x="342" y="495" type="curve" smooth="yes"/>
      <point x="259" y="495"/>
      <point x="207" y="472"/>
      <point x="160" y="411" type="curve"/>
      <point x="154" y="480" type="line"/>
      <point x="54" y="480" type="line"/>
      <point x="54" y="435" type="line"/>
      <point x="80" y="435" type="line" smooth="yes"/>
      <point x="105" y="435"/>
      <point x="114" y="426"/>
      <point x="114" y="399" type="curve" smooth="yes"/>
      <point x="114" y="81" type="line" smooth="yes"/>
      <point x="114" y="54"/>
      <point x="105" y="45"/>
      <point x="80" y="45" type="curve" smooth="yes"/>
      <point x="45" y="45" type="line"/>
      <point x="45" y="0" type="line"/>
    </contour>
    <contour>
      <point x="184" y="529" type="line"/>
      <point x="184" y="578"/>
      <point x="200" y="588"/>
      <point x="229" y="588" type="curve" smooth="yes"/>
      <point x="289" y="588"/>
      <point x="330" y="529"/>
      <point x="396" y="529" type="curve" smooth="yes"/>
      <point x="454" y="529"/>
      <point x="488" y="560"/>
      <point x="488" y="634" type="curve"/>
      <point x="441" y="634" type="line"/>
      <point x="441" y="585"/>
      <point x="425" y="575"/>
      <point x="396" y="575" type="curve" smooth="yes"/>
      <point x="343" y="575"/>
      <point x="300" y="634"/>
      <point x="229" y="634" type="curve" smooth="yes"/>
      <point x="171" y="634"/>
      <point x="137" y="603"/>
      <point x="137" y="529" type="curve"/>
    </contour>
  </outline>
</glyph>
<glyph name="ograve" format="1">
  <advance width="558"/>
  <unicode hex="00F2"/>
  <note>
	ograve
  </note>
  <outline>
    <contour>
      <point x="447" y="-15"/>
      <point x="513" y="90"/>
      <point x="513" y="239" type="curve" smooth="yes"/>
      <point x="513" y="388"/>
      <point x="447" y="495"/>
      <point x="279" y="495" type="curve" smooth="yes"/>
      <point x="111" y="495"/>
      <point x="45" y="388"/>
      <point x="45" y="239" type="curve" smooth="yes"/>
      <point x="45" y="90"/>
      <point x="111" y="-15"/>
      <point x="279" y="-15" type="curve" smooth="yes"/>
    </contour>
    <contour>
      <point x="160" y="31"/>
      <point x="96" y="99"/>
      <point x="96" y="239" type="curve" smooth="yes"/>
      <point x="96" y="379"/>
      <point x="160" y="449"/>
      <point x="279" y="449" type="curve" smooth="yes"/>
      <point x="398" y="449"/>
      <point x="462" y="379"/>
      <point x="462" y="239" type="curve" smooth="yes"/>
      <point x="462" y="99"/>
      <point x="398" y="31"/>
      <point x="279" y="31" type="curve" smooth="yes"/>
    </contour>
    <contour>
      <point x="323" y="529" type="line"/>
      <point x="238" y="707" type="line"/>
      <point x="159" y="707" type="line"/>
      <point x="275" y="529" type="line"/>
    </contour>
  </outline>
</glyph>
<glyph name="otilde" format="1">
  <advance width="558"/>
  <unicode hex="00F5"/>
  <note>
	otilde
  </note>
  <outline>
    <contour>
      <point x="447" y="-15"/>
      <point x="513" y="90"/>
      <point x="513" y="239" type="curve" smooth="yes"/>
      <point x="513" y="388"/>
      <point x="447" y="495"/>
      <point x="279" y="495" type="curve" smooth="yes"/>
      <point x="111" y="495"/>
      <point x="45" y="388"/>
      <point x="45" y="239" type="curve" smooth="yes"/>
      <point x="45" y="90"/>
      <point x="111" y="-15"/>
      <point x="279" y="-15" type="curve" smooth="yes"/>
    </contour>
    <contour>
      <point x="160" y="31"/>
      <point x="96" y="99"/>
      <point x="96" y="239" type="curve" smooth="yes"/>
      <point x="96" y="379"/>
      <point x="160" y="449"/>
      <point x="279" y="449" type="curve" smooth="yes"/>
      <point x="398" y="449"/>
      <point x="462" y="379"/>
      <point x="462" y="239" type="curve" smooth="yes"/>
      <point x="462" y="99"/>
      <point x="398" y="31"/>
      <point x="279" y="31" type="curve" smooth="yes"/>
    </contour>
    <contour>
      <point x="151" y="529" type="line"/>
      <point x="151" y="578"/>
      <point x="167" y="588"/>
      <point x="196" y="588" type="curve" smooth="yes"/>
      <point x="256" y="588"/>
      <point x="297" y="529"/>
      <point x="363" y="529" type="curve" smooth="yes"/>
      <point x="421" y="529"/>
      <point x="455" y="560"/>
      <point x="455" y="634" type="curve"/>
      <point x="408" y="634" type="line"/>
      <point x="408" y="585"/>
      <point x="392" y="575"/>
      <point x="363" y="575" type="curve" smooth="yes"/>
      <point x="310" y="575"/>
      <point x="267" y="634"/>
      <point x="196" y="634" type="curve" smooth="yes"/>
      <point x="138" y="634"/>
      <point x="104" y="603"/>
      <point x="104" y="529" type="curve"/>
    </contour>
  </outline>
</glyph>
<glyph name="odieresis" format="1">
  <advance width="558"/>
  <unicode hex="00F6"/>
  <note>
	odieresis
  </note>
  <outline>
    <contour>
      <point x="447" y="-15"/>
      <point x="513" y="90"/>
      <point x="513" y="239" type="curve" smooth="yes"/>
      <point x="513" y="388"/>
      <point x="447" y="495"/>
      <point x="279" y="495" type="curve" smooth="yes"/>
      <point x="111" y="495"/>
      <point x="45" y="388"/>
      <point x="45" y="239" type="curve" smooth="yes"/>
      <point x="45" y="90"/>
      <point x="111" y="-15"/>
      <point x="279" y="-15" type="curve" smooth="yes"/>
    </contour>
    <contour>
      <point x="160" y="31"/>
      <point x="96" y="99"/>
      <point x="96" y="239" type="curve" smooth="yes"/>
      <point x="96" y="379"/>
      <point x="160" y="449"/>
      <point x="279" y="449" type="curve" smooth="yes"/>
      <point x="398" y="449"/>
      <point x="462" y="379"/>
      <point x="462" y="239" type="curve" smooth="yes"/>
      <point x="462" y="99"/>
      <point x="398" y="31"/>
      <point x="279" y="31" type="curve" smooth="yes"/>
    </contour>
    <contour>
      <point x="219" y="549" type="line"/>
      <point x="219" y="617" type="line"/>
      <point x="151" y="617" type="line"/>
      <point x="151" y="549" type="line"/>
    </contour>
    <contour>
      <point x="408" y="549" type="line"/>
      <point x="408" y="617" type="line"/>
      <point x="340" y="617" type="line"/>
      <point x="340" y="549" type="line"/>
    </contour>
  </outline>
</glyph>
<glyph name="divide" format="1">
  <advance width="411"/>
  <unicode hex="00F7"/>
  <note>
	divide
  </note>
  <outline>
    <contour>
      <point x="356" y="282" type="line"/>
      <point x="356" y="327" type="line"/>
      <point x="55" y="327" type="line"/>
      <point x="55" y="282" type="line"/>
    </contour>
    <contour>
      <point x="234" y="160" type="line"/>
      <point x="234" y="219" type="line"/>
      <point x="175" y="219" type="line"/>
      <point x="175" y="160" type="line"/>
    </contour>
    <contour>
      <point x="234" y="390" type="line"/>
      <point x="234" y="449" type="line"/>
      <point x="175" y="449" type="line"/>
      <point x="175" y="390" type="line"/>
    </contour>
  </outline>
</glyph>
<glyph name="yacute" format="1">
  <advance width="548"/>
  <unicode hex="00FD"/>
  <note>
	yacute
  </note>
  <outline>
    <contour>
      <point x="414" y="-200"/>
      <point x="483" y="-122"/>
      <point x="483" y="-5" type="curve" smooth="yes"/>
      <point x="483" y="480" type="line"/>
      <point x="361" y="480" type="line"/>
      <point x="361" y="435" type="line"/>
      <point x="396" y="435" type="line" smooth="yes"/>
      <point x="421" y="435"/>
      <point x="430" y="426"/>
      <point x="430" y="399" type="curve" smooth="yes"/>
      <point x="430" y="201" type="line" smooth="yes"/>
      <point x="430" y="102"/>
      <point x="363" y="48"/>
      <point x="279" y="48" type="curve" smooth="yes"/>
      <point x="198" y="48"/>
      <point x="157" y="89"/>
      <point x="157" y="170" type="curve" smooth="yes"/>
      <point x="157" y="480" type="line"/>
      <point x="35" y="480" type="line"/>
      <point x="35" y="435" type="line"/>
      <point x="70" y="435" type="line" smooth="yes"/>
      <point x="95" y="435"/>
      <point x="104" y="426"/>
      <point x="104" y="399" type="curve" smooth="yes"/>
      <point x="104" y="169" type="line" smooth="yes"/>
      <point x="104" y="65"/>
      <point x="161" y="5"/>
      <point x="264" y="5" type="curve" smooth="yes"/>
      <point x="347" y="5"/>
      <point x="390" y="27"/>
      <point x="430" y="80" type="curve"/>
      <point x="430" y="-9" type="line" smooth="yes"/>
      <point x="430" y="-99"/>
      <point x="389" y="-154"/>
      <point x="299" y="-154" type="curve" smooth="yes"/>
      <point x="249" y="-154"/>
      <point x="209" y="-141"/>
      <point x="181" y="-111" type="curve"/>
      <point x="181" y="-68" type="line"/>
      <point x="129" y="-68" type="line"/>
      <point x="129" y="-133" type="line"/>
      <point x="170" y="-174"/>
      <point x="221" y="-200"/>
      <point x="303" y="-200" type="curve" smooth="yes"/>
    </contour>
    <contour>
      <point x="290" y="529" type="line"/>
      <point x="406" y="707" type="line"/>
      <point x="327" y="707" type="line"/>
      <point x="242" y="529" type="line"/>
    </contour>
  </outline>
</glyph>
<glyph name="thorn" format="1">
  <advance width="593"/>
  <unicode hex="00FE"/>
  <note>
	thorn
  </note>
  <outline>
    <contour>
      <point x="218" y="-208" type="line"/>
      <point x="218" y="-166" type="line"/>
      <point x="197" y="-166" type="line" smooth="yes"/>
      <point x="162" y="-166"/>
      <point x="158" y="-151"/>
      <point x="158" y="-117" type="curve" smooth="yes"/>
      <point x="158" y="76" type="line"/>
      <point x="204" y="8"/>
      <point x="264" y="-15"/>
      <point x="338" y="-15" type="curve" smooth="yes"/>
      <point x="468" y="-15"/>
      <point x="548" y="82"/>
      <point x="548" y="244" type="curve" smooth="yes"/>
      <point x="548" y="405"/>
      <point x="469" y="495"/>
      <point x="339" y="495" type="curve" smooth="yes"/>
      <point x="265" y="495"/>
      <point x="199" y="468"/>
      <point x="158" y="404" type="curve"/>
      <point x="158" y="662" type="line"/>
      <point x="45" y="662" type="line"/>
      <point x="45" y="620" type="line"/>
      <point x="73" y="620" type="line" smooth="yes"/>
      <point x="96" y="620"/>
      <point x="105" y="609"/>
      <point x="105" y="580" type="curve" smooth="yes"/>
      <point x="105" y="-208" type="line"/>
    </contour>
    <contour>
      <point x="236" y="28"/>
      <point x="155" y="95"/>
      <point x="155" y="208" type="curve" smooth="yes"/>
      <point x="155" y="264" type="line" smooth="yes"/>
      <point x="155" y="374"/>
      <point x="230" y="453"/>
      <point x="332" y="453" type="curve" smooth="yes"/>
      <point x="441" y="453"/>
      <point x="497" y="382"/>
      <point x="497" y="244" type="curve" smooth="yes"/>
      <point x="497" y="98"/>
      <point x="438" y="28"/>
      <point x="325" y="28" type="curve" smooth="yes"/>
    </contour>
  </outline>
</glyph>
<glyph name="Amacron" format="1">
  <advance width="724"/>
  <unicode hex="0100"/>
  <note>
	Amacron
  </note>
  <outline>
    <contour>
      <point x="231" y="0" type="line"/>
      <point x="231" y="45" type="line"/>
      <point x="173" y="45" type="line"/>
      <point x="232" y="209" type="line"/>
      <point x="492" y="209" type="line"/>
      <point x="551" y="45" type="line"/>
      <point x="493" y="45" type="line"/>
      <point x="493" y="0" type="line"/>
      <point x="679" y="0" type="line"/>
      <point x="679" y="45" type="line"/>
      <point x="644" y="45" type="line" smooth="yes"/>
      <point x="619" y="45"/>
      <point x="599" y="56"/>
      <point x="590" y="81" type="curve" smooth="yes"/>
      <point x="387" y="647" type="line"/>
      <point x="338" y="647" type="line"/>
      <point x="134" y="81" type="line" smooth="yes"/>
      <point x="125" y="56"/>
      <point x="105" y="45"/>
      <point x="80" y="45" type="curve" smooth="yes"/>
      <point x="45" y="45" type="line"/>
      <point x="45" y="0" type="line"/>
    </contour>
    <contour>
      <point x="362" y="572" type="line"/>
      <point x="476" y="254" type="line"/>
      <point x="248" y="254" type="line"/>
    </contour>
    <contour>
      <point x="498" y="723" type="line"/>
      <point x="498" y="768" type="line"/>
      <point x="227" y="768" type="line"/>
      <point x="227" y="723" type="line"/>
    </contour>
  </outline>
</glyph>
<glyph name="Aogonek" format="1">
  <advance width="724"/>
  <unicode hex="0104"/>
  <note>
	Aogonek
  </note>
  <outline>
    <contour>
      <point x="231" y="0" type="line"/>
      <point x="231" y="45" type="line"/>
      <point x="173" y="45" type="line"/>
      <point x="232" y="209" type="line"/>
      <point x="492" y="209" type="line"/>
      <point x="551" y="45" type="line"/>
      <point x="493" y="45" type="line"/>
      <point x="493" y="0" type="line"/>
      <point x="679" y="0" type="line"/>
      <point x="679" y="45" type="line"/>
      <point x="644" y="45" type="line" smooth="yes"/>
      <point x="619" y="45"/>
      <point x="599" y="56"/>
      <point x="590" y="81" type="curve" smooth="yes"/>
      <point x="387" y="647" type="line"/>
      <point x="338" y="647" type="line"/>
      <point x="134" y="81" type="line" smooth="yes"/>
      <point x="125" y="56"/>
      <point x="105" y="45"/>
      <point x="80" y="45" type="curve" smooth="yes"/>
      <point x="45" y="45" type="line"/>
      <point x="45" y="0" type="line"/>
    </contour>
    <contour>
      <point x="634" y="-201"/>
      <point x="649" y="-198"/>
      <point x="663" y="-191" type="curve"/>
      <point x="663" y="-154" type="line"/>
      <point x="646" y="-159"/>
      <point x="629" y="-161"/>
      <point x="614" y="-161" type="curve" smooth="yes"/>
      <point x="585" y="-161"/>
      <point x="571" y="-146"/>
      <point x="571" y="-106" type="curve" smooth="yes"/>
      <point x="571" y="-65"/>
      <point x="589" y="-30"/>
      <point x="622" y="0" type="curve"/>
      <point x="577" y="0" type="line"/>
      <point x="546" y="-30"/>
      <point x="528" y="-64"/>
      <point x="528" y="-106" type="curve" smooth="yes"/>
      <point x="528" y="-170"/>
      <point x="562" y="-201"/>
      <point x="614" y="-201" type="curve" smooth="yes"/>
    </contour>
    <contour>
      <point x="362" y="572" type="line"/>
      <point x="476" y="254" type="line"/>
      <point x="248" y="254" type="line"/>
    </contour>
  </outline>
</glyph>
<glyph name="aogonek" format="1">
  <advance width="518"/>
  <unicode hex="0105"/>
  <note>
	aogonek
  </note>
  <outline>
    <contour>
      <point x="276" y="-15"/>
      <point x="338" y="9"/>
      <point x="376" y="61" type="curve"/>
      <point x="387" y="0" type="line"/>
      <point x="483" y="0" type="line"/>
      <point x="483" y="38" type="line"/>
      <point x="455" y="38" type="line" smooth="yes"/>
      <point x="432" y="38"/>
      <point x="423" y="49"/>
      <point x="423" y="78" type="curve" smooth="yes"/>
      <point x="423" y="329" type="line" smooth="yes"/>
      <point x="423" y="427"/>
      <point x="384" y="495"/>
      <point x="252" y="495" type="curve" smooth="yes"/>
      <point x="184" y="495"/>
      <point x="128" y="480"/>
      <point x="75" y="448" type="curve"/>
      <point x="75" y="387" type="line"/>
      <point x="128" y="387" type="line"/>
      <point x="128" y="424" type="line"/>
      <point x="163" y="441"/>
      <point x="198" y="449"/>
      <point x="254" y="449" type="curve" smooth="yes"/>
      <point x="345" y="449"/>
      <point x="370" y="413"/>
      <point x="370" y="330" type="curve" smooth="yes"/>
      <point x="370" y="265" type="line"/>
      <point x="196" y="253" type="line" smooth="yes"/>
      <point x="102" y="247"/>
      <point x="35" y="214"/>
      <point x="35" y="117" type="curve" smooth="yes"/>
      <point x="35" y="31"/>
      <point x="89" y="-15"/>
      <point x="188" y="-15" type="curve" smooth="yes"/>
    </contour>
    <contour>
      <point x="444" y="-201"/>
      <point x="459" y="-198"/>
      <point x="473" y="-191" type="curve"/>
      <point x="473" y="-154" type="line"/>
      <point x="456" y="-159"/>
      <point x="439" y="-161"/>
      <point x="424" y="-161" type="curve" smooth="yes"/>
      <point x="395" y="-161"/>
      <point x="381" y="-146"/>
      <point x="381" y="-106" type="curve" smooth="yes"/>
      <point x="381" y="-65"/>
      <point x="399" y="-30"/>
      <point x="432" y="0" type="curve"/>
      <point x="387" y="0" type="line"/>
      <point x="356" y="-30"/>
      <point x="338" y="-64"/>
      <point x="338" y="-106" type="curve" smooth="yes"/>
      <point x="338" y="-170"/>
      <point x="372" y="-201"/>
      <point x="424" y="-201" type="curve" smooth="yes"/>
    </contour>
    <contour>
      <point x="116" y="31"/>
      <point x="86" y="61"/>
      <point x="86" y="115" type="curve" smooth="yes"/>
      <point x="86" y="181"/>
      <point x="112" y="205"/>
      <point x="195" y="211" type="curve" smooth="yes"/>
      <point x="370" y="223" type="line"/>
      <point x="370" y="165" type="line" smooth="yes"/>
      <point x="370" y="71"/>
      <point x="295" y="31"/>
      <point x="200" y="31" type="curve" smooth="yes"/>
    </contour>
  </outline>
</glyph>
<glyph name="cacute" format="1">
  <advance width="508"/>
  <unicode hex="0107"/>
  <note>
	cacute
  </note>
  <outline>
    <contour>
      <point x="360" y="-15"/>
      <point x="412" y="-4"/>
      <point x="463" y="27" type="curve"/>
      <point x="439" y="66" type="line"/>
      <point x="396" y="41"/>
      <point x="359" y="31"/>
      <point x="290" y="31" type="curve" smooth="yes"/>
      <point x="198" y="31"/>
      <point x="96" y="87"/>
      <point x="96" y="238" type="curve" smooth="yes"/>
      <point x="96" y="393"/>
      <point x="184" y="449"/>
      <point x="283" y="449" type="curve" smooth="yes"/>
      <point x="344" y="449"/>
      <point x="374" y="440"/>
      <point x="410" y="421" type="curve"/>
      <point x="410" y="366" type="line"/>
      <point x="463" y="366" type="line"/>
      <point x="463" y="444" type="line"/>
      <point x="417" y="477"/>
      <point x="368" y="495"/>
      <point x="283" y="495" type="curve" smooth="yes"/>
      <point x="135" y="495"/>
      <point x="45" y="402"/>
      <point x="45" y="238" type="curve" smooth="yes"/>
      <point x="45" y="74"/>
      <point x="154" y="-15"/>
      <point x="290" y="-15" type="curve" smooth="yes"/>
    </contour>
    <contour>
      <point x="287" y="529" type="line"/>
      <point x="403" y="707" type="line"/>
      <point x="324" y="707" type="line"/>
      <point x="239" y="529" type="line"/>
    </contour>
  </outline>
</glyph>
<glyph name="Ccircumflex" format="1">
  <advance width="595"/>
  <unicode hex="0108"/>
  <note>
	Ccircumflex
  </note>
  <outline>
    <contour>
      <point x="429" y="-15"/>
      <point x="489" y="-4"/>
      <point x="540" y="27" type="curve"/>
      <point x="516" y="66" type="line"/>
      <point x="473" y="41"/>
      <point x="423" y="31"/>
      <point x="359" y="31" type="curve" smooth="yes"/>
      <point x="207" y="31"/>
      <point x="96" y="140"/>
      <point x="96" y="321" type="curve" smooth="yes"/>
      <point x="96" y="506"/>
      <point x="194" y="616"/>
      <point x="353" y="616" type="curve" smooth="yes"/>
      <point x="414" y="616"/>
      <point x="461" y="607"/>
      <point x="497" y="588" type="curve"/>
      <point x="497" y="533" type="line"/>
      <point x="550" y="533" type="line"/>
      <point x="550" y="611" type="line"/>
      <point x="504" y="644"/>
      <point x="438" y="662"/>
      <point x="353" y="662" type="curve" smooth="yes"/>
      <point x="145" y="662"/>
      <point x="45" y="515"/>
      <point x="45" y="321" type="curve" smooth="yes"/>
      <point x="45" y="127"/>
      <point x="158" y="-15"/>
      <point x="359" y="-15" type="curve" smooth="yes"/>
    </contour>
    <contour>
      <point x="264" y="703" type="line"/>
      <point x="355" y="842" type="line"/>
      <point x="447" y="703" type="line"/>
      <point x="505" y="703" type="line"/>
      <point x="390" y="881" type="line"/>
      <point x="321" y="881" type="line"/>
      <point x="206" y="703" type="line"/>
    </contour>
  </outline>
</glyph>
<glyph name="Cdotaccent" format="1">
  <advance width="595"/>
  <unicode hex="010A"/>
  <note>
	Cdotaccent
  </note>
  <outline>
    <contour>
      <point x="429" y="-15"/>
      <point x="489" y="-4"/>
      <point x="540" y="27" type="curve"/>
      <point x="516" y="66" type="line"/>
      <point x="473" y="41"/>
      <point x="423" y="31"/>
      <point x="359" y="31" type="curve" smooth="yes"/>
      <point x="207" y="31"/>
      <point x="96" y="140"/>
      <point x="96" y="321" type="curve" smooth="yes"/>
      <point x="96" y="506"/>
      <point x="194" y="616"/>
      <point x="353" y="616" type="curve" smooth="yes"/>
      <point x="414" y="616"/>
      <point x="461" y="607"/>
      <point x="497" y="588" type="curve"/>
      <point x="497" y="533" type="line"/>
      <point x="550" y="533" type="line"/>
      <point x="550" y="611" type="line"/>
      <point x="504" y="644"/>
      <point x="438" y="662"/>
      <point x="353" y="662" type="curve" smooth="yes"/>
      <point x="145" y="662"/>
      <point x="45" y="515"/>
      <point x="45" y="321" type="curve" smooth="yes"/>
      <point x="45" y="127"/>
      <point x="158" y="-15"/>
      <point x="359" y="-15" type="curve" smooth="yes"/>
    </contour>
    <contour>
      <point x="395" y="723" type="line"/>
      <point x="395" y="791" type="line"/>
      <point x="327" y="791" type="line"/>
      <point x="327" y="723" type="line"/>
    </contour>
  </outline>
</glyph>
<glyph name="Ccaron" format="1">
  <advance width="595"/>
  <unicode hex="010C"/>
  <note>
	Ccaron
  </note>
  <outline>
    <contour>
      <point x="429" y="-15"/>
      <point x="489" y="-4"/>
      <point x="540" y="27" type="curve"/>
      <point x="516" y="66" type="line"/>
      <point x="473" y="41"/>
      <point x="423" y="31"/>
      <point x="359" y="31" type="curve" smooth="yes"/>
      <point x="207" y="31"/>
      <point x="96" y="140"/>
      <point x="96" y="321" type="curve" smooth="yes"/>
      <point x="96" y="506"/>
      <point x="194" y="616"/>
      <point x="353" y="616" type="curve" smooth="yes"/>
      <point x="414" y="616"/>
      <point x="461" y="607"/>
      <point x="497" y="588" type="curve"/>
      <point x="497" y="533" type="line"/>
      <point x="550" y="533" type="line"/>
      <point x="550" y="611" type="line"/>
      <point x="504" y="644"/>
      <point x="438" y="662"/>
      <point x="353" y="662" type="curve" smooth="yes"/>
      <point x="145" y="662"/>
      <point x="45" y="515"/>
      <point x="45" y="321" type="curve" smooth="yes"/>
      <point x="45" y="127"/>
      <point x="158" y="-15"/>
      <point x="359" y="-15" type="curve" smooth="yes"/>
    </contour>
    <contour>
      <point x="385" y="703" type="line"/>
      <point x="500" y="881" type="line"/>
      <point x="442" y="881" type="line"/>
      <point x="350" y="742" type="line"/>
      <point x="259" y="881" type="line"/>
      <point x="201" y="881" type="line"/>
      <point x="316" y="703" type="line"/>
    </contour>
  </outline>
</glyph>
<glyph name="Ebreve" format="1">
  <advance width="543"/>
  <unicode hex="0114"/>
  <note>
	Ebreve
  </note>
  <outline>
    <contour>
      <point x="498" y="0" type="line"/>
      <point x="498" y="104" type="line"/>
      <point x="450" y="104" type="line"/>
      <point x="450" y="79" type="line" smooth="yes"/>
      <point x="450" y="54"/>
      <point x="441" y="45"/>
      <point x="414" y="45" type="curve" smooth="yes"/>
      <point x="167" y="45" type="line"/>
      <point x="167" y="302" type="line"/>
      <point x="378" y="302" type="line"/>
      <point x="378" y="347" type="line"/>
      <point x="167" y="347" type="line"/>
      <point x="167" y="602" type="line"/>
      <point x="414" y="602" type="line" smooth="yes"/>
      <point x="441" y="602"/>
      <point x="450" y="593"/>
      <point x="450" y="568" type="curve" smooth="yes"/>
      <point x="450" y="544" type="line"/>
      <point x="498" y="544" type="line"/>
      <point x="498" y="647" type="line"/>
      <point x="45" y="647" type="line"/>
      <point x="45" y="602" type="line"/>
      <point x="80" y="602" type="line" smooth="yes"/>
      <point x="105" y="602"/>
      <point x="114" y="593"/>
      <point x="114" y="566" type="curve" smooth="yes"/>
      <point x="114" y="81" type="line" smooth="yes"/>
      <point x="114" y="54"/>
      <point x="105" y="45"/>
      <point x="80" y="45" type="curve" smooth="yes"/>
      <point x="45" y="45" type="line"/>
      <point x="45" y="0" type="line"/>
    </contour>
    <contour>
      <point x="382" y="703"/>
      <point x="442" y="753"/>
      <point x="442" y="833" type="curve"/>
      <point x="399" y="833" type="line"/>
      <point x="399" y="776"/>
      <point x="359" y="746"/>
      <point x="302" y="746" type="curve" smooth="yes"/>
      <point x="245" y="746"/>
      <point x="205" y="776"/>
      <point x="205" y="833" type="curve"/>
      <point x="162" y="833" type="line"/>
      <point x="162" y="753"/>
      <point x="222" y="703"/>
      <point x="302" y="703" type="curve" smooth="yes"/>
    </contour>
  </outline>
</glyph>
<glyph name="ebreve" format="1">
  <advance width="534"/>
  <unicode hex="0115"/>
  <note>
	ebreve
  </note>
  <outline>
    <contour>
      <point x="360" y="-15"/>
      <point x="416" y="1"/>
      <point x="472" y="36" type="curve"/>
      <point x="472" y="93" type="line"/>
      <point x="419" y="93" type="line"/>
      <point x="419" y="59" type="line"/>
      <point x="387" y="38"/>
      <point x="348" y="28"/>
      <point x="279" y="28" type="curve" smooth="yes"/>
      <point x="186" y="28"/>
      <point x="99" y="80"/>
      <point x="99" y="218" type="curve"/>
      <point x="489" y="218" type="line"/>
      <point x="489" y="263" type="line" smooth="yes"/>
      <point x="489" y="403"/>
      <point x="422" y="495"/>
      <point x="277" y="495" type="curve" smooth="yes"/>
      <point x="132" y="495"/>
      <point x="45" y="409"/>
      <point x="45" y="232" type="curve" smooth="yes"/>
      <point x="45" y="65"/>
      <point x="150" y="-15"/>
      <point x="279" y="-15" type="curve" smooth="yes"/>
    </contour>
    <contour>
      <point x="99" y="374"/>
      <point x="158" y="449"/>
      <point x="277" y="449" type="curve" smooth="yes"/>
      <point x="392" y="449"/>
      <point x="441" y="387"/>
      <point x="441" y="263" type="curve"/>
      <point x="99" y="263" type="line"/>
    </contour>
    <contour>
      <point x="361" y="529"/>
      <point x="421" y="579"/>
      <point x="421" y="659" type="curve"/>
      <point x="378" y="659" type="line"/>
      <point x="378" y="602"/>
      <point x="338" y="572"/>
      <point x="281" y="572" type="curve" smooth="yes"/>
      <point x="224" y="572"/>
      <point x="184" y="602"/>
      <point x="184" y="659" type="curve"/>
      <point x="141" y="659" type="line"/>
      <point x="141" y="579"/>
      <point x="201" y="529"/>
      <point x="281" y="529" type="curve" smooth="yes"/>
    </contour>
  </outline>
</glyph>
<glyph name="Eogonek" format="1">
  <advance width="543"/>
  <unicode hex="0118"/>
  <note>
	Eogonek
  </note>
  <outline>
    <contour>
      <point x="498" y="0" type="line"/>
      <point x="498" y="104" type="line"/>
      <point x="450" y="104" type="line"/>
      <point x="450" y="79" type="line" smooth="yes"/>
      <point x="450" y="54"/>
      <point x="441" y="45"/>
      <point x="414" y="45" type="curve" smooth="yes"/>
      <point x="167" y="45" type="line"/>
      <point x="167" y="302" type="line"/>
      <point x="378" y="302" type="line"/>
      <point x="378" y="347" type="line"/>
      <point x="167" y="347" type="line"/>
      <point x="167" y="602" type="line"/>
      <point x="414" y="602" type="line" smooth="yes"/>
      <point x="441" y="602"/>
      <point x="450" y="593"/>
      <point x="450" y="568" type="curve" smooth="yes"/>
      <point x="450" y="544" type="line"/>
      <point x="498" y="544" type="line"/>
      <point x="498" y="647" type="line"/>
      <point x="45" y="647" type="line"/>
      <point x="45" y="602" type="line"/>
      <point x="80" y="602" type="line" smooth="yes"/>
      <point x="105" y="602"/>
      <point x="114" y="593"/>
      <point x="114" y="566" type="curve" smooth="yes"/>
      <point x="114" y="81" type="line" smooth="yes"/>
      <point x="114" y="54"/>
      <point x="105" y="45"/>
      <point x="80" y="45" type="curve" smooth="yes"/>
      <point x="45" y="45" type="line"/>
      <point x="45" y="0" type="line"/>
    </contour>
    <contour>
      <point x="469" y="-201"/>
      <point x="484" y="-198"/>
      <point x="498" y="-191" type="curve"/>
      <point x="498" y="-154" type="line"/>
      <point x="481" y="-159"/>
      <point x="464" y="-161"/>
      <point x="449" y="-161" type="curve" smooth="yes"/>
      <point x="420" y="-161"/>
      <point x="406" y="-146"/>
      <point x="406" y="-106" type="curve" smooth="yes"/>
      <point x="406" y="-65"/>
      <point x="424" y="-30"/>
      <point x="457" y="0" type="curve"/>
      <point x="412" y="0" type="line"/>
      <point x="381" y="-30"/>
      <point x="363" y="-64"/>
      <point x="363" y="-106" type="curve" smooth="yes"/>
      <point x="363" y="-170"/>
      <point x="397" y="-201"/>
      <point x="449" y="-201" type="curve" smooth="yes"/>
    </contour>
  </outline>
</glyph>
<glyph name="eogonek" format="1">
  <advance width="534"/>
  <unicode hex="0119"/>
  <note>
	eogonek
  </note>
  <outline>
    <contour>
      <point x="360" y="-15"/>
      <point x="416" y="1"/>
      <point x="472" y="36" type="curve"/>
      <point x="472" y="93" type="line"/>
      <point x="419" y="93" type="line"/>
      <point x="419" y="59" type="line"/>
      <point x="387" y="38"/>
      <point x="348" y="28"/>
      <point x="279" y="28" type="curve" smooth="yes"/>
      <point x="186" y="28"/>
      <point x="99" y="80"/>
      <point x="99" y="218" type="curve"/>
      <point x="489" y="218" type="line"/>
      <point x="489" y="263" type="line" smooth="yes"/>
      <point x="489" y="403"/>
      <point x="422" y="495"/>
      <point x="277" y="495" type="curve" smooth="yes"/>
      <point x="132" y="495"/>
      <point x="45" y="409"/>
      <point x="45" y="232" type="curve" smooth="yes"/>
      <point x="45" y="65"/>
      <point x="150" y="-15"/>
      <point x="279" y="-15" type="curve" smooth="yes"/>
    </contour>
    <contour>
      <point x="406" y="-201"/>
      <point x="421" y="-198"/>
      <point x="435" y="-191" type="curve"/>
      <point x="435" y="-154" type="line"/>
      <point x="418" y="-159"/>
      <point x="401" y="-161"/>
      <point x="386" y="-161" type="curve" smooth="yes"/>
      <point x="357" y="-161"/>
      <point x="343" y="-146"/>
      <point x="343" y="-106" type="curve" smooth="yes"/>
      <point x="343" y="-65"/>
      <point x="361" y="-30"/>
      <point x="394" y="0" type="curve"/>
      <point x="349" y="0" type="line"/>
      <point x="318" y="-30"/>
      <point x="300" y="-64"/>
      <point x="300" y="-106" type="curve" smooth="yes"/>
      <point x="300" y="-170"/>
      <point x="334" y="-201"/>
      <point x="386" y="-201" type="curve" smooth="yes"/>
    </contour>
    <contour>
      <point x="99" y="374"/>
      <point x="158" y="449"/>
      <point x="277" y="449" type="curve" smooth="yes"/>
      <point x="392" y="449"/>
      <point x="441" y="387"/>
      <point x="441" y="263" type="curve"/>
      <point x="99" y="263" type="line"/>
    </contour>
  </outline>
</glyph>
<glyph name="gcircumflex" format="1">
  <advance width="583"/>
  <unicode hex="011D"/>
  <note>
	gcircumflex
  </note>
  <outline>
    <contour>
      <point x="419" y="-200"/>
      <point x="488" y="-122"/>
      <point x="488" y="-5" type="curve" smooth="yes"/>
      <point x="488" y="402" type="line" smooth="yes"/>
      <point x="488" y="431"/>
      <point x="497" y="442"/>
      <point x="520" y="442" type="curve" smooth="yes"/>
      <point x="548" y="442" type="line"/>
      <point x="548" y="480" type="line"/>
      <point x="443" y="480" type="line"/>
      <point x="433" y="405" type="line"/>
      <point x="392" y="469"/>
      <point x="334" y="495"/>
      <point x="260" y="495" type="curve" smooth="yes"/>
      <point x="130" y="495"/>
      <point x="45" y="406"/>
      <point x="45" y="245" type="curve" smooth="yes"/>
      <point x="45" y="83"/>
      <point x="125" y="-14"/>
      <point x="255" y="-14" type="curve" smooth="yes"/>
      <point x="341" y="-14"/>
      <point x="397" y="10"/>
      <point x="435" y="77" type="curve"/>
      <point x="435" y="-9" type="line" smooth="yes"/>
      <point x="435" y="-99"/>
      <point x="389" y="-154"/>
      <point x="306" y="-154" type="curve" smooth="yes"/>
      <point x="256" y="-154"/>
      <point x="218" y="-146"/>
      <point x="188" y="-119" type="curve"/>
      <point x="188" y="-76" type="line"/>
      <point x="136" y="-76" type="line"/>
      <point x="136" y="-141" type="line"/>
      <point x="182" y="-180"/>
      <point x="228" y="-200"/>
      <point x="310" y="-200" type="curve" smooth="yes"/>
    </contour>
    <contour>
      <point x="155" y="29"/>
      <point x="96" y="99"/>
      <point x="96" y="245" type="curve" smooth="yes"/>
      <point x="96" y="383"/>
      <point x="158" y="453"/>
      <point x="267" y="453" type="curve" smooth="yes"/>
      <point x="369" y="453"/>
      <point x="438" y="375"/>
      <point x="438" y="265" type="curve" smooth="yes"/>
      <point x="438" y="209" type="line" smooth="yes"/>
      <point x="438" y="96"/>
      <point x="366" y="29"/>
      <point x="268" y="29" type="curve" smooth="yes"/>
    </contour>
    <contour>
      <point x="186" y="529" type="line"/>
      <point x="277" y="668" type="line"/>
      <point x="369" y="529" type="line"/>
      <point x="427" y="529" type="line"/>
      <point x="312" y="707" type="line"/>
      <point x="243" y="707" type="line"/>
      <point x="128" y="529" type="line"/>
    </contour>
  </outline>
</glyph>
<glyph name="Gbreve" format="1">
  <advance width="604"/>
  <unicode hex="011E"/>
  <note>
	Gbreve
  </note>
  <outline>
    <contour>
      <point x="432" y="-15"/>
      <point x="497" y="0"/>
      <point x="559" y="40" type="curve"/>
      <point x="559" y="325" type="line"/>
      <point x="353" y="325" type="line"/>
      <point x="353" y="280" type="line"/>
      <point x="506" y="280" type="line"/>
      <point x="506" y="61" type="line"/>
      <point x="460" y="39"/>
      <point x="413" y="31"/>
      <point x="349" y="31" type="curve" smooth="yes"/>
      <point x="192" y="31"/>
      <point x="96" y="140"/>
      <point x="96" y="321" type="curve" smooth="yes"/>
      <point x="96" y="506"/>
      <point x="184" y="616"/>
      <point x="343" y="616" type="curve" smooth="yes"/>
      <point x="404" y="616"/>
      <point x="451" y="607"/>
      <point x="487" y="588" type="curve"/>
      <point x="487" y="533" type="line"/>
      <point x="540" y="533" type="line"/>
      <point x="540" y="611" type="line"/>
      <point x="494" y="644"/>
      <point x="428" y="662"/>
      <point x="343" y="662" type="curve" smooth="yes"/>
      <point x="135" y="662"/>
      <point x="45" y="515"/>
      <point x="45" y="321" type="curve" smooth="yes"/>
      <point x="45" y="127"/>
      <point x="148" y="-15"/>
      <point x="349" y="-15" type="curve" smooth="yes"/>
    </contour>
    <contour>
      <point x="423" y="703"/>
      <point x="483" y="753"/>
      <point x="483" y="833" type="curve"/>
      <point x="440" y="833" type="line"/>
      <point x="440" y="776"/>
      <point x="400" y="746"/>
      <point x="343" y="746" type="curve" smooth="yes"/>
      <point x="286" y="746"/>
      <point x="246" y="776"/>
      <point x="246" y="833" type="curve"/>
      <point x="203" y="833" type="line"/>
      <point x="203" y="753"/>
      <point x="263" y="703"/>
      <point x="343" y="703" type="curve" smooth="yes"/>
    </contour>
  </outline>
</glyph>
<glyph name="Itilde" format="1">
  <advance width="281"/>
  <unicode hex="0128"/>
  <note>
	Itilde
  </note>
  <outline>
    <contour>
      <point x="236" y="0" type="line"/>
      <point x="236" y="45" type="line"/>
      <point x="201" y="45" type="line" smooth="yes"/>
      <point x="176" y="45"/>
      <point x="167" y="54"/>
      <point x="167" y="81" type="curve" smooth="yes"/>
      <point x="167" y="566" type="line" smooth="yes"/>
      <point x="167" y="593"/>
      <point x="176" y="602"/>
      <point x="201" y="602" type="curve" smooth="yes"/>
      <point x="236" y="602" type="line"/>
      <point x="236" y="647" type="line"/>
      <point x="45" y="647" type="line"/>
      <point x="45" y="602" type="line"/>
      <point x="80" y="602" type="line" smooth="yes"/>
      <point x="105" y="602"/>
      <point x="114" y="593"/>
      <point x="114" y="566" type="curve" smooth="yes"/>
      <point x="114" y="81" type="line" smooth="yes"/>
      <point x="114" y="54"/>
      <point x="105" y="45"/>
      <point x="80" y="45" type="curve" smooth="yes"/>
      <point x="45" y="45" type="line"/>
      <point x="45" y="0" type="line"/>
    </contour>
    <contour>
      <point x="11" y="703" type="line"/>
      <point x="11" y="752"/>
      <point x="27" y="762"/>
      <point x="56" y="762" type="curve" smooth="yes"/>
      <point x="116" y="762"/>
      <point x="157" y="703"/>
      <point x="223" y="703" type="curve" smooth="yes"/>
      <point x="281" y="703"/>
      <point x="315" y="734"/>
      <point x="315" y="808" type="curve"/>
      <point x="268" y="808" type="line"/>
      <point x="268" y="759"/>
      <point x="252" y="749"/>
      <point x="223" y="749" type="curve" smooth="yes"/>
      <point x="170" y="749"/>
      <point x="127" y="808"/>
      <point x="56" y="808" type="curve" smooth="yes"/>
      <point x="-2" y="808"/>
      <point x="-36" y="777"/>
      <point x="-36" y="703" type="curve"/>
    </contour>
  </outline>
</glyph>
<glyph name="itilde" format="1">
  <advance width="261"/>
  <unicode hex="0129"/>
  <note>
	itilde
  </note>
  <outline>
    <contour>
      <point x="226" y="0" type="line"/>
      <point x="226" y="45" type="line"/>
      <point x="191" y="45" type="line" smooth="yes"/>
      <point x="166" y="45"/>
      <point x="157" y="54"/>
      <point x="157" y="81" type="curve" smooth="yes"/>
      <point x="157" y="480" type="line"/>
      <point x="35" y="480" type="line"/>
      <point x="35" y="435" type="line"/>
      <point x="70" y="435" type="line" smooth="yes"/>
      <point x="95" y="435"/>
      <point x="104" y="426"/>
      <point x="104" y="399" type="curve" smooth="yes"/>
      <point x="104" y="81" type="line" smooth="yes"/>
      <point x="104" y="54"/>
      <point x="95" y="45"/>
      <point x="70" y="45" type="curve" smooth="yes"/>
      <point x="35" y="45" type="line"/>
      <point x="35" y="0" type="line"/>
    </contour>
    <contour>
      <point x="-7" y="529" type="line"/>
      <point x="-7" y="578"/>
      <point x="9" y="588"/>
      <point x="38" y="588" type="curve" smooth="yes"/>
      <point x="98" y="588"/>
      <point x="139" y="529"/>
      <point x="205" y="529" type="curve" smooth="yes"/>
      <point x="263" y="529"/>
      <point x="297" y="560"/>
      <point x="297" y="634" type="curve"/>
      <point x="250" y="634" type="line"/>
      <point x="250" y="585"/>
      <point x="234" y="575"/>
      <point x="205" y="575" type="curve" smooth="yes"/>
      <point x="152" y="575"/>
      <point x="109" y="634"/>
      <point x="38" y="634" type="curve" smooth="yes"/>
      <point x="-20" y="634"/>
      <point x="-54" y="603"/>
      <point x="-54" y="529" type="curve"/>
    </contour>
  </outline>
</glyph>
<glyph name="Imacron" format="1">
  <advance width="281"/>
  <unicode hex="012A"/>
  <note>
	Imacron
  </note>
  <outline>
    <contour>
      <point x="236" y="0" type="line"/>
      <point x="236" y="45" type="line"/>
      <point x="201" y="45" type="line" smooth="yes"/>
      <point x="176" y="45"/>
      <point x="167" y="54"/>
      <point x="167" y="81" type="curve" smooth="yes"/>
      <point x="167" y="566" type="line" smooth="yes"/>
      <point x="167" y="593"/>
      <point x="176" y="602"/>
      <point x="201" y="602" type="curve" smooth="yes"/>
      <point x="236" y="602" type="line"/>
      <point x="236" y="647" type="line"/>
      <point x="45" y="647" type="line"/>
      <point x="45" y="602" type="line"/>
      <point x="80" y="602" type="line" smooth="yes"/>
      <point x="105" y="602"/>
      <point x="114" y="593"/>
      <point x="114" y="566" type="curve" smooth="yes"/>
      <point x="114" y="81" type="line" smooth="yes"/>
      <point x="114" y="54"/>
      <point x="105" y="45"/>
      <point x="80" y="45" type="curve" smooth="yes"/>
      <point x="45" y="45" type="line"/>
      <point x="45" y="0" type="line"/>
    </contour>
    <contour>
      <point x="276" y="723" type="line"/>
      <point x="276" y="768" type="line"/>
      <point x="5" y="768" type="line"/>
      <point x="5" y="723" type="line"/>
    </contour>
  </outline>
</glyph>
<glyph name="imacron" format="1">
  <advance width="261"/>
  <unicode hex="012B"/>
  <note>
	imacron
  </note>
  <outline>
    <contour>
      <point x="226" y="0" type="line"/>
      <point x="226" y="45" type="line"/>
      <point x="191" y="45" type="line" smooth="yes"/>
      <point x="166" y="45"/>
      <point x="157" y="54"/>
      <point x="157" y="81" type="curve" smooth="yes"/>
      <point x="157" y="480" type="line"/>
      <point x="35" y="480" type="line"/>
      <point x="35" y="435" type="line"/>
      <point x="70" y="435" type="line" smooth="yes"/>
      <point x="95" y="435"/>
      <point x="104" y="426"/>
      <point x="104" y="399" type="curve" smooth="yes"/>
      <point x="104" y="81" type="line" smooth="yes"/>
      <point x="104" y="54"/>
      <point x="95" y="45"/>
      <point x="70" y="45" type="curve" smooth="yes"/>
      <point x="35" y="45" type="line"/>
      <point x="35" y="0" type="line"/>
    </contour>
    <contour>
      <point x="243" y="544" type="line"/>
      <point x="243" y="589" type="line"/>
      <point x="-28" y="589" type="line"/>
      <point x="-28" y="544" type="line"/>
    </contour>
  </outline>
</glyph>
<glyph name="Ibreve" format="1">
  <advance width="281"/>
  <unicode hex="012C"/>
  <note>
	Ibreve
  </note>
  <outline>
    <contour>
      <point x="236" y="0" type="line"/>
      <point x="236" y="45" type="line"/>
      <point x="201" y="45" type="line" smooth="yes"/>
      <point x="176" y="45"/>
      <point x="167" y="54"/>
      <point x="167" y="81" type="curve" smooth="yes"/>
      <point x="167" y="566" type="line" smooth="yes"/>
      <point x="167" y="593"/>
      <point x="176" y="602"/>
      <point x="201" y="602" type="curve" smooth="yes"/>
      <point x="236" y="602" type="line"/>
      <point x="236" y="647" type="line"/>
      <point x="45" y="647" type="line"/>
      <point x="45" y="602" type="line"/>
      <point x="80" y="602" type="line" smooth="yes"/>
      <point x="105" y="602"/>
      <point x="114" y="593"/>
      <point x="114" y="566" type="curve" smooth="yes"/>
      <point x="114" y="81" type="line" smooth="yes"/>
      <point x="114" y="54"/>
      <point x="105" y="45"/>
      <point x="80" y="45" type="curve" smooth="yes"/>
      <point x="45" y="45" type="line"/>
      <point x="45" y="0" type="line"/>
    </contour>
    <contour>
      <point x="220" y="703"/>
      <point x="280" y="753"/>
      <point x="280" y="833" type="curve"/>
      <point x="237" y="833" type="line"/>
      <point x="237" y="776"/>
      <point x="197" y="746"/>
      <point x="140" y="746" type="curve" smooth="yes"/>
      <point x="83" y="746"/>
      <point x="43" y="776"/>
      <point x="43" y="833" type="curve"/>
      <point x="0" y="833" type="line"/>
      <point x="0" y="753"/>
      <point x="60" y="703"/>
      <point x="140" y="703" type="curve" smooth="yes"/>
    </contour>
  </outline>
</glyph>
